Playwrite-Rg00LongSlow.ufo
<glyph name="exclam" format="2">
  <advance width="578"/>
  <unicode hex="0021"/>
  <outline>
    <contour>
      <point x="290" y="216" type="curve" smooth="yes"/>
      <point x="319" y="216"/>
      <point x="334" y="225"/>
      <point x="334" y="244" type="curve" smooth="yes"/>
      <point x="334" y="1488" type="line" smooth="yes"/>
      <point x="334" y="1506"/>
      <point x="319" y="1515"/>
      <point x="290" y="1515" type="curve" smooth="yes"/>
      <point x="261" y="1515"/>
      <point x="246" y="1506"/>
      <point x="246" y="1488" type="curve" smooth="yes"/>
      <point x="246" y="244" type="line" smooth="yes"/>
      <point x="246" y="225"/>
      <point x="261" y="216"/>
    </contour>
    <contour>
      <point x="290" y="-14" type="curve" smooth="yes"/>
      <point x="326" y="-14"/>
      <point x="346" y="6"/>
      <point x="345" y="49" type="curve" smooth="yes"/>
      <point x="344" y="91"/>
      <point x="326" y="113"/>
      <point x="290" y="113" type="curve" smooth="yes"/>
      <point x="253" y="113"/>
      <point x="234" y="91"/>
      <point x="234" y="49" type="curve" smooth="yes"/>
      <point x="234" y="6"/>
      <point x="253" y="-14"/>
    </contour>
  </outline>
</glyph>
<glyph name="quotesingle" format="2">
  <advance width="169"/>
  <unicode hex="0027"/>
  <outline>
    <contour>
      <point x="89" y="963" type="curve" smooth="yes"/>
      <point x="114" y="963"/>
      <point x="119" y="978"/>
      <point x="120" y="994" type="curve" smooth="yes"/>
      <point x="135" y="1305" type="line" smooth="yes"/>
      <point x="136" y="1326"/>
      <point x="124" y="1345"/>
      <point x="89" y="1345" type="curve" smooth="yes"/>
      <point x="54" y="1345"/>
      <point x="42" y="1326"/>
      <point x="43" y="1305" type="curve" smooth="yes"/>
      <point x="58" y="994" type="line" smooth="yes"/>
      <point x="59" y="978"/>
      <point x="63" y="963"/>
    </contour>
  </outline>
</glyph>
<glyph name="parenright" format="2">
  <advance width="486"/>
  <unicode hex="0029"/>
  <outline>
    <contour>
      <point x="108" y="-21" type="curve" smooth="yes"/>
      <point x="93" y="-54"/>
      <point x="100" y="-62"/>
      <point x="128" y="-74" type="curve" smooth="yes"/>
      <point x="158" y="-86"/>
      <point x="168" y="-82"/>
      <point x="179" y="-59" type="curve" smooth="yes"/>
      <point x="288" y="171"/>
      <point x="353" y="440"/>
      <point x="353" y="750" type="curve" smooth="yes"/>
      <point x="353" y="1059"/>
      <point x="288" y="1329"/>
      <point x="179" y="1559" type="curve" smooth="yes"/>
      <point x="168" y="1583"/>
      <point x="158" y="1586"/>
      <point x="128" y="1574" type="curve" smooth="yes"/>
      <point x="100" y="1563"/>
      <point x="93" y="1554"/>
      <point x="108" y="1521" type="curve" smooth="yes"/>
      <point x="205" y="1311"/>
      <point x="265" y="1054"/>
      <point x="265" y="750" type="curve" smooth="yes"/>
      <point x="265" y="445"/>
      <point x="205" y="189"/>
    </contour>
  </outline>
</glyph>
<glyph name="comma" format="2">
  <advance width="313"/>
  <unicode hex="002C"/>
  <outline>
    <contour>
      <point x="156" y="84" type="curve" smooth="yes"/>
      <point x="128" y="84"/>
      <point x="109" y="72"/>
      <point x="109" y="47" type="curve" smooth="yes"/>
      <point x="109" y="-102"/>
      <point x="90" y="-171"/>
      <point x="55" y="-242" type="curve" smooth="yes"/>
      <point x="49" y="-253"/>
      <point x="45" y="-262"/>
      <point x="45" y="-267" type="curve" smooth="yes"/>
      <point x="45" y="-284"/>
      <point x="65" y="-298"/>
      <point x="84" y="-298" type="curve" smooth="yes"/>
      <point x="98" y="-298"/>
      <point x="106" y="-289"/>
      <point x="113" y="-282" type="curve" smooth="yes"/>
      <point x="173" y="-209"/>
      <point x="205" y="-72"/>
      <point x="205" y="44" type="curve" smooth="yes"/>
      <point x="205" y="69"/>
      <point x="186" y="84"/>
    </contour>
  </outline>
</glyph>
<glyph name="two" format="2">
  <advance width="1028"/>
  <unicode hex="0032"/>
  <outline>
    <contour>
      <point x="114" y="0" type="curve" smooth="yes"/>
      <point x="886" y="0" type="line" smooth="yes"/>
      <point x="909" y="0"/>
      <point x="914" y="15"/>
      <point x="914" y="43" type="curve" smooth="yes"/>
      <point x="914" y="71"/>
      <point x="905" y="80"/>
      <point x="886" y="80" type="curve" smooth="yes"/>
      <point x="221" y="80" type="line"/>
      <point x="415" y="288" type="line" smooth="yes"/>
      <point x="689" y="581"/>
      <point x="893" y="874"/>
      <point x="893" y="1135" type="curve" smooth="yes"/>
      <point x="893" y="1395"/>
      <point x="720" y="1515"/>
      <point x="504" y="1515" type="curve" smooth="yes"/>
      <point x="344" y="1515"/>
      <point x="209" y="1440"/>
      <point x="119" y="1344" type="curve" smooth="yes"/>
      <point x="99" y="1323"/>
      <point x="100" y="1305"/>
      <point x="121" y="1285" type="curve" smooth="yes"/>
      <point x="141" y="1266"/>
      <point x="158" y="1269"/>
      <point x="180" y="1290" type="curve" smooth="yes"/>
      <point x="281" y="1385"/>
      <point x="379" y="1430"/>
      <point x="496" y="1430" type="curve" smooth="yes"/>
      <point x="681" y="1430"/>
      <point x="801" y="1344"/>
      <point x="801" y="1135" type="curve" smooth="yes"/>
      <point x="801" y="900"/>
      <point x="621" y="633"/>
      <point x="361" y="355" type="curve" smooth="yes"/>
      <point x="91" y="66" type="line" smooth="yes"/>
      <point x="64" y="38"/>
      <point x="88" y="0"/>
    </contour>
  </outline>
</glyph>
<glyph name="five" format="2">
  <advance width="1126"/>
  <unicode hex="0035"/>
  <outline>
    <contour>
      <point x="568" y="-19" type="curve" smooth="yes"/>
      <point x="848" y="-19"/>
      <point x="1014" y="186"/>
      <point x="1014" y="474" type="curve" smooth="yes"/>
      <point x="1014" y="751"/>
      <point x="850" y="931"/>
      <point x="573" y="931" type="curve" smooth="yes"/>
      <point x="451" y="931"/>
      <point x="343" y="890"/>
      <point x="274" y="840" type="curve"/>
      <point x="294" y="1408" type="line"/>
      <point x="929" y="1408" type="line" smooth="yes"/>
      <point x="949" y="1408"/>
      <point x="958" y="1421"/>
      <point x="958" y="1449" type="curve" smooth="yes"/>
      <point x="958" y="1479"/>
      <point x="946" y="1488"/>
      <point x="929" y="1488" type="curve" smooth="yes"/>
      <point x="253" y="1488" type="line" smooth="yes"/>
      <point x="231" y="1488"/>
      <point x="218" y="1480"/>
      <point x="216" y="1460" type="curve" smooth="yes"/>
      <point x="190" y="750" type="line" smooth="yes"/>
      <point x="189" y="725"/>
      <point x="225" y="703"/>
      <point x="264" y="741" type="curve" smooth="yes"/>
      <point x="335" y="811"/>
      <point x="444" y="851"/>
      <point x="573" y="851" type="curve" smooth="yes"/>
      <point x="793" y="851"/>
      <point x="923" y="696"/>
      <point x="923" y="474" type="curve" smooth="yes"/>
      <point x="923" y="240"/>
      <point x="804" y="61"/>
      <point x="568" y="61" type="curve" smooth="yes"/>
      <point x="436" y="61"/>
      <point x="305" y="119"/>
      <point x="191" y="256" type="curve" smooth="yes"/>
      <point x="174" y="278"/>
      <point x="156" y="275"/>
      <point x="136" y="258" type="curve" smooth="yes"/>
      <point x="113" y="236"/>
      <point x="120" y="219"/>
      <point x="133" y="204" type="curve" smooth="yes"/>
      <point x="256" y="53"/>
      <point x="414" y="-19"/>
    </contour>
  </outline>
</glyph>
<glyph name="at" format="2">
  <advance width="958"/>
  <unicode hex="0040"/>
  <outline>
    <contour>
      <point x="301" y="248" type="curve" smooth="yes"/>
      <point x="301" y="115"/>
      <point x="363" y="54"/>
      <point x="451" y="54" type="curve" smooth="yes"/>
      <point x="500" y="54"/>
      <point x="544" y="72"/>
      <point x="578" y="120" type="curve"/>
      <point x="578" y="119"/>
      <point x="578" y="117"/>
      <point x="578" y="116" type="curve" smooth="yes"/>
      <point x="578" y="81"/>
      <point x="615" y="54"/>
      <point x="670" y="54" type="curve" smooth="yes"/>
      <point x="811" y="54"/>
      <point x="913" y="162"/>
      <point x="913" y="311" type="curve" smooth="yes"/>
      <point x="913" y="551"/>
      <point x="758" y="698"/>
      <point x="498" y="698" type="curve" smooth="yes"/>
      <point x="244" y="698"/>
      <point x="60" y="511"/>
      <point x="60" y="252" type="curve" smooth="yes"/>
      <point x="60" y="-3"/>
      <point x="238" y="-187"/>
      <point x="484" y="-187" type="curve" smooth="yes"/>
      <point x="565" y="-187"/>
      <point x="646" y="-169"/>
      <point x="710" y="-136" type="curve" smooth="yes"/>
      <point x="723" y="-130"/>
      <point x="726" y="-117"/>
      <point x="716" y="-97" type="curve" smooth="yes"/>
      <point x="708" y="-79"/>
      <point x="695" y="-71"/>
      <point x="683" y="-77" type="curve" smooth="yes"/>
      <point x="624" y="-106"/>
      <point x="555" y="-125"/>
      <point x="484" y="-125" type="curve" smooth="yes"/>
      <point x="276" y="-125"/>
      <point x="126" y="33"/>
      <point x="126" y="252" type="curve" smooth="yes"/>
      <point x="126" y="474"/>
      <point x="282" y="635"/>
      <point x="498" y="635" type="curve" smooth="yes"/>
      <point x="717" y="635"/>
      <point x="846" y="510"/>
      <point x="846" y="306" type="curve" smooth="yes"/>
      <point x="846" y="197"/>
      <point x="780" y="118"/>
      <point x="689" y="118" type="curve" smooth="yes"/>
      <point x="661" y="118"/>
      <point x="649" y="130"/>
      <point x="649" y="159" type="curve" smooth="yes"/>
      <point x="649" y="440" type="line" smooth="yes"/>
      <point x="649" y="456"/>
      <point x="635" y="464"/>
      <point x="610" y="464" type="curve" smooth="yes"/>
      <point x="584" y="464"/>
      <point x="576" y="456"/>
      <point x="571" y="443" type="curve" smooth="yes"/>
      <point x="570" y="439" type="line"/>
      <point x="541" y="455"/>
      <point x="501" y="468"/>
      <point x="471" y="468" type="curve" smooth="yes"/>
      <point x="366" y="468"/>
      <point x="301" y="384"/>
    </contour>
    <contour>
      <point x="381" y="250" type="curve" smooth="yes"/>
      <point x="381" y="350"/>
      <point x="423" y="395"/>
      <point x="481" y="395" type="curve" smooth="yes"/>
      <point x="510" y="395"/>
      <point x="539" y="391"/>
      <point x="570" y="374" type="curve"/>
      <point x="570" y="190" type="line"/>
      <point x="540" y="146"/>
      <point x="504" y="128"/>
      <point x="463" y="128" type="curve" smooth="yes"/>
      <point x="408" y="128"/>
      <point x="381" y="171"/>
    </contour>
  </outline>
</glyph>
<glyph name="B" format="2">
  <advance width="1125"/>
  <unicode hex="0042"/>
  <guideline x="429" y="672" angle="0"/>
  <guideline x="323" y="420" angle="270"/>
  <anchor x="561" y="0" name="bottom"/>
  <anchor x="263" y="438" name="center"/>
  <anchor x="561" y="1424" name="top"/>
  <outline>
    <contour>
      <point x="260" y="0" type="curve" smooth="yes"/>
      <point x="536" y="0" type="line" smooth="yes"/>
      <point x="845" y="0"/>
      <point x="1046" y="188"/>
      <point x="1046" y="461" type="curve" smooth="yes"/>
      <point x="1046" y="696"/>
      <point x="868" y="785"/>
      <point x="674" y="789" type="curve"/>
      <point x="674" y="795" type="line"/>
      <point x="801" y="821"/>
      <point x="988" y="941"/>
      <point x="988" y="1173" type="curve" smooth="yes"/>
      <point x="988" y="1401"/>
      <point x="841" y="1488"/>
      <point x="583" y="1488" type="curve" smooth="yes"/>
      <point x="261" y="1488" type="line" smooth="yes"/>
      <point x="231" y="1488"/>
      <point x="216" y="1479"/>
      <point x="216" y="1460" type="curve" smooth="yes"/>
      <point x="216" y="28" type="line" smooth="yes"/>
      <point x="216" y="9"/>
      <point x="231" y="0"/>
    </contour>
    <contour>
      <point x="304" y="80" type="line"/>
      <point x="304" y="746" type="line"/>
      <point x="568" y="746" type="line" smooth="yes"/>
      <point x="798" y="746"/>
      <point x="956" y="670"/>
      <point x="956" y="459" type="curve" smooth="yes"/>
      <point x="956" y="245"/>
      <point x="801" y="80"/>
      <point x="536" y="80" type="curve" smooth="yes"/>
    </contour>
    <contour>
      <point x="304" y="826" type="line"/>
      <point x="304" y="1408" type="line"/>
      <point x="583" y="1408" type="line" smooth="yes"/>
      <point x="779" y="1408"/>
      <point x="898" y="1344"/>
      <point x="898" y="1171" type="curve" smooth="yes"/>
      <point x="898" y="959"/>
      <point x="734" y="826"/>
      <point x="540" y="826" type="curve" smooth="yes"/>
    </contour>
  </outline>
</glyph>
<glyph name="F" format="2">
  <advance width="968"/>
  <unicode hex="0046"/>
  <outline>
    <contour>
      <point x="260" y="-14" type="curve"/>
      <point x="289" y="-14"/>
      <point x="304" y="-5"/>
      <point x="304" y="14" type="curve" smooth="yes"/>
      <point x="304" y="704" type="line"/>
      <point x="814" y="704" type="line" smooth="yes"/>
      <point x="834" y="704"/>
      <point x="841" y="714"/>
      <point x="841" y="744" type="curve" smooth="yes"/>
      <point x="841" y="774"/>
      <point x="834" y="784"/>
      <point x="814" y="784" type="curve" smooth="yes"/>
      <point x="304" y="784" type="line"/>
      <point x="304" y="1408" type="line"/>
      <point x="910" y="1408" type="line" smooth="yes"/>
      <point x="930" y="1408"/>
      <point x="938" y="1418"/>
      <point x="938" y="1448" type="curve" smooth="yes"/>
      <point x="938" y="1478"/>
      <point x="930" y="1488"/>
      <point x="910" y="1488" type="curve" smooth="yes"/>
      <point x="260" y="1488" type="line" smooth="yes"/>
      <point x="231" y="1488"/>
      <point x="216" y="1479"/>
      <point x="216" y="1460" type="curve" smooth="yes"/>
      <point x="216" y="14" type="line" smooth="yes"/>
      <point x="216" y="-5"/>
      <point x="231" y="-14"/>
    </contour>
  </outline>
</glyph>
<glyph name="G" format="2">
  <advance width="1356"/>
  <unicode hex="0047"/>
  <anchor x="679" y="0" name="bottom"/>
  <anchor x="698" y="1424" name="top"/>
  <outline>
    <contour>
      <point x="688" y="-19" type="curve" smooth="yes"/>
      <point x="984" y="-19"/>
      <point x="1199" y="204"/>
      <point x="1199" y="746" type="curve" smooth="yes"/>
      <point x="1199" y="775"/>
      <point x="1191" y="785"/>
      <point x="1171" y="785" type="curve" smooth="yes"/>
      <point x="729" y="785" type="line" smooth="yes"/>
      <point x="709" y="785"/>
      <point x="701" y="775"/>
      <point x="701" y="745" type="curve" smooth="yes"/>
      <point x="701" y="715"/>
      <point x="709" y="705"/>
      <point x="729" y="705" type="curve" smooth="yes"/>
      <point x="1106" y="705" type="line"/>
      <point x="1106" y="251"/>
      <point x="918" y="66"/>
      <point x="688" y="66" type="curve" smooth="yes"/>
      <point x="423" y="66"/>
      <point x="231" y="328"/>
      <point x="231" y="749" type="curve" smooth="yes"/>
      <point x="231" y="1171"/>
      <point x="439" y="1430"/>
      <point x="721" y="1430" type="curve" smooth="yes"/>
      <point x="858" y="1430"/>
      <point x="941" y="1381"/>
      <point x="1036" y="1279" type="curve" smooth="yes"/>
      <point x="1049" y="1266"/>
      <point x="1061" y="1269"/>
      <point x="1080" y="1285" type="curve" smooth="yes"/>
      <point x="1096" y="1299"/>
      <point x="1103" y="1310"/>
      <point x="1091" y="1326" type="curve" smooth="yes"/>
      <point x="993" y="1464"/>
      <point x="864" y="1515"/>
      <point x="721" y="1515" type="curve" smooth="yes"/>
      <point x="375" y="1515"/>
      <point x="138" y="1211"/>
      <point x="138" y="749" type="curve" smooth="yes"/>
      <point x="138" y="285"/>
      <point x="359" y="-19"/>
    </contour>
  </outline>
</glyph>
<glyph name="J" format="2">
  <advance width="1006"/>
  <unicode hex="004A"/>
  <anchor x="465" y="0" name="bottom"/>
  <anchor x="775" y="1424" name="top"/>
  <outline>
    <contour>
      <point x="448" y="-19" type="curve" smooth="yes"/>
      <point x="675" y="-19"/>
      <point x="819" y="143"/>
      <point x="819" y="451" type="curve" smooth="yes"/>
      <point x="819" y="1488" type="line" smooth="yes"/>
      <point x="819" y="1506"/>
      <point x="804" y="1515"/>
      <point x="775" y="1515" type="curve" smooth="yes"/>
      <point x="746" y="1515"/>
      <point x="731" y="1506"/>
      <point x="731" y="1488" type="curve" smooth="yes"/>
      <point x="731" y="449" type="line" smooth="yes"/>
      <point x="731" y="199"/>
      <point x="633" y="66"/>
      <point x="448" y="66" type="curve" smooth="yes"/>
      <point x="303" y="66"/>
      <point x="223" y="130"/>
      <point x="156" y="299" type="curve" smooth="yes"/>
      <point x="146" y="326"/>
      <point x="135" y="334"/>
      <point x="110" y="325" type="curve" smooth="yes"/>
      <point x="85" y="318"/>
      <point x="76" y="303"/>
      <point x="84" y="278" type="curve" smooth="yes"/>
      <point x="139" y="81"/>
      <point x="259" y="-19"/>
    </contour>
  </outline>
</glyph>
<glyph name="L" format="2">
  <advance width="969"/>
  <unicode hex="004C"/>
  <anchor x="594" y="764" name="CAT"/>
  <anchor x="581" y="0" name="bottom"/>
  <anchor x="261" y="765" name="center"/>
  <anchor x="261" y="1424" name="top"/>
  <anchor x="366" y="1488" name="topright"/>
  <outline>
    <contour>
      <point x="260" y="0" type="curve" smooth="yes"/>
      <point x="903" y="0" type="line" smooth="yes"/>
      <point x="923" y="0"/>
      <point x="930" y="10"/>
      <point x="930" y="40" type="curve" smooth="yes"/>
      <point x="930" y="70"/>
      <point x="923" y="80"/>
      <point x="903" y="80" type="curve" smooth="yes"/>
      <point x="304" y="80" type="line"/>
      <point x="304" y="1488" type="line" smooth="yes"/>
      <point x="304" y="1506"/>
      <point x="289" y="1515"/>
      <point x="260" y="1515" type="curve" smooth="yes"/>
      <point x="231" y="1515"/>
      <point x="216" y="1506"/>
      <point x="216" y="1488" type="curve" smooth="yes"/>
      <point x="216" y="40" type="line" smooth="yes"/>
      <point x="216" y="13"/>
      <point x="231" y="0"/>
    </contour>
  </outline>
</glyph>
<glyph name="O" format="2">
  <advance width="1434"/>
  <unicode hex="004F"/>
  <anchor x="718" y="0" name="bottom"/>
  <anchor x="718" y="744" name="center"/>
  <anchor x="916" y="11" name="ogonek"/>
  <anchor x="718" y="1424" name="top"/>
  <anchor x="1011" y="1423" name="topright"/>
  <outline>
    <contour>
      <point x="719" y="-19" type="curve" smooth="yes"/>
      <point x="1068" y="-19"/>
      <point x="1296" y="285"/>
      <point x="1296" y="749" type="curve" smooth="yes"/>
      <point x="1296" y="1211"/>
      <point x="1068" y="1515"/>
      <point x="719" y="1515" type="curve" smooth="yes"/>
      <point x="368" y="1515"/>
      <point x="138" y="1211"/>
      <point x="138" y="749" type="curve" smooth="yes"/>
      <point x="138" y="285"/>
      <point x="368" y="-19"/>
    </contour>
    <contour>
      <point x="719" y="66" type="curve" smooth="yes"/>
      <point x="424" y="66"/>
      <point x="231" y="336"/>
      <point x="231" y="749" type="curve" smooth="yes"/>
      <point x="231" y="1160"/>
      <point x="424" y="1430"/>
      <point x="719" y="1430" type="curve" smooth="yes"/>
      <point x="1011" y="1430"/>
      <point x="1203" y="1160"/>
      <point x="1203" y="749" type="curve" smooth="yes"/>
      <point x="1203" y="336"/>
      <point x="1011" y="66"/>
    </contour>
  </outline>
</glyph>
<glyph name="P" format="2">
  <advance width="1085"/>
  <unicode hex="0050"/>
  <guideline x="288" y="630" angle="270"/>
  <outline>
    <contour>
      <point x="260" y="-14" type="curve" smooth="yes"/>
      <point x="289" y="-14"/>
      <point x="304" y="-5"/>
      <point x="304" y="14" type="curve" smooth="yes"/>
      <point x="304" y="616" type="line"/>
      <point x="369" y="619"/>
      <point x="444" y="624"/>
      <point x="525" y="635" type="curve" smooth="yes"/>
      <point x="790" y="670"/>
      <point x="1015" y="814"/>
      <point x="1015" y="1116" type="curve" smooth="yes"/>
      <point x="1015" y="1384"/>
      <point x="856" y="1488"/>
      <point x="558" y="1488" type="curve" smooth="yes"/>
      <point x="261" y="1488" type="line" smooth="yes"/>
      <point x="231" y="1488"/>
      <point x="216" y="1479"/>
      <point x="216" y="1460" type="curve" smooth="yes"/>
      <point x="216" y="14" type="line" smooth="yes"/>
      <point x="216" y="-5"/>
      <point x="231" y="-14"/>
    </contour>
    <contour>
      <point x="304" y="695" type="curve"/>
      <point x="304" y="1408" type="line"/>
      <point x="558" y="1408" type="line" smooth="yes"/>
      <point x="796" y="1408"/>
      <point x="921" y="1326"/>
      <point x="921" y="1114" type="curve" smooth="yes"/>
      <point x="921" y="866"/>
      <point x="748" y="745"/>
      <point x="523" y="714" type="curve" smooth="yes"/>
      <point x="440" y="703"/>
      <point x="361" y="698"/>
    </contour>
  </outline>
</glyph>
<glyph name="Q" format="2">
  <advance width="1434"/>
  <unicode hex="0051"/>
  <anchor x="718" y="0" name="bottom"/>
  <anchor x="718" y="744" name="center"/>
  <anchor x="916" y="11" name="ogonek"/>
  <anchor x="718" y="1424" name="top"/>
  <anchor x="1011" y="1423" name="topright"/>
  <outline>
    <contour>
      <point x="1084" y="-276" type="curve" smooth="yes"/>
      <point x="1108" y="-261"/>
      <point x="1108" y="-241"/>
      <point x="1096" y="-224" type="curve" smooth="yes"/>
      <point x="775" y="273" type="line" smooth="yes"/>
      <point x="761" y="294"/>
      <point x="743" y="298"/>
      <point x="718" y="280" type="curve" smooth="yes"/>
      <point x="693" y="263"/>
      <point x="695" y="244"/>
      <point x="708" y="225" type="curve" smooth="yes"/>
      <point x="1031" y="-272" type="line" smooth="yes"/>
      <point x="1043" y="-290"/>
      <point x="1064" y="-289"/>
    </contour>
    <component base="O"/>
  </outline>
</glyph>
<glyph name="S" format="2">
  <advance width="1066"/>
  <unicode hex="0053"/>
  <anchor x="529" y="0" name="bottom"/>
  <anchor x="556" y="1424" name="top"/>
  <outline>
    <contour>
      <point x="514" y="-19" type="curve" smooth="yes"/>
      <point x="778" y="-19"/>
      <point x="949" y="146"/>
      <point x="949" y="395" type="curve" smooth="yes"/>
      <point x="949" y="649"/>
      <point x="755" y="738"/>
      <point x="581" y="805" type="curve" smooth="yes"/>
      <point x="419" y="869"/>
      <point x="264" y="930"/>
      <point x="264" y="1148" type="curve" smooth="yes"/>
      <point x="264" y="1323"/>
      <point x="375" y="1430"/>
      <point x="551" y="1430" type="curve" smooth="yes"/>
      <point x="669" y="1430"/>
      <point x="766" y="1376"/>
      <point x="871" y="1286" type="curve" smooth="yes"/>
      <point x="886" y="1274"/>
      <point x="901" y="1284"/>
      <point x="918" y="1301" type="curve" smooth="yes"/>
      <point x="931" y="1316"/>
      <point x="935" y="1330"/>
      <point x="921" y="1343" type="curve" smooth="yes"/>
      <point x="820" y="1435"/>
      <point x="716" y="1515"/>
      <point x="551" y="1515" type="curve" smooth="yes"/>
      <point x="340" y="1515"/>
      <point x="171" y="1379"/>
      <point x="171" y="1148" type="curve" smooth="yes"/>
      <point x="171" y="875"/>
      <point x="365" y="793"/>
      <point x="548" y="719" type="curve" smooth="yes"/>
      <point x="721" y="653"/>
      <point x="856" y="583"/>
      <point x="856" y="395" type="curve" smooth="yes"/>
      <point x="856" y="193"/>
      <point x="725" y="66"/>
      <point x="514" y="66" type="curve" smooth="yes"/>
      <point x="369" y="66"/>
      <point x="271" y="121"/>
      <point x="185" y="209" type="curve" smooth="yes"/>
      <point x="160" y="231"/>
      <point x="151" y="228"/>
      <point x="133" y="208" type="curve" smooth="yes"/>
      <point x="114" y="189"/>
      <point x="115" y="179"/>
      <point x="125" y="165" type="curve" smooth="yes"/>
      <point x="224" y="33"/>
      <point x="378" y="-19"/>
    </contour>
  </outline>
</glyph>
<glyph name="U" format="2">
  <advance width="1336"/>
  <unicode hex="0055"/>
  <anchor x="669" y="0" name="bottom"/>
  <anchor x="896" y="21" name="ogonek"/>
  <anchor x="669" y="1424" name="top"/>
  <anchor x="1096" y="1509" name="topright"/>
  <outline>
    <contour>
      <point x="671" y="-19" type="curve" smooth="yes"/>
      <point x="971" y="-19"/>
      <point x="1131" y="149"/>
      <point x="1131" y="464" type="curve" smooth="yes"/>
      <point x="1131" y="1488" type="line" smooth="yes"/>
      <point x="1131" y="1506"/>
      <point x="1116" y="1515"/>
      <point x="1088" y="1515" type="curve" smooth="yes"/>
      <point x="1059" y="1515"/>
      <point x="1044" y="1506"/>
      <point x="1044" y="1488" type="curve" smooth="yes"/>
      <point x="1044" y="464" type="line" smooth="yes"/>
      <point x="1044" y="204"/>
      <point x="923" y="66"/>
      <point x="671" y="66" type="curve" smooth="yes"/>
      <point x="416" y="66"/>
      <point x="293" y="204"/>
      <point x="293" y="464" type="curve" smooth="yes"/>
      <point x="293" y="1488" type="line" smooth="yes"/>
      <point x="293" y="1506"/>
      <point x="278" y="1515"/>
      <point x="249" y="1515" type="curve" smooth="yes"/>
      <point x="220" y="1515"/>
      <point x="205" y="1506"/>
      <point x="205" y="1488" type="curve" smooth="yes"/>
      <point x="205" y="464" type="line" smooth="yes"/>
      <point x="205" y="149"/>
      <point x="366" y="-19"/>
    </contour>
  </outline>
</glyph>
<glyph name="Y" format="2">
  <advance width="1000"/>
  <unicode hex="0059"/>
  <anchor x="494" y="0" name="bottom"/>
  <anchor x="500" y="1424" name="top"/>
  <outline>
    <contour>
      <point x="494" y="-14" type="curve" smooth="yes"/>
      <point x="523" y="-14"/>
      <point x="538" y="-5"/>
      <point x="538" y="14" type="curve" smooth="yes"/>
      <point x="538" y="645" type="line"/>
      <point x="991" y="1460" type="line" smooth="yes"/>
      <point x="1000" y="1476"/>
      <point x="994" y="1490"/>
      <point x="966" y="1505" type="curve" smooth="yes"/>
      <point x="941" y="1519"/>
      <point x="928" y="1521"/>
      <point x="915" y="1499" type="curve" smooth="yes"/>
      <point x="496" y="740" type="line"/>
      <point x="88" y="1499" type="line" smooth="yes"/>
      <point x="75" y="1521"/>
      <point x="59" y="1519"/>
      <point x="34" y="1505" type="curve" smooth="yes"/>
      <point x="6" y="1490"/>
      <point x="0" y="1476"/>
      <point x="9" y="1460" type="curve" smooth="yes"/>
      <point x="450" y="645" type="line"/>
      <point x="450" y="14" type="line" smooth="yes"/>
      <point x="450" y="-5"/>
      <point x="465" y="-14"/>
    </contour>
  </outline>
</glyph>
<glyph name="bracketright" format="2">
  <advance width="625"/>
  <unicode hex="005D"/>
  <outline>
    <contour>
      <point x="109" y="-35" type="curve" smooth="yes"/>
      <point x="109" y="-65"/>
      <point x="116" y="-75"/>
      <point x="136" y="-75" type="curve" smooth="yes"/>
      <point x="331" y="-75" type="line" smooth="yes"/>
      <point x="360" y="-75"/>
      <point x="375" y="-66"/>
      <point x="375" y="-47" type="curve" smooth="yes"/>
      <point x="375" y="1548" type="line" smooth="yes"/>
      <point x="375" y="1566"/>
      <point x="360" y="1575"/>
      <point x="331" y="1575" type="curve" smooth="yes"/>
      <point x="136" y="1575" type="line" smooth="yes"/>
      <point x="116" y="1575"/>
      <point x="109" y="1565"/>
      <point x="109" y="1535" type="curve" smooth="yes"/>
      <point x="109" y="1505"/>
      <point x="116" y="1495"/>
      <point x="136" y="1495" type="curve" smooth="yes"/>
      <point x="288" y="1495" type="line"/>
      <point x="288" y="5" type="line"/>
      <point x="136" y="5" type="line" smooth="yes"/>
      <point x="116" y="5"/>
      <point x="109" y="-5"/>
    </contour>
  </outline>
</glyph>
<glyph name="c" format="2">
  <advance width="503"/>
  <unicode hex="0063"/>
  <guideline x="316"/>
  <guideline x="-20" y="128" angle="0"/>
  <anchor x="266" y="0" name="bottom"/>
  <anchor x="275" y="500" name="top"/>
  <outline>
    <contour>
      <point x="275" y="-19" type="curve" smooth="yes"/>
      <point x="340" y="-19"/>
      <point x="419" y="9"/>
      <point x="473" y="88" type="curve" smooth="yes"/>
      <point x="485" y="105"/>
      <point x="479" y="118"/>
      <point x="460" y="133" type="curve" smooth="yes"/>
      <point x="441" y="148"/>
      <point x="425" y="150"/>
      <point x="411" y="135" type="curve" smooth="yes"/>
      <point x="369" y="89"/>
      <point x="339" y="61"/>
      <point x="275" y="61" type="curve" smooth="yes"/>
      <point x="186" y="61"/>
      <point x="131" y="134"/>
      <point x="131" y="250" type="curve" smooth="yes"/>
      <point x="131" y="366"/>
      <point x="186" y="439"/>
      <point x="275" y="439" type="curve" smooth="yes"/>
      <point x="334" y="439"/>
      <point x="364" y="411"/>
      <point x="400" y="381" type="curve" smooth="yes"/>
      <point x="416" y="368"/>
      <point x="430" y="373"/>
      <point x="448" y="390" type="curve" smooth="yes"/>
      <point x="463" y="406"/>
      <point x="468" y="419"/>
      <point x="453" y="438" type="curve" smooth="yes"/>
      <point x="404" y="496"/>
      <point x="338" y="519"/>
      <point x="279" y="519" type="curve" smooth="yes"/>
      <point x="141" y="519"/>
      <point x="43" y="406"/>
      <point x="43" y="245" type="curve" smooth="yes"/>
      <point x="43" y="73"/>
      <point x="140" y="-19"/>
    </contour>
  </outline>
</glyph>
<glyph name="d" format="2">
  <advance width="629"/>
  <unicode hex="0064"/>
  <anchor x="278" y="0" name="bottom"/>
  <anchor x="438" y="948" name="center"/>
  <anchor x="278" y="500" name="top"/>
  <anchor x="465" y="1553" name="topright"/>
  <outline>
    <contour>
      <point x="258" y="-17" type="curve" smooth="yes"/>
      <point x="310" y="-17"/>
      <point x="371" y="0"/>
      <point x="419" y="76" type="curve"/>
      <point x="419" y="75"/>
      <point x="419" y="74"/>
      <point x="419" y="73" type="curve" smooth="yes"/>
      <point x="419" y="31"/>
      <point x="440" y="-17"/>
      <point x="516" y="-17" type="curve" smooth="yes"/>
      <point x="555" y="-17"/>
      <point x="598" y="1"/>
      <point x="620" y="33" type="curve" smooth="yes"/>
      <point x="628" y="44"/>
      <point x="625" y="58"/>
      <point x="615" y="70" type="curve" smooth="yes"/>
      <point x="606" y="81"/>
      <point x="591" y="88"/>
      <point x="581" y="80" type="curve" smooth="yes"/>
      <point x="565" y="68"/>
      <point x="553" y="58"/>
      <point x="535" y="58" type="curve" smooth="yes"/>
      <point x="516" y="58"/>
      <point x="504" y="69"/>
      <point x="504" y="96" type="curve" smooth="yes"/>
      <point x="504" y="1489" type="line" smooth="yes"/>
      <point x="504" y="1506"/>
      <point x="490" y="1515"/>
      <point x="461" y="1515" type="curve" smooth="yes"/>
      <point x="433" y="1515"/>
      <point x="418" y="1506"/>
      <point x="418" y="1489" type="curve" smooth="yes"/>
      <point x="418" y="484" type="line"/>
      <point x="378" y="506"/>
      <point x="330" y="519"/>
      <point x="290" y="519" type="curve" smooth="yes"/>
      <point x="146" y="519"/>
      <point x="63" y="409"/>
      <point x="63" y="235" type="curve" smooth="yes"/>
      <point x="63" y="65"/>
      <point x="143" y="-17"/>
    </contour>
    <contour>
      <point x="151" y="239" type="curve" smooth="yes"/>
      <point x="151" y="374"/>
      <point x="209" y="440"/>
      <point x="295" y="440" type="curve" smooth="yes"/>
      <point x="338" y="440"/>
      <point x="376" y="431"/>
      <point x="418" y="404" type="curve"/>
      <point x="418" y="166" type="line"/>
      <point x="380" y="91"/>
      <point x="328" y="63"/>
      <point x="270" y="63" type="curve" smooth="yes"/>
      <point x="190" y="63"/>
      <point x="151" y="129"/>
    </contour>
  </outline>
</glyph>
<glyph name="o" format="2">
  <advance width="589"/>
  <unicode hex="006F"/>
  <anchor x="295" y="0" name="bottom"/>
  <anchor x="295" y="250" name="center"/>
  <anchor x="385" y="0" name="ogonek"/>
  <anchor x="295" y="500" name="top"/>
  <anchor x="365" y="506" name="topright"/>
  <outline>
    <contour>
      <point x="295" y="-19" type="curve" smooth="yes"/>
      <point x="429" y="-19"/>
      <point x="526" y="94"/>
      <point x="526" y="250" type="curve" smooth="yes"/>
      <point x="526" y="406"/>
      <point x="429" y="519"/>
      <point x="295" y="519" type="curve" smooth="yes"/>
      <point x="160" y="519"/>
      <point x="63" y="406"/>
      <point x="63" y="250" type="curve" smooth="yes"/>
      <point x="63" y="94"/>
      <point x="160" y="-19"/>
    </contour>
    <contour>
      <point x="295" y="61" type="curve" smooth="yes"/>
      <point x="206" y="61"/>
      <point x="151" y="134"/>
      <point x="151" y="250" type="curve" smooth="yes"/>
      <point x="151" y="366"/>
      <point x="206" y="439"/>
      <point x="295" y="439" type="curve" smooth="yes"/>
      <point x="384" y="439"/>
      <point x="438" y="366"/>
      <point x="438" y="250" type="curve" smooth="yes"/>
      <point x="438" y="134"/>
      <point x="384" y="61"/>
    </contour>
  </outline>
</glyph>
<glyph name="p" format="2">
  <advance width="598"/>
  <unicode hex="0070"/>
  <outline>
    <contour>
      <point x="143" y="-1015" type="curve" smooth="yes"/>
      <point x="171" y="-1015"/>
      <point x="186" y="-1006"/>
      <point x="186" y="-989" type="curve" smooth="yes"/>
      <point x="186" y="14" type="line"/>
      <point x="220" y="-6"/>
      <point x="261" y="-17"/>
      <point x="303" y="-17" type="curve" smooth="yes"/>
      <point x="451" y="-17"/>
      <point x="535" y="93"/>
      <point x="535" y="266" type="curve" smooth="yes"/>
      <point x="535" y="436"/>
      <point x="455" y="519"/>
      <point x="340" y="519" type="curve" smooth="yes"/>
      <point x="290" y="519"/>
      <point x="233" y="503"/>
      <point x="186" y="433" type="curve"/>
      <point x="186" y="489" type="line" smooth="yes"/>
      <point x="186" y="506"/>
      <point x="171" y="515"/>
      <point x="143" y="515" type="curve" smooth="yes"/>
      <point x="114" y="515"/>
      <point x="100" y="506"/>
      <point x="100" y="489" type="curve" smooth="yes"/>
      <point x="100" y="-989" type="line" smooth="yes"/>
      <point x="100" y="-1006"/>
      <point x="114" y="-1015"/>
    </contour>
    <contour>
      <point x="186" y="95" type="curve"/>
      <point x="186" y="343" type="line"/>
      <point x="224" y="411"/>
      <point x="274" y="439"/>
      <point x="328" y="439" type="curve" smooth="yes"/>
      <point x="408" y="439"/>
      <point x="446" y="373"/>
      <point x="446" y="263" type="curve" smooth="yes"/>
      <point x="446" y="128"/>
      <point x="389" y="61"/>
      <point x="303" y="61" type="curve" smooth="yes"/>
      <point x="264" y="61"/>
      <point x="226" y="71"/>
    </contour>
  </outline>
</glyph>
<glyph name="r" format="2">
  <advance width="445"/>
  <unicode hex="0072"/>
  <anchor x="130" y="0" name="bottom"/>
  <anchor x="261" y="500" name="top"/>
  <outline>
    <contour>
      <point x="136" y="-15" type="curve" smooth="yes"/>
      <point x="165" y="-15"/>
      <point x="180" y="-6"/>
      <point x="180" y="11" type="curve" smooth="yes"/>
      <point x="180" y="329" type="line"/>
      <point x="214" y="404"/>
      <point x="268" y="439"/>
      <point x="321" y="439" type="curve" smooth="yes"/>
      <point x="343" y="439"/>
      <point x="359" y="434"/>
      <point x="374" y="430" type="curve" smooth="yes"/>
      <point x="395" y="424"/>
      <point x="409" y="431"/>
      <point x="419" y="451" type="curve" smooth="yes"/>
      <point x="433" y="478"/>
      <point x="428" y="488"/>
      <point x="413" y="499" type="curve" smooth="yes"/>
      <point x="398" y="510"/>
      <point x="366" y="519"/>
      <point x="336" y="519" type="curve" smooth="yes"/>
      <point x="278" y="519"/>
      <point x="219" y="484"/>
      <point x="180" y="425" type="curve"/>
      <point x="180" y="489" type="line" smooth="yes"/>
      <point x="180" y="506"/>
      <point x="165" y="515"/>
      <point x="136" y="515" type="curve" smooth="yes"/>
      <point x="108" y="515"/>
      <point x="94" y="506"/>
      <point x="94" y="489" type="curve" smooth="yes"/>
      <point x="94" y="11" type="line" smooth="yes"/>
      <point x="94" y="-6"/>
      <point x="108" y="-15"/>
    </contour>
  </outline>
</glyph>
<glyph name="z" format="2">
  <advance width="495"/>
  <unicode hex="007A"/>
  <anchor x="263" y="0" name="bottom"/>
  <anchor x="263" y="250" name="center"/>
  <anchor x="250" y="500" name="top"/>
  <outline>
    <contour>
      <point x="83" y="0" type="curve" smooth="yes"/>
      <point x="431" y="0" type="line" smooth="yes"/>
      <point x="451" y="0"/>
      <point x="460" y="10"/>
      <point x="460" y="38" type="curve" smooth="yes"/>
      <point x="460" y="69"/>
      <point x="451" y="80"/>
      <point x="431" y="80" type="curve" smooth="yes"/>
      <point x="183" y="80" type="line"/>
      <point x="445" y="451" type="line" smooth="yes"/>
      <point x="459" y="471"/>
      <point x="448" y="500"/>
      <point x="423" y="500" type="curve" smooth="yes"/>
      <point x="94" y="500" type="line" smooth="yes"/>
      <point x="74" y="500"/>
      <point x="64" y="490"/>
      <point x="64" y="460" type="curve" smooth="yes"/>
      <point x="64" y="430"/>
      <point x="74" y="420"/>
      <point x="94" y="420" type="curve" smooth="yes"/>
      <point x="319" y="420" type="line"/>
      <point x="56" y="49" type="line" smooth="yes"/>
      <point x="44" y="31"/>
      <point x="54" y="0"/>
    </contour>
  </outline>
</glyph>
<glyph name="braceright" format="2">
  <advance width="554"/>
  <unicode hex="007D"/>
  <outline>
    <contour>
      <point x="165" y="-75" type="curve" smooth="yes"/>
      <point x="316" y="-75"/>
      <point x="408" y="6"/>
      <point x="408" y="141" type="curve" smooth="yes"/>
      <point x="408" y="281"/>
      <point x="278" y="399"/>
      <point x="278" y="530" type="curve" smooth="yes"/>
      <point x="278" y="621"/>
      <point x="325" y="686"/>
      <point x="420" y="710" type="curve" smooth="yes"/>
      <point x="440" y="715"/>
      <point x="448" y="720"/>
      <point x="448" y="750" type="curve" smooth="yes"/>
      <point x="448" y="780"/>
      <point x="440" y="784"/>
      <point x="420" y="790" type="curve" smooth="yes"/>
      <point x="325" y="820"/>
      <point x="278" y="885"/>
      <point x="278" y="970" type="curve" smooth="yes"/>
      <point x="278" y="1101"/>
      <point x="408" y="1229"/>
      <point x="408" y="1359" type="curve" smooth="yes"/>
      <point x="408" y="1494"/>
      <point x="316" y="1575"/>
      <point x="165" y="1575" type="curve" smooth="yes"/>
      <point x="145" y="1575"/>
      <point x="138" y="1565"/>
      <point x="138" y="1535" type="curve" smooth="yes"/>
      <point x="138" y="1505"/>
      <point x="145" y="1495"/>
      <point x="165" y="1495" type="curve" smooth="yes"/>
      <point x="261" y="1495"/>
      <point x="320" y="1443"/>
      <point x="320" y="1358" type="curve" smooth="yes"/>
      <point x="320" y="1264"/>
      <point x="191" y="1111"/>
      <point x="191" y="970" type="curve" smooth="yes"/>
      <point x="191" y="868"/>
      <point x="253" y="784"/>
      <point x="354" y="750" type="curve"/>
      <point x="253" y="716"/>
      <point x="191" y="633"/>
      <point x="191" y="530" type="curve" smooth="yes"/>
      <point x="191" y="389"/>
      <point x="320" y="246"/>
      <point x="320" y="143" type="curve" smooth="yes"/>
      <point x="320" y="58"/>
      <point x="261" y="5"/>
      <point x="165" y="5" type="curve" smooth="yes"/>
      <point x="145" y="5"/>
      <point x="138" y="-5"/>
      <point x="138" y="-35" type="curve" smooth="yes"/>
      <point x="138" y="-65"/>
      <point x="145" y="-75"/>
    </contour>
  </outline>
</glyph>
<glyph name="cent" format="2">
  <advance width="821"/>
  <unicode hex="00A2"/>
  <outline>
    <contour>
      <point x="439" y="-19" type="curve" smooth="yes"/>
      <point x="539" y="-19"/>
      <point x="653" y="35"/>
      <point x="724" y="149" type="curve" smooth="yes"/>
      <point x="735" y="166"/>
      <point x="731" y="183"/>
      <point x="711" y="195" type="curve" smooth="yes"/>
      <point x="693" y="209"/>
      <point x="678" y="208"/>
      <point x="664" y="190" type="curve" smooth="yes"/>
      <point x="593" y="99"/>
      <point x="533" y="61"/>
      <point x="439" y="61" type="curve" smooth="yes"/>
      <point x="276" y="61"/>
      <point x="176" y="198"/>
      <point x="176" y="423" type="curve" smooth="yes"/>
      <point x="176" y="659"/>
      <point x="276" y="803"/>
      <point x="440" y="803" type="curve" smooth="yes"/>
      <point x="526" y="803"/>
      <point x="579" y="771"/>
      <point x="645" y="704" type="curve" smooth="yes"/>
      <point x="659" y="690"/>
      <point x="671" y="691"/>
      <point x="689" y="706" type="curve" smooth="yes"/>
      <point x="708" y="724"/>
      <point x="710" y="736"/>
      <point x="699" y="750" type="curve" smooth="yes"/>
      <point x="633" y="833"/>
      <point x="533" y="883"/>
      <point x="440" y="883" type="curve" smooth="yes"/>
      <point x="221" y="883"/>
      <point x="88" y="709"/>
      <point x="88" y="423" type="curve" smooth="yes"/>
      <point x="88" y="149"/>
      <point x="220" y="-19"/>
    </contour>
    <contour>
      <point x="428" y="-150" type="curve" smooth="yes"/>
      <point x="454" y="-150"/>
      <point x="468" y="-141"/>
      <point x="468" y="-122" type="curve" smooth="yes"/>
      <point x="468" y="990" type="line" smooth="yes"/>
      <point x="468" y="1009"/>
      <point x="454" y="1018"/>
      <point x="428" y="1018" type="curve" smooth="yes"/>
      <point x="401" y="1018"/>
      <point x="388" y="1009"/>
      <point x="388" y="990" type="curve" smooth="yes"/>
      <point x="388" y="-122" type="line" smooth="yes"/>
      <point x="388" y="-141"/>
      <point x="401" y="-150"/>
    </contour>
  </outline>
</glyph>
<glyph name="sterling" format="2">
  <advance width="1046"/>
  <unicode hex="00A3"/>
  <outline>
    <contour>
      <point x="93" y="0" type="curve" smooth="yes"/>
      <point x="976" y="0" type="line" smooth="yes"/>
      <point x="999" y="0"/>
      <point x="1004" y="9"/>
      <point x="1004" y="40" type="curve" smooth="yes"/>
      <point x="1004" y="71"/>
      <point x="995" y="80"/>
      <point x="976" y="80" type="curve" smooth="yes"/>
      <point x="398" y="80" type="line"/>
      <point x="398" y="603" type="line"/>
      <point x="739" y="603" type="line" smooth="yes"/>
      <point x="761" y="603"/>
      <point x="766" y="611"/>
      <point x="766" y="643" type="curve" smooth="yes"/>
      <point x="766" y="674"/>
      <point x="758" y="683"/>
      <point x="739" y="683" type="curve" smooth="yes"/>
      <point x="398" y="683" type="line"/>
      <point x="398" y="1139" type="line" smooth="yes"/>
      <point x="398" y="1323"/>
      <point x="490" y="1434"/>
      <point x="641" y="1434" type="curve" smooth="yes"/>
      <point x="736" y="1434"/>
      <point x="813" y="1401"/>
      <point x="910" y="1325" type="curve" smooth="yes"/>
      <point x="929" y="1310"/>
      <point x="945" y="1308"/>
      <point x="965" y="1331" type="curve" smooth="yes"/>
      <point x="986" y="1355"/>
      <point x="974" y="1374"/>
      <point x="963" y="1385" type="curve" smooth="yes"/>
      <point x="866" y="1473"/>
      <point x="761" y="1515"/>
      <point x="641" y="1515" type="curve" smooth="yes"/>
      <point x="435" y="1515"/>
      <point x="310" y="1373"/>
      <point x="310" y="1139" type="curve" smooth="yes"/>
      <point x="310" y="683" type="line"/>
      <point x="134" y="683" type="line" smooth="yes"/>
      <point x="115" y="683"/>
      <point x="106" y="674"/>
      <point x="106" y="643" type="curve" smooth="yes"/>
      <point x="106" y="611"/>
      <point x="111" y="603"/>
      <point x="134" y="603" type="curve" smooth="yes"/>
      <point x="310" y="603" type="line"/>
      <point x="310" y="80" type="line"/>
      <point x="93" y="80" type="line" smooth="yes"/>
      <point x="74" y="80"/>
      <point x="65" y="71"/>
      <point x="65" y="40" type="curve" smooth="yes"/>
      <point x="65" y="9"/>
      <point x="70" y="0"/>
    </contour>
  </outline>
</glyph>
<glyph name="section" format="2">
  <advance width="1033"/>
  <unicode hex="00A7"/>
  <outline>
    <contour>
      <point x="501" y="-670" type="curve" smooth="yes"/>
      <point x="703" y="-670"/>
      <point x="895" y="-524"/>
      <point x="895" y="-267" type="curve" smooth="yes"/>
      <point x="895" y="-122"/>
      <point x="837" y="-30"/>
      <point x="754" y="38" type="curve"/>
      <point x="866" y="122"/>
      <point x="946" y="243"/>
      <point x="946" y="401" type="curve" smooth="yes"/>
      <point x="946" y="890"/>
      <point x="266" y="759"/>
      <point x="266" y="1158" type="curve" smooth="yes"/>
      <point x="266" y="1328"/>
      <point x="359" y="1430"/>
      <point x="531" y="1430" type="curve" smooth="yes"/>
      <point x="655" y="1430"/>
      <point x="751" y="1378"/>
      <point x="831" y="1305" type="curve" smooth="yes"/>
      <point x="859" y="1280"/>
      <point x="871" y="1283"/>
      <point x="890" y="1303" type="curve" smooth="yes"/>
      <point x="906" y="1320"/>
      <point x="910" y="1335"/>
      <point x="890" y="1355" type="curve" smooth="yes"/>
      <point x="805" y="1439"/>
      <point x="688" y="1515"/>
      <point x="530" y="1515" type="curve" smooth="yes"/>
      <point x="326" y="1515"/>
      <point x="174" y="1379"/>
      <point x="174" y="1158" type="curve" smooth="yes"/>
      <point x="174" y="1026"/>
      <point x="226" y="941"/>
      <point x="301" y="878" type="curve"/>
      <point x="186" y="791"/>
      <point x="109" y="669"/>
      <point x="109" y="514" type="curve" smooth="yes"/>
      <point x="109" y="21"/>
      <point x="803" y="159"/>
      <point x="803" y="-267" type="curve" smooth="yes"/>
      <point x="803" y="-471"/>
      <point x="659" y="-585"/>
      <point x="501" y="-585" type="curve" smooth="yes"/>
      <point x="371" y="-585"/>
      <point x="260" y="-537"/>
      <point x="165" y="-444" type="curve" smooth="yes"/>
      <point x="145" y="-424"/>
      <point x="134" y="-424"/>
      <point x="114" y="-445" type="curve" smooth="yes"/>
      <point x="95" y="-464"/>
      <point x="93" y="-476"/>
      <point x="105" y="-491" type="curve"/>
      <point x="211" y="-607"/>
      <point x="334" y="-670"/>
    </contour>
    <contour>
      <point x="688" y="84" type="curve"/>
      <point x="484" y="209"/>
      <point x="201" y="250"/>
      <point x="201" y="514" type="curve" smooth="yes"/>
      <point x="201" y="644"/>
      <point x="264" y="754"/>
      <point x="367" y="831" type="curve"/>
      <point x="568" y="707"/>
      <point x="854" y="668"/>
      <point x="854" y="401" type="curve" smooth="yes"/>
      <point x="854" y="266"/>
      <point x="786" y="157"/>
    </contour>
  </outline>
</glyph>
<glyph name="logicalnot" format="2">
  <advance width="763"/>
  <unicode hex="00AC"/>
  <outline>
    <contour>
      <point x="633" y="155" type="curve" smooth="yes"/>
      <point x="661" y="155"/>
      <point x="675" y="164"/>
      <point x="675" y="181" type="curve" smooth="yes"/>
      <point x="675" y="438" type="line" smooth="yes"/>
      <point x="675" y="464"/>
      <point x="665" y="478"/>
      <point x="650" y="478" type="curve" smooth="yes"/>
      <point x="113" y="478" type="line" smooth="yes"/>
      <point x="98" y="478"/>
      <point x="88" y="464"/>
      <point x="88" y="438" type="curve" smooth="yes"/>
      <point x="88" y="411"/>
      <point x="98" y="398"/>
      <point x="113" y="398" type="curve" smooth="yes"/>
      <point x="590" y="398" type="line"/>
      <point x="590" y="181" type="line" smooth="yes"/>
      <point x="590" y="164"/>
      <point x="604" y="155"/>
    </contour>
  </outline>
</glyph>
<glyph name="Thorn" format="2">
  <advance width="1113"/>
  <unicode hex="00DE"/>
  <outline>
    <contour>
      <point x="260" y="-14" type="curve" smooth="yes"/>
      <point x="289" y="-14"/>
      <point x="304" y="-5"/>
      <point x="304" y="14" type="curve" smooth="yes"/>
      <point x="304" y="366" type="line"/>
      <point x="369" y="369"/>
      <point x="444" y="374"/>
      <point x="525" y="385" type="curve" smooth="yes"/>
      <point x="790" y="420"/>
      <point x="1015" y="564"/>
      <point x="1015" y="866" type="curve" smooth="yes"/>
      <point x="1015" y="1134"/>
      <point x="856" y="1238"/>
      <point x="558" y="1238" type="curve" smooth="yes"/>
      <point x="304" y="1238" type="line"/>
      <point x="304" y="1488" type="line" smooth="yes"/>
      <point x="304" y="1506"/>
      <point x="289" y="1515"/>
      <point x="260" y="1515" type="curve" smooth="yes"/>
      <point x="231" y="1515"/>
      <point x="216" y="1506"/>
      <point x="216" y="1488" type="curve" smooth="yes"/>
      <point x="216" y="14" type="line" smooth="yes"/>
      <point x="216" y="-5"/>
      <point x="231" y="-14"/>
    </contour>
    <contour>
      <point x="304" y="445" type="curve"/>
      <point x="304" y="1158" type="line"/>
      <point x="558" y="1158" type="line" smooth="yes"/>
      <point x="796" y="1158"/>
      <point x="921" y="1076"/>
      <point x="921" y="864" type="curve" smooth="yes"/>
      <point x="921" y="616"/>
      <point x="748" y="495"/>
      <point x="523" y="464" type="curve" smooth="yes"/>
      <point x="440" y="453"/>
      <point x="361" y="448"/>
    </contour>
  </outline>
</glyph>
<glyph name="germandbls" format="2">
  <advance width="700"/>
  <unicode hex="00DF"/>
  <outline>
    <contour>
      <point x="168" y="-1015" type="curve" smooth="yes"/>
      <point x="196" y="-1015"/>
      <point x="211" y="-1006"/>
      <point x="211" y="-989" type="curve" smooth="yes"/>
      <point x="211" y="1183" type="line" smooth="yes"/>
      <point x="211" y="1340"/>
      <point x="281" y="1435"/>
      <point x="396" y="1435" type="curve" smooth="yes"/>
      <point x="548" y="1435"/>
      <point x="600" y="1319"/>
      <point x="600" y="1115" type="curve" smooth="yes"/>
      <point x="600" y="751"/>
      <point x="503" y="523"/>
      <point x="343" y="523" type="curve" smooth="yes"/>
      <point x="329" y="523" type="line" smooth="yes"/>
      <point x="309" y="523"/>
      <point x="301" y="513"/>
      <point x="301" y="483" type="curve" smooth="yes"/>
      <point x="301" y="453"/>
      <point x="309" y="443"/>
      <point x="329" y="443" type="curve" smooth="yes"/>
      <point x="339" y="443" type="line" smooth="yes"/>
      <point x="494" y="443"/>
      <point x="550" y="365"/>
      <point x="550" y="253" type="curve" smooth="yes"/>
      <point x="550" y="134"/>
      <point x="488" y="61"/>
      <point x="386" y="61" type="curve" smooth="yes"/>
      <point x="344" y="61"/>
      <point x="318" y="73"/>
      <point x="300" y="80" type="curve" smooth="yes"/>
      <point x="283" y="88"/>
      <point x="269" y="83"/>
      <point x="258" y="59" type="curve" smooth="yes"/>
      <point x="249" y="39"/>
      <point x="251" y="23"/>
      <point x="265" y="14" type="curve" smooth="yes"/>
      <point x="290" y="-2"/>
      <point x="330" y="-19"/>
      <point x="386" y="-19" type="curve" smooth="yes"/>
      <point x="543" y="-19"/>
      <point x="638" y="84"/>
      <point x="638" y="253" type="curve" smooth="yes"/>
      <point x="638" y="373.003"/>
      <point x="577" y="465"/>
      <point x="431" y="489" type="curve"/>
      <point x="598" y="537"/>
      <point x="684" y="769"/>
      <point x="684" y="1114" type="curve" smooth="yes"/>
      <point x="684" y="1368"/>
      <point x="600" y="1515"/>
      <point x="396" y="1515" type="curve" smooth="yes"/>
      <point x="228" y="1515"/>
      <point x="125" y="1389"/>
      <point x="125" y="1183" type="curve" smooth="yes"/>
      <point x="125" y="-989" type="line" smooth="yes"/>
      <point x="125" y="-1006"/>
      <point x="139" y="-1015"/>
    </contour>
  </outline>
</glyph>
<glyph name="thorn" format="2">
  <advance width="598"/>
  <unicode hex="00FE"/>
  <outline>
    <contour>
      <point x="143" y="-1015" type="curve" smooth="yes"/>
      <point x="171" y="-1015"/>
      <point x="186" y="-1006"/>
      <point x="186" y="-989" type="curve" smooth="yes"/>
      <point x="186" y="14" type="line"/>
      <point x="220" y="-6"/>
      <point x="261" y="-17"/>
      <point x="303" y="-17" type="curve" smooth="yes"/>
      <point x="451" y="-17"/>
      <point x="535" y="93"/>
      <point x="535" y="266" type="curve" smooth="yes"/>
      <point x="535" y="436"/>
      <point x="455" y="519"/>
      <point x="340" y="519" type="curve" smooth="yes"/>
      <point x="290" y="519"/>
      <point x="233" y="503"/>
      <point x="186" y="433" type="curve"/>
      <point x="186" y="1489" type="line" smooth="yes"/>
      <point x="186" y="1506"/>
      <point x="171" y="1515"/>
      <point x="143" y="1515" type="curve" smooth="yes"/>
      <point x="114" y="1515"/>
      <point x="100" y="1506"/>
      <point x="100" y="1489" type="curve" smooth="yes"/>
      <point x="100" y="-989" type="line" smooth="yes"/>
      <point x="100" y="-1006"/>
      <point x="114" y="-1015"/>
    </contour>
    <contour>
      <point x="186" y="95" type="curve"/>
      <point x="186" y="343" type="line"/>
      <point x="224" y="411"/>
      <point x="274" y="439"/>
      <point x="328" y="439" type="curve" smooth="yes"/>
      <point x="408" y="439"/>
      <point x="446" y="373"/>
      <point x="446" y="263" type="curve" smooth="yes"/>
      <point x="446" y="128"/>
      <point x="389" y="61"/>
      <point x="303" y="61" type="curve" smooth="yes"/>
      <point x="264" y="61"/>
      <point x="226" y="71"/>
    </contour>
  </outline>
</glyph>
<glyph name="Eng" format="2">
  <advance width="1375"/>
  <unicode hex="014A"/>
  <outline>
    <contour>
      <point x="1159" y="-209" type="curve" smooth="yes"/>
      <point x="1159" y="1488" type="line" smooth="yes"/>
      <point x="1159" y="1506"/>
      <point x="1144" y="1515"/>
      <point x="1115" y="1515" type="curve" smooth="yes"/>
      <point x="1086" y="1515"/>
      <point x="1071" y="1506"/>
      <point x="1071" y="1488" type="curve" smooth="yes"/>
      <point x="1071" y="184" type="line"/>
      <point x="310" y="1488" type="line" smooth="yes"/>
      <point x="299" y="1506"/>
      <point x="284" y="1515"/>
      <point x="260" y="1515" type="curve" smooth="yes"/>
      <point x="231" y="1515"/>
      <point x="216" y="1506"/>
      <point x="216" y="1488" type="curve" smooth="yes"/>
      <point x="216" y="14" type="line" smooth="yes"/>
      <point x="216" y="-5"/>
      <point x="231" y="-14"/>
      <point x="260" y="-14" type="curve" smooth="yes"/>
      <point x="289" y="-14"/>
      <point x="304" y="-5"/>
      <point x="304" y="14" type="curve" smooth="yes"/>
      <point x="304" y="1326" type="line"/>
      <point x="1073" y="11" type="line"/>
      <point x="1073" y="-210" type="line" smooth="yes"/>
      <point x="1073" y="-301"/>
      <point x="1055" y="-361"/>
      <point x="979" y="-361" type="curve" smooth="yes"/>
      <point x="930" y="-361"/>
      <point x="904" y="-330"/>
      <point x="879" y="-287" type="curve" smooth="yes"/>
      <point x="866" y="-266"/>
      <point x="851" y="-261"/>
      <point x="828" y="-275" type="curve" smooth="yes"/>
      <point x="804" y="-289"/>
      <point x="800" y="-304"/>
      <point x="808" y="-325" type="curve" smooth="yes"/>
      <point x="834" y="-394"/>
      <point x="898" y="-442"/>
      <point x="976" y="-442" type="curve" smooth="yes"/>
      <point x="1094" y="-442"/>
      <point x="1159" y="-360"/>
    </contour>
  </outline>
</glyph>
<glyph name="Ohorn" format="2">
  <advance width="1434"/>
  <unicode hex="01A0"/>
  <anchor x="718" y="0" name="bottom"/>
  <anchor x="718" y="744" name="center"/>
  <anchor x="916" y="11" name="ogonek"/>
  <anchor x="718" y="1424" name="top"/>
  <outline>
    <contour>
      <point x="719" y="-19" type="curve" smooth="yes"/>
      <point x="1068" y="-19"/>
      <point x="1296" y="285"/>
      <point x="1296" y="749" type="curve" smooth="yes"/>
      <point x="1296" y="1020"/>
      <point x="1218" y="1236"/>
      <point x="1083" y="1369" type="curve"/>
      <point x="1267" y="1406"/>
      <point x="1301" y="1561"/>
      <point x="1218" y="1691" type="curve" smooth="yes"/>
      <point x="1189" y="1736"/>
      <point x="1114" y="1694"/>
      <point x="1142" y="1648" type="curve" smooth="yes"/>
      <point x="1211" y="1535"/>
      <point x="1179" y="1431"/>
      <point x="1018" y="1423" type="curve"/>
      <point x="934" y="1483"/>
      <point x="833" y="1515"/>
      <point x="719" y="1515" type="curve" smooth="yes"/>
      <point x="368" y="1515"/>
      <point x="138" y="1211"/>
      <point x="138" y="749" type="curve" smooth="yes"/>
      <point x="138" y="285"/>
      <point x="368" y="-19"/>
    </contour>
    <contour>
      <point x="719" y="66" type="curve" smooth="yes"/>
      <point x="424" y="66"/>
      <point x="231" y="336"/>
      <point x="231" y="749" type="curve" smooth="yes"/>
      <point x="231" y="1160"/>
      <point x="424" y="1430"/>
      <point x="719" y="1430" type="curve" smooth="yes"/>
      <point x="1011" y="1430"/>
      <point x="1203" y="1160"/>
      <point x="1203" y="749" type="curve" smooth="yes"/>
      <point x="1203" y="336"/>
      <point x="1011" y="66"/>
    </contour>
  </outline>
</glyph>
<glyph name="jdotless" format="2">
  <advance width="268"/>
  <unicode hex="0237"/>
  <anchor x="130" y="500" name="top"/>
  <outline>
    <contour>
      <point x="49" y="-1019" type="curve" smooth="yes"/>
      <point x="116" y="-1019"/>
      <point x="175" y="-984"/>
      <point x="175" y="-872" type="curve" smooth="yes"/>
      <point x="175" y="489" type="line" smooth="yes"/>
      <point x="175" y="506"/>
      <point x="160" y="515"/>
      <point x="131" y="515" type="curve" smooth="yes"/>
      <point x="103" y="515"/>
      <point x="89" y="506"/>
      <point x="89" y="489" type="curve" smooth="yes"/>
      <point x="89" y="-876" type="line" smooth="yes"/>
      <point x="89" y="-915"/>
      <point x="81" y="-944"/>
      <point x="49" y="-944" type="curve" smooth="yes"/>
      <point x="25" y="-944"/>
      <point x="16" y="-936"/>
      <point x="1" y="-911" type="curve" smooth="yes"/>
      <point x="-10" y="-892"/>
      <point x="-25" y="-889"/>
      <point x="-50" y="-901" type="curve" smooth="yes"/>
      <point x="-67" y="-910"/>
      <point x="-80" y="-925"/>
      <point x="-71" y="-945" type="curve" smooth="yes"/>
      <point x="-51" y="-986"/>
      <point x="-12" y="-1019"/>
    </contour>
  </outline>
</glyph>
<glyph name="tildecomb" format="2">
  <unicode hex="0303"/>
  <anchor x="0" y="500" name="_top"/>
  <anchor x="0" y="755" name="top"/>
  <outline>
    <contour>
      <point x="-151" y="640" type="curve" smooth="yes"/>
      <point x="-129" y="640"/>
      <point x="-116" y="649"/>
      <point x="-115" y="666" type="curve" smooth="yes"/>
      <point x="-112" y="701"/>
      <point x="-101" y="718"/>
      <point x="-85" y="718" type="curve" smooth="yes"/>
      <point x="-46" y="718"/>
      <point x="-4" y="641"/>
      <point x="73" y="641" type="curve" smooth="yes"/>
      <point x="149" y="641"/>
      <point x="179" y="694"/>
      <point x="180" y="775" type="curve" smooth="yes"/>
      <point x="180" y="793"/>
      <point x="170" y="803"/>
      <point x="144" y="803" type="curve" smooth="yes"/>
      <point x="121" y="803"/>
      <point x="111" y="795"/>
      <point x="110" y="781" type="curve" smooth="yes"/>
      <point x="108" y="746"/>
      <point x="96" y="726"/>
      <point x="79" y="726" type="curve" smooth="yes"/>
      <point x="36" y="726"/>
      <point x="0" y="801"/>
      <point x="-80" y="801" type="curve" smooth="yes"/>
      <point x="-141" y="801"/>
      <point x="-184" y="763"/>
      <point x="-185" y="666" type="curve" smooth="yes"/>
      <point x="-185" y="648"/>
      <point x="-172" y="640"/>
    </contour>
  </outline>
</glyph>
<glyph name="hookabovecomb" format="2">
  <unicode hex="0309"/>
  <anchor x="0" y="500" name="_top"/>
  <anchor x="0" y="818" name="top"/>
  <outline>
    <contour>
      <point x="0" y="860" type="curve" smooth="yes"/>
      <point x="-42" y="860"/>
      <point x="-80" y="846"/>
      <point x="-105" y="828" type="curve" smooth="yes"/>
      <point x="-117" y="818"/>
      <point x="-119" y="803"/>
      <point x="-111" y="789" type="curve" smooth="yes"/>
      <point x="-100" y="769"/>
      <point x="-86" y="761"/>
      <point x="-69" y="773" type="curve" smooth="yes"/>
      <point x="-57" y="780"/>
      <point x="-34" y="788"/>
      <point x="-16" y="788" type="curve" smooth="yes"/>
      <point x="1" y="788"/>
      <point x="15" y="780"/>
      <point x="15" y="768" type="curve" smooth="yes"/>
      <point x="15" y="758"/>
      <point x="10" y="748"/>
      <point x="-10" y="734" type="curve" smooth="yes"/>
      <point x="-35" y="716"/>
      <point x="-52" y="690"/>
      <point x="-40" y="655" type="curve" smooth="yes"/>
      <point x="-29" y="625" type="line" smooth="yes"/>
      <point x="-17" y="596"/>
      <point x="46" y="613"/>
      <point x="40" y="641" type="curve" smooth="yes"/>
      <point x="38" y="653" type="line" smooth="yes"/>
      <point x="35" y="665"/>
      <point x="40" y="675"/>
      <point x="58" y="689" type="curve" smooth="yes"/>
      <point x="93" y="715"/>
      <point x="109" y="738"/>
      <point x="109" y="774" type="curve" smooth="yes"/>
      <point x="109" y="825"/>
      <point x="66" y="860"/>
    </contour>
  </outline>
</glyph>
<glyph name="horncomb" format="2">
  <unicode hex="031B"/>
  <anchor x="0" y="515" name="_topright"/>
  <outline>
    <contour>
      <point x="192" y="693" type="curve" smooth="yes"/>
      <point x="163" y="738"/>
      <point x="88" y="696"/>
      <point x="116" y="650" type="curve" smooth="yes"/>
      <point x="162" y="575"/>
      <point x="147" y="520"/>
      <point x="0" y="515" type="curve"/>
      <point x="0" y="453" type="line"/>
      <point x="228" y="461"/>
      <point x="264" y="581"/>
    </contour>
  </outline>
</glyph>
<glyph name="commaaccentcomb" format="2">
  <unicode hex="0326"/>
  <anchor x="0" y="0" name="_bottom"/>
  <outline>
    <contour>
      <point x="-56" y="-291" type="curve" smooth="yes"/>
      <point x="-35" y="-299"/>
      <point x="-24" y="-296"/>
      <point x="-10" y="-275" type="curve" smooth="yes"/>
      <point x="21" y="-226"/>
      <point x="44" y="-166"/>
      <point x="44" y="-115" type="curve" smooth="yes"/>
      <point x="44" y="-90"/>
      <point x="26" y="-74"/>
      <point x="-4" y="-74" type="curve" smooth="yes"/>
      <point x="-29" y="-74"/>
      <point x="-42" y="-82"/>
      <point x="-42" y="-105" type="curve" smooth="yes"/>
      <point x="-42" y="-165"/>
      <point x="-45" y="-194"/>
      <point x="-69" y="-255" type="curve" smooth="yes"/>
      <point x="-76" y="-275"/>
      <point x="-72" y="-285"/>
    </contour>
  </outline>
</glyph>
<glyph name="Germandbls" format="2">
  <advance width="1325"/>
  <unicode hex="1E9E"/>
  <outline>
    <contour>
      <point x="794" y="-19" type="curve" smooth="yes"/>
      <point x="1041" y="-19"/>
      <point x="1221" y="159"/>
      <point x="1221" y="404" type="curve" smooth="yes"/>
      <point x="1221" y="889"/>
      <point x="698" y="823"/>
      <point x="698" y="1168" type="curve" smooth="yes"/>
      <point x="698" y="1328"/>
      <point x="810" y="1433"/>
      <point x="976" y="1433" type="curve" smooth="yes"/>
      <point x="996" y="1433"/>
      <point x="1004" y="1443"/>
      <point x="1004" y="1474" type="curve" smooth="yes"/>
      <point x="1004" y="1505"/>
      <point x="996" y="1515"/>
      <point x="976" y="1515" type="curve" smooth="yes"/>
      <point x="931" y="1515" type="line" smooth="yes"/>
      <point x="395" y="1515"/>
      <point x="204" y="1335"/>
      <point x="204" y="908" type="curve" smooth="yes"/>
      <point x="204" y="14" type="line" smooth="yes"/>
      <point x="204" y="-5"/>
      <point x="219" y="-14"/>
      <point x="248" y="-14" type="curve" smooth="yes"/>
      <point x="276" y="-14"/>
      <point x="291" y="-5"/>
      <point x="291" y="14" type="curve" smooth="yes"/>
      <point x="291" y="910" type="line" smooth="yes"/>
      <point x="291" y="1245"/>
      <point x="396" y="1401"/>
      <point x="762" y="1433" type="curve"/>
      <point x="669" y="1378"/>
      <point x="605" y="1278"/>
      <point x="605" y="1153" type="curve" smooth="yes"/>
      <point x="605" y="763"/>
      <point x="1128" y="818"/>
      <point x="1128" y="404" type="curve" smooth="yes"/>
      <point x="1128" y="208"/>
      <point x="988" y="66"/>
      <point x="794" y="66" type="curve" smooth="yes"/>
      <point x="703" y="66"/>
      <point x="629" y="88"/>
      <point x="540" y="130" type="curve" smooth="yes"/>
      <point x="518" y="140"/>
      <point x="501" y="133"/>
      <point x="490" y="110" type="curve" smooth="yes"/>
      <point x="478" y="84"/>
      <point x="481" y="64"/>
      <point x="503" y="54" type="curve" smooth="yes"/>
      <point x="604" y="3"/>
      <point x="691" y="-19"/>
    </contour>
  </outline>
</glyph>
<glyph name="quoteright" format="2">
  <advance width="231"/>
  <unicode hex="2019"/>
  <outline>
    <contour>
      <point x="135" y="1345" type="curve" smooth="yes"/>
      <point x="107" y="1345"/>
      <point x="88" y="1333"/>
      <point x="88" y="1308" type="curve" smooth="yes"/>
      <point x="88" y="1159"/>
      <point x="89" y="1090"/>
      <point x="54" y="1019" type="curve" smooth="yes"/>
      <point x="48" y="1008"/>
      <point x="44" y="999"/>
      <point x="44" y="994" type="curve" smooth="yes"/>
      <point x="44" y="977"/>
      <point x="64" y="963"/>
      <point x="83" y="963" type="curve" smooth="yes"/>
      <point x="97" y="963"/>
      <point x="105" y="972"/>
      <point x="112" y="979" type="curve" smooth="yes"/>
      <point x="172" y="1052"/>
      <point x="184" y="1189"/>
      <point x="184" y="1305" type="curve" smooth="yes"/>
      <point x="184" y="1330"/>
      <point x="165" y="1345"/>
    </contour>
  </outline>
</glyph>
<glyph name="A.dec_locl" format="2">
  <advance width="1604"/>
  <anchor x="775" y="0" name="bottom"/>
  <anchor x="1453" y="0" name="ogonek"/>
  <anchor x="863" y="1424" name="top"/>
  <outline>
    <contour>
      <point x="209" y="-17" type="curve" smooth="yes"/>
      <point x="369" y="-17"/>
      <point x="502" y="90"/>
      <point x="631" y="444" type="curve"/>
      <point x="1091" y="444" type="line"/>
      <point x="1111" y="375"/>
      <point x="1132" y="304"/>
      <point x="1155" y="230" type="curve" smooth="yes"/>
      <point x="1214" y="45"/>
      <point x="1271" y="-17"/>
      <point x="1381" y="-17" type="curve" smooth="yes"/>
      <point x="1506" y="-17"/>
      <point x="1593" y="124"/>
      <point x="1631" y="400" type="curve"/>
      <point x="1635" y="420"/>
      <point x="1624" y="433"/>
      <point x="1598" y="438" type="curve" smooth="yes"/>
      <point x="1570" y="443"/>
      <point x="1556" y="434"/>
      <point x="1553" y="413" type="curve" smooth="yes"/>
      <point x="1516" y="180"/>
      <point x="1458" y="63"/>
      <point x="1381" y="63" type="curve" smooth="yes"/>
      <point x="1314" y="63"/>
      <point x="1276" y="111"/>
      <point x="1234" y="254" type="curve" smooth="yes"/>
      <point x="1085" y="753"/>
      <point x="999" y="1114"/>
      <point x="934" y="1468" type="curve" smooth="yes"/>
      <point x="926" y="1508"/>
      <point x="904" y="1515"/>
      <point x="866" y="1515" type="curve" smooth="yes"/>
      <point x="830" y="1515"/>
      <point x="805" y="1505"/>
      <point x="798" y="1468" type="curve" smooth="yes"/>
      <point x="583" y="329"/>
      <point x="416" y="64"/>
      <point x="208" y="64" type="curve" smooth="yes"/>
      <point x="161" y="64"/>
      <point x="111" y="75"/>
      <point x="86" y="84" type="curve" smooth="yes"/>
      <point x="71" y="89"/>
      <point x="56" y="80"/>
      <point x="49" y="56" type="curve" smooth="yes"/>
      <point x="41" y="34"/>
      <point x="50" y="18"/>
      <point x="68" y="9" type="curve" smooth="yes"/>
      <point x="94" y="-5"/>
      <point x="145" y="-17"/>
    </contour>
    <contour>
      <point x="658" y="521" type="line"/>
      <point x="726" y="729"/>
      <point x="794" y="1010"/>
      <point x="864" y="1386" type="curve"/>
      <point x="914" y="1122"/>
      <point x="976" y="850"/>
      <point x="1069" y="521" type="curve"/>
    </contour>
  </outline>
</glyph>
<glyph name="A.dec_locl.ini" format="2">
  <advance width="1454"/>
  <anchor x="775" y="0" name="bottom"/>
  <anchor x="1454" y="0" name="cnct"/>
  <anchor x="1395" y="0" name="ogonek"/>
  <anchor x="863" y="1424" name="top"/>
  <outline>
    <contour>
      <point x="209" y="-17" type="curve" smooth="yes"/>
      <point x="369" y="-17"/>
      <point x="502" y="90"/>
      <point x="631" y="444" type="curve"/>
      <point x="1091" y="444" type="line"/>
      <point x="1111" y="375"/>
      <point x="1132" y="304"/>
      <point x="1155" y="230" type="curve" smooth="yes"/>
      <point x="1211" y="56"/>
      <point x="1278" y="-17"/>
      <point x="1379" y="-17" type="curve" smooth="yes"/>
      <point x="1429" y="-17"/>
      <point x="1448" y="58"/>
      <point x="1398" y="58" type="curve" smooth="yes"/>
      <point x="1324" y="58"/>
      <point x="1275" y="115"/>
      <point x="1234" y="254" type="curve" smooth="yes"/>
      <point x="1085" y="753"/>
      <point x="999" y="1114"/>
      <point x="934" y="1468" type="curve" smooth="yes"/>
      <point x="926" y="1508"/>
      <point x="904" y="1515"/>
      <point x="866" y="1515" type="curve" smooth="yes"/>
      <point x="830" y="1515"/>
      <point x="805" y="1505"/>
      <point x="798" y="1468" type="curve" smooth="yes"/>
      <point x="583" y="329"/>
      <point x="416" y="64"/>
      <point x="208" y="64" type="curve" smooth="yes"/>
      <point x="161" y="64"/>
      <point x="111" y="75"/>
      <point x="86" y="84" type="curve" smooth="yes"/>
      <point x="71" y="89"/>
      <point x="56" y="80"/>
      <point x="49" y="56" type="curve" smooth="yes"/>
      <point x="41" y="34"/>
      <point x="50" y="18"/>
      <point x="68" y="9" type="curve" smooth="yes"/>
      <point x="94" y="-5"/>
      <point x="145" y="-17"/>
    </contour>
    <contour>
      <point x="658" y="521" type="line"/>
      <point x="726" y="729"/>
      <point x="794" y="1010"/>
      <point x="864" y="1386" type="curve"/>
      <point x="914" y="1122"/>
      <point x="976" y="850"/>
      <point x="1069" y="521" type="curve"/>
    </contour>
  </outline>
</glyph>
<glyph name="AE.cur" format="2">
  <advance width="1992"/>
  <anchor x="1189" y="1424" name="top"/>
  <outline>
    <contour>
      <point x="174" y="-17" type="curve" smooth="yes"/>
      <point x="309" y="-17"/>
      <point x="403" y="62"/>
      <point x="582" y="476" type="curve"/>
      <point x="1032" y="476" type="line"/>
      <point x="1042" y="417"/>
      <point x="1052" y="357"/>
      <point x="1063" y="298" type="curve" smooth="yes"/>
      <point x="1069" y="264"/>
      <point x="1083" y="253"/>
      <point x="1114" y="260" type="curve" smooth="yes"/>
      <point x="1143" y="268"/>
      <point x="1151" y="280"/>
      <point x="1145" y="315" type="curve" smooth="yes"/>
      <point x="1078" y="689"/>
      <point x="1031" y="1088"/>
      <point x="1013" y="1466" type="curve" smooth="yes"/>
      <point x="1011" y="1498"/>
      <point x="989" y="1513"/>
      <point x="951" y="1513" type="curve" smooth="yes"/>
      <point x="911" y="1513"/>
      <point x="890" y="1498"/>
      <point x="879" y="1469" type="curve" smooth="yes"/>
      <point x="426" y="236"/>
      <point x="318" y="64"/>
      <point x="173" y="64" type="curve" smooth="yes"/>
      <point x="146" y="64"/>
      <point x="126" y="69"/>
      <point x="90" y="84" type="curve" smooth="yes"/>
      <point x="75" y="90"/>
      <point x="58" y="83"/>
      <point x="49" y="60" type="curve" smooth="yes"/>
      <point x="39" y="35"/>
      <point x="50" y="18"/>
      <point x="69" y="8" type="curve" smooth="yes"/>
      <point x="101" y="-10"/>
      <point x="135" y="-17"/>
    </contour>
    <contour>
      <point x="615" y="554" type="line"/>
      <point x="700" y="755"/>
      <point x="802" y="1024"/>
      <point x="934" y="1384" type="curve"/>
      <point x="947" y="1115"/>
      <point x="976" y="834"/>
      <point x="1019" y="554" type="curve"/>
    </contour>
    <contour>
      <point x="1490" y="-19" type="curve" smooth="yes"/>
      <point x="1651" y="-19"/>
      <point x="1796" y="60"/>
      <point x="1908" y="208" type="curve" smooth="yes"/>
      <point x="1930" y="238"/>
      <point x="1925" y="254"/>
      <point x="1904" y="271" type="curve" smooth="yes"/>
      <point x="1884" y="289"/>
      <point x="1866" y="285"/>
      <point x="1849" y="263" type="curve" smooth="yes"/>
      <point x="1750" y="135"/>
      <point x="1625" y="66"/>
      <point x="1491" y="66" type="curve" smooth="yes"/>
      <point x="1283" y="66"/>
      <point x="1145" y="196"/>
      <point x="1145" y="396" type="curve" smooth="yes"/>
      <point x="1145" y="599"/>
      <point x="1293" y="746"/>
      <point x="1498" y="746" type="curve" smooth="yes"/>
      <point x="1681" y="746" type="line" smooth="yes"/>
      <point x="1701" y="746"/>
      <point x="1709" y="756"/>
      <point x="1709" y="786" type="curve" smooth="yes"/>
      <point x="1709" y="816"/>
      <point x="1701" y="826"/>
      <point x="1681" y="826" type="curve" smooth="yes"/>
      <point x="1498" y="826" type="line" smooth="yes"/>
      <point x="1328" y="826"/>
      <point x="1204" y="959"/>
      <point x="1204" y="1141" type="curve" smooth="yes"/>
      <point x="1204" y="1309"/>
      <point x="1329" y="1430"/>
      <point x="1503" y="1430" type="curve" smooth="yes"/>
      <point x="1616" y="1430"/>
      <point x="1723" y="1386"/>
      <point x="1809" y="1305" type="curve" smooth="yes"/>
      <point x="1831" y="1284"/>
      <point x="1846" y="1278"/>
      <point x="1870" y="1299" type="curve" smooth="yes"/>
      <point x="1894" y="1321"/>
      <point x="1884" y="1343"/>
      <point x="1866" y="1361" type="curve" smooth="yes"/>
      <point x="1773" y="1461"/>
      <point x="1648" y="1515"/>
      <point x="1508" y="1515" type="curve" smooth="yes"/>
      <point x="1278" y="1515"/>
      <point x="1110" y="1358"/>
      <point x="1110" y="1139" type="curve" smooth="yes"/>
      <point x="1110" y="970"/>
      <point x="1205" y="831"/>
      <point x="1351" y="789" type="curve"/>
      <point x="1178" y="748"/>
      <point x="1051" y="579"/>
      <point x="1051" y="390" type="curve" smooth="yes"/>
      <point x="1051" y="143"/>
      <point x="1225" y="-19"/>
    </contour>
  </outline>
</glyph>
<glyph name="AE.cur.ini" format="2">
  <advance width="1933"/>
  <anchor x="1933" y="0" name="cnct"/>
  <anchor x="1189" y="1424" name="top"/>
  <outline>
    <contour>
      <point x="174" y="-17" type="curve" smooth="yes"/>
      <point x="381" y="-17"/>
      <point x="490" y="169"/>
      <point x="959" y="1453" type="curve"/>
      <point x="931" y="1446" type="line"/>
      <point x="946" y="1076"/>
      <point x="991" y="683"/>
      <point x="1063" y="298" type="curve" smooth="yes"/>
      <point x="1069" y="264"/>
      <point x="1083" y="253"/>
      <point x="1114" y="260" type="curve" smooth="yes"/>
      <point x="1143" y="268"/>
      <point x="1151" y="280"/>
      <point x="1145" y="315" type="curve" smooth="yes"/>
      <point x="1078" y="689"/>
      <point x="1031" y="1088"/>
      <point x="1013" y="1466" type="curve" smooth="yes"/>
      <point x="1011" y="1498"/>
      <point x="989" y="1513"/>
      <point x="951" y="1513" type="curve" smooth="yes"/>
      <point x="911" y="1513"/>
      <point x="890" y="1498"/>
      <point x="879" y="1469" type="curve" smooth="yes"/>
      <point x="426" y="236"/>
      <point x="318" y="64"/>
      <point x="173" y="64" type="curve" smooth="yes"/>
      <point x="146" y="64"/>
      <point x="126" y="69"/>
      <point x="90" y="84" type="curve" smooth="yes"/>
      <point x="75" y="90"/>
      <point x="58" y="83"/>
      <point x="49" y="60" type="curve" smooth="yes"/>
      <point x="39" y="35"/>
      <point x="50" y="18"/>
      <point x="69" y="8" type="curve" smooth="yes"/>
      <point x="101" y="-10"/>
      <point x="135" y="-17"/>
    </contour>
    <contour>
      <point x="539" y="476" type="line"/>
      <point x="1080" y="476" type="line"/>
      <point x="1066" y="554" type="line"/>
      <point x="569" y="554" type="line"/>
    </contour>
    <contour>
      <point x="1507" y="-17" type="curve" smooth="yes"/>
      <point x="1547" y="-17"/>
      <point x="1547" y="58"/>
      <point x="1507" y="58" type="curve" smooth="yes"/>
      <point x="1289" y="58"/>
      <point x="1145" y="191"/>
      <point x="1145" y="396" type="curve" smooth="yes"/>
      <point x="1145" y="599"/>
      <point x="1293" y="746"/>
      <point x="1498" y="746" type="curve" smooth="yes"/>
      <point x="1681" y="746" type="line" smooth="yes"/>
      <point x="1701" y="746"/>
      <point x="1709" y="756"/>
      <point x="1709" y="786" type="curve" smooth="yes"/>
      <point x="1709" y="816"/>
      <point x="1701" y="826"/>
      <point x="1681" y="826" type="curve" smooth="yes"/>
      <point x="1498" y="826" type="line" smooth="yes"/>
      <point x="1328" y="826"/>
      <point x="1204" y="959"/>
      <point x="1204" y="1141" type="curve" smooth="yes"/>
      <point x="1204" y="1309"/>
      <point x="1329" y="1430"/>
      <point x="1503" y="1430" type="curve" smooth="yes"/>
      <point x="1616" y="1430"/>
      <point x="1723" y="1386"/>
      <point x="1809" y="1305" type="curve" smooth="yes"/>
      <point x="1831" y="1284"/>
      <point x="1846" y="1278"/>
      <point x="1870" y="1299" type="curve" smooth="yes"/>
      <point x="1894" y="1321"/>
      <point x="1884" y="1343"/>
      <point x="1866" y="1361" type="curve" smooth="yes"/>
      <point x="1773" y="1461"/>
      <point x="1648" y="1515"/>
      <point x="1508" y="1515" type="curve" smooth="yes"/>
      <point x="1278" y="1515"/>
      <point x="1110" y="1358"/>
      <point x="1110" y="1139" type="curve" smooth="yes"/>
      <point x="1110" y="970"/>
      <point x="1205" y="831"/>
      <point x="1351" y="789" type="curve"/>
      <point x="1178" y="748"/>
      <point x="1051" y="579"/>
      <point x="1051" y="390" type="curve" smooth="yes"/>
      <point x="1051" y="144"/>
      <point x="1232" y="-17"/>
    </contour>
  </outline>
</glyph>
<glyph name="D.dec" format="2">
  <advance width="1573"/>
  <anchor x="815" y="-21" name="bottom"/>
  <anchor x="561" y="723" name="center"/>
  <anchor x="833" y="1403" name="top"/>
  <outline>
    <contour>
      <point x="289" y="-21" type="curve" smooth="yes"/>
      <point x="441" y="-21"/>
      <point x="518" y="103"/>
      <point x="518" y="308" type="curve" smooth="yes"/>
      <point x="518" y="1261" type="line" smooth="yes"/>
      <point x="518" y="1280"/>
      <point x="503" y="1289"/>
      <point x="474" y="1289" type="curve" smooth="yes"/>
      <point x="445" y="1289"/>
      <point x="430" y="1280"/>
      <point x="430" y="1261" type="curve" smooth="yes"/>
      <point x="430" y="308" type="line" smooth="yes"/>
      <point x="430" y="154"/>
      <point x="391" y="60"/>
      <point x="294" y="60" type="curve" smooth="yes"/>
      <point x="246" y="60"/>
      <point x="211" y="90"/>
      <point x="211" y="131" type="curve" smooth="yes"/>
      <point x="211" y="173"/>
      <point x="246" y="203"/>
      <point x="295" y="203" type="curve" smooth="yes"/>
      <point x="440" y="203"/>
      <point x="548" y="-11"/>
      <point x="848" y="-11" type="curve" smooth="yes"/>
      <point x="1193" y="-11"/>
      <point x="1440" y="269"/>
      <point x="1440" y="744" type="curve" smooth="yes"/>
      <point x="1440" y="1211"/>
      <point x="1145" y="1515"/>
      <point x="664" y="1515" type="curve" smooth="yes"/>
      <point x="411" y="1515"/>
      <point x="148" y="1420"/>
      <point x="103" y="1143" type="curve" smooth="yes"/>
      <point x="99" y="1118"/>
      <point x="110" y="1103"/>
      <point x="135" y="1099" type="curve" smooth="yes"/>
      <point x="161" y="1095"/>
      <point x="176" y="1105"/>
      <point x="181" y="1130" type="curve" smooth="yes"/>
      <point x="231" y="1364"/>
      <point x="446" y="1430"/>
      <point x="663" y="1430" type="curve" smooth="yes"/>
      <point x="1086" y="1430"/>
      <point x="1346" y="1168"/>
      <point x="1346" y="745" type="curve" smooth="yes"/>
      <point x="1346" y="323"/>
      <point x="1138" y="74"/>
      <point x="848" y="74" type="curve" smooth="yes"/>
      <point x="566" y="74"/>
      <point x="476" y="284"/>
      <point x="291" y="284" type="curve" smooth="yes"/>
      <point x="190" y="284"/>
      <point x="118" y="218"/>
      <point x="118" y="128" type="curve" smooth="yes"/>
      <point x="118" y="41"/>
      <point x="190" y="-21"/>
    </contour>
  </outline>
</glyph>
<glyph name="E.cur.ini" format="2">
  <advance width="1020"/>
  <anchor x="569" y="0" name="bottom"/>
  <anchor x="1020" y="0" name="cnct"/>
  <anchor x="724" y="0" name="ogonek"/>
  <anchor x="599" y="1424" name="top"/>
  <outline>
    <contour>
      <point x="594" y="-17" type="curve" smooth="yes"/>
      <point x="634" y="-17"/>
      <point x="634" y="58"/>
      <point x="594" y="58" type="curve" smooth="yes"/>
      <point x="370" y="58"/>
      <point x="233" y="196"/>
      <point x="233" y="396" type="curve" smooth="yes"/>
      <point x="233" y="599"/>
      <point x="380" y="746"/>
      <point x="585" y="746" type="curve" smooth="yes"/>
      <point x="769" y="746" type="line" smooth="yes"/>
      <point x="789" y="746"/>
      <point x="796" y="756"/>
      <point x="796" y="786" type="curve" smooth="yes"/>
      <point x="796" y="816"/>
      <point x="789" y="826"/>
      <point x="769" y="826" type="curve" smooth="yes"/>
      <point x="585" y="826" type="line" smooth="yes"/>
      <point x="415" y="826"/>
      <point x="291" y="959"/>
      <point x="291" y="1141" type="curve" smooth="yes"/>
      <point x="291" y="1309"/>
      <point x="416" y="1430"/>
      <point x="590" y="1430" type="curve" smooth="yes"/>
      <point x="704" y="1430"/>
      <point x="810" y="1386"/>
      <point x="896" y="1305" type="curve" smooth="yes"/>
      <point x="919" y="1284"/>
      <point x="934" y="1278"/>
      <point x="958" y="1299" type="curve" smooth="yes"/>
      <point x="981" y="1321"/>
      <point x="971" y="1343"/>
      <point x="954" y="1361" type="curve" smooth="yes"/>
      <point x="860" y="1461"/>
      <point x="735" y="1515"/>
      <point x="595" y="1515" type="curve" smooth="yes"/>
      <point x="365" y="1515"/>
      <point x="198" y="1358"/>
      <point x="198" y="1139" type="curve" smooth="yes"/>
      <point x="198" y="970"/>
      <point x="293" y="831"/>
      <point x="439" y="789" type="curve"/>
      <point x="265" y="748"/>
      <point x="139" y="579"/>
      <point x="139" y="390" type="curve" smooth="yes"/>
      <point x="139" y="147"/>
      <point x="311" y="-17"/>
    </contour>
  </outline>
</glyph>
<glyph name="F.cur" format="2">
  <advance width="1150"/>
  <guideline x="573"/>
  <guideline x="523"/>
  <outline>
    <contour>
      <point x="289" y="-19" type="curve" smooth="yes"/>
      <point x="430" y="-19"/>
      <point x="505" y="80"/>
      <point x="505" y="255" type="curve" smooth="yes"/>
      <point x="505" y="704" type="line"/>
      <point x="994" y="704" type="line" smooth="yes"/>
      <point x="1014" y="704"/>
      <point x="1021" y="714"/>
      <point x="1021" y="744" type="curve" smooth="yes"/>
      <point x="1021" y="774"/>
      <point x="1014" y="784"/>
      <point x="994" y="784" type="curve" smooth="yes"/>
      <point x="505" y="784" type="line"/>
      <point x="505" y="1408" type="line"/>
      <point x="1090" y="1408" type="line" smooth="yes"/>
      <point x="1110" y="1408"/>
      <point x="1118" y="1418"/>
      <point x="1118" y="1448" type="curve" smooth="yes"/>
      <point x="1118" y="1478"/>
      <point x="1110" y="1488"/>
      <point x="1090" y="1488" type="curve" smooth="yes"/>
      <point x="423" y="1488" type="line" smooth="yes"/>
      <point x="244" y="1488"/>
      <point x="129" y="1404"/>
      <point x="50" y="1288" type="curve" smooth="yes"/>
      <point x="35" y="1265"/>
      <point x="39" y="1248"/>
      <point x="58" y="1234" type="curve" smooth="yes"/>
      <point x="81" y="1216"/>
      <point x="95" y="1220"/>
      <point x="109" y="1238" type="curve" smooth="yes"/>
      <point x="209" y="1364"/>
      <point x="285" y="1408"/>
      <point x="410" y="1408" type="curve" smooth="yes"/>
      <point x="418" y="1408" type="line"/>
      <point x="418" y="268" type="line" smooth="yes"/>
      <point x="418" y="130"/>
      <point x="378" y="64"/>
      <point x="293" y="64" type="curve" smooth="yes"/>
      <point x="221" y="64"/>
      <point x="171" y="100"/>
      <point x="121" y="169" type="curve" smooth="yes"/>
      <point x="105" y="191"/>
      <point x="90" y="193"/>
      <point x="66" y="178" type="curve" smooth="yes"/>
      <point x="45" y="164"/>
      <point x="44" y="145"/>
      <point x="58" y="121" type="curve" smooth="yes"/>
      <point x="101" y="45"/>
      <point x="183" y="-19"/>
    </contour>
  </outline>
</glyph>
<glyph name="F.cur_locl" format="2">
  <advance width="1305"/>
  <outline>
    <contour>
      <point x="408" y="-17" type="curve" smooth="yes"/>
      <point x="724" y="-17"/>
      <point x="1018" y="414"/>
      <point x="1018" y="920" type="curve" smooth="yes"/>
      <point x="1018" y="1315"/>
      <point x="863" y="1515"/>
      <point x="559" y="1515" type="curve" smooth="yes"/>
      <point x="430" y="1515"/>
      <point x="274" y="1453"/>
      <point x="146" y="1349" type="curve" smooth="yes"/>
      <point x="128" y="1334"/>
      <point x="125" y="1316"/>
      <point x="140" y="1295" type="curve" smooth="yes"/>
      <point x="158" y="1271"/>
      <point x="175" y="1266"/>
      <point x="191" y="1279" type="curve" smooth="yes"/>
      <point x="306" y="1373"/>
      <point x="445" y="1430"/>
      <point x="559" y="1430" type="curve" smooth="yes"/>
      <point x="801" y="1430"/>
      <point x="924" y="1258"/>
      <point x="924" y="920" type="curve" smooth="yes"/>
      <point x="924" y="463"/>
      <point x="670" y="68"/>
      <point x="408" y="68" type="curve" smooth="yes"/>
      <point x="288" y="68"/>
      <point x="214" y="151"/>
      <point x="214" y="288" type="curve" smooth="yes"/>
      <point x="214" y="555"/>
      <point x="512" y="823"/>
      <point x="1184" y="951" type="curve"/>
      <point x="1184" y="789" type="line" smooth="yes"/>
      <point x="1184" y="769"/>
      <point x="1198" y="759"/>
      <point x="1226" y="759" type="curve" smooth="yes"/>
      <point x="1255" y="759"/>
      <point x="1269" y="769"/>
      <point x="1269" y="789" type="curve" smooth="yes"/>
      <point x="1269" y="993" type="line" smooth="yes"/>
      <point x="1269" y="1026"/>
      <point x="1248" y="1048"/>
      <point x="1210" y="1041" type="curve" smooth="yes"/>
      <point x="438" y="909"/>
      <point x="120" y="596"/>
      <point x="120" y="288" type="curve" smooth="yes"/>
      <point x="120" y="98"/>
      <point x="229" y="-17"/>
    </contour>
  </outline>
</glyph>
<glyph name="G.cur" format="2">
  <advance width="1333"/>
  <anchor x="638" y="0" name="bottom"/>
  <anchor x="698" y="1424" name="top"/>
  <outline>
    <contour>
      <point x="911" y="-1020" type="curve" smooth="yes"/>
      <point x="1080" y="-1020"/>
      <point x="1184" y="-874"/>
      <point x="1184" y="-635" type="curve" smooth="yes"/>
      <point x="1184" y="710" type="line" smooth="yes"/>
      <point x="1184" y="729"/>
      <point x="1169" y="738"/>
      <point x="1140" y="738" type="curve" smooth="yes"/>
      <point x="1111" y="738"/>
      <point x="1096" y="729"/>
      <point x="1096" y="710" type="curve"/>
      <point x="1046" y="359"/>
      <point x="851" y="104"/>
      <point x="630" y="104" type="curve" smooth="yes"/>
      <point x="389" y="104"/>
      <point x="215" y="369"/>
      <point x="215" y="734" type="curve" smooth="yes"/>
      <point x="215" y="1138"/>
      <point x="425" y="1430"/>
      <point x="715" y="1430" type="curve" smooth="yes"/>
      <point x="848" y="1430"/>
      <point x="974" y="1370"/>
      <point x="1076" y="1256" type="curve" smooth="yes"/>
      <point x="1089" y="1243"/>
      <point x="1108" y="1243"/>
      <point x="1128" y="1263" type="curve" smooth="yes"/>
      <point x="1148" y="1284"/>
      <point x="1146" y="1296"/>
      <point x="1134" y="1311" type="curve" smooth="yes"/>
      <point x="1019" y="1444"/>
      <point x="874" y="1515"/>
      <point x="716" y="1515" type="curve" smooth="yes"/>
      <point x="371" y="1515"/>
      <point x="121" y="1186"/>
      <point x="121" y="733" type="curve" smooth="yes"/>
      <point x="121" y="319"/>
      <point x="334" y="19"/>
      <point x="626" y="19" type="curve" smooth="yes"/>
      <point x="826" y="19"/>
      <point x="1005" y="190"/>
      <point x="1096" y="449" type="curve"/>
      <point x="1096" y="-635" type="line" smooth="yes"/>
      <point x="1096" y="-821"/>
      <point x="1030" y="-935"/>
      <point x="920" y="-935" type="curve" smooth="yes"/>
      <point x="844" y="-935"/>
      <point x="798" y="-880"/>
      <point x="798" y="-789" type="curve" smooth="yes"/>
      <point x="798" y="-560"/>
      <point x="980" y="-346"/>
      <point x="1171" y="-181" type="curve" smooth="yes"/>
      <point x="1283" y="-85"/>
      <point x="1396" y="-6"/>
      <point x="1478" y="51" type="curve" smooth="yes"/>
      <point x="1498" y="65"/>
      <point x="1501" y="85"/>
      <point x="1486" y="106" type="curve" smooth="yes"/>
      <point x="1470" y="129"/>
      <point x="1458" y="136"/>
      <point x="1430" y="116" type="curve" smooth="yes"/>
      <point x="1346" y="58"/>
      <point x="1239" y="-19"/>
      <point x="1131" y="-110" type="curve" smooth="yes"/>
      <point x="915" y="-292"/>
      <point x="704" y="-531"/>
      <point x="704" y="-789" type="curve" smooth="yes"/>
      <point x="704" y="-932"/>
      <point x="781" y="-1020"/>
    </contour>
  </outline>
</glyph>
<glyph name="G.cur_ro" format="2">
  <advance width="1115"/>
  <outline>
    <contour>
      <point x="556" y="-20" type="curve" smooth="yes"/>
      <point x="829" y="-20"/>
      <point x="976" y="263"/>
      <point x="976" y="798" type="curve" smooth="yes"/>
      <point x="976" y="813"/>
      <point x="968" y="821"/>
      <point x="945" y="821" type="curve" smooth="yes"/>
      <point x="927" y="821"/>
      <point x="912" y="815"/>
      <point x="886" y="798" type="curve" smooth="yes"/>
      <point x="824" y="758"/>
      <point x="698" y="673"/>
      <point x="535" y="673" type="curve" smooth="yes"/>
      <point x="365" y="673"/>
      <point x="272" y="769"/>
      <point x="272" y="991" type="curve" smooth="yes"/>
      <point x="272" y="1235"/>
      <point x="398" y="1435"/>
      <point x="570" y="1435" type="curve" smooth="yes"/>
      <point x="668" y="1435"/>
      <point x="729" y="1368"/>
      <point x="729" y="1247" type="curve" smooth="yes"/>
      <point x="729" y="1074"/>
      <point x="589" y="938"/>
      <point x="406" y="938" type="curve" smooth="yes"/>
      <point x="206" y="938"/>
      <point x="103" y="1110"/>
      <point x="103" y="1454" type="curve" smooth="yes"/>
      <point x="103" y="1472"/>
      <point x="88" y="1481"/>
      <point x="60" y="1481" type="curve" smooth="yes"/>
      <point x="32" y="1481"/>
      <point x="17" y="1472"/>
      <point x="17" y="1454" type="curve" smooth="yes"/>
      <point x="17" y="1055"/>
      <point x="148" y="851"/>
      <point x="404" y="851" type="curve" smooth="yes"/>
      <point x="642" y="851"/>
      <point x="821" y="1023"/>
      <point x="821" y="1248" type="curve" smooth="yes"/>
      <point x="821" y="1420"/>
      <point x="724" y="1519"/>
      <point x="572" y="1519" type="curve" smooth="yes"/>
      <point x="343" y="1519"/>
      <point x="180" y="1283"/>
      <point x="180" y="995" type="curve" smooth="yes"/>
      <point x="180" y="733"/>
      <point x="309" y="586"/>
      <point x="529" y="586" type="curve" smooth="yes"/>
      <point x="646" y="586"/>
      <point x="766" y="629"/>
      <point x="887" y="705" type="curve"/>
      <point x="879" y="293"/>
      <point x="765" y="67"/>
      <point x="554" y="67" type="curve" smooth="yes"/>
      <point x="420" y="67"/>
      <point x="349" y="156"/>
      <point x="302" y="282" type="curve" smooth="yes"/>
      <point x="294" y="304"/>
      <point x="276" y="310"/>
      <point x="251" y="299" type="curve" smooth="yes"/>
      <point x="227" y="289"/>
      <point x="219" y="273"/>
      <point x="226" y="252" type="curve" smooth="yes"/>
      <point x="270" y="117"/>
      <point x="360" y="-20"/>
    </contour>
  </outline>
</glyph>
<glyph name="G.dec" format="2">
  <advance width="1625"/>
  <anchor x="925" y="0" name="bottom"/>
  <anchor x="975" y="1424" name="top"/>
  <outline>
    <contour>
      <point x="110" y="-12" type="curve" smooth="yes"/>
      <point x="456" y="-12"/>
      <point x="793" y="528"/>
      <point x="793" y="1185" type="curve" smooth="yes"/>
      <point x="793" y="1389"/>
      <point x="723" y="1513"/>
      <point x="593" y="1513" type="curve" smooth="yes"/>
      <point x="481" y="1513"/>
      <point x="411" y="1428"/>
      <point x="411" y="1289" type="curve" smooth="yes"/>
      <point x="411" y="1058"/>
      <point x="571" y="884"/>
      <point x="793" y="884" type="curve" smooth="yes"/>
      <point x="1013" y="884"/>
      <point x="1214" y="1063"/>
      <point x="1321" y="1356" type="curve"/>
      <point x="1269" y="1348" type="line"/>
      <point x="1286" y="1178"/>
      <point x="1303" y="1004"/>
      <point x="1303" y="825" type="curve" smooth="yes"/>
      <point x="1303" y="233"/>
      <point x="1134" y="75"/>
      <point x="873" y="75" type="curve" smooth="yes"/>
      <point x="571" y="75"/>
      <point x="330" y="344"/>
      <point x="274" y="740" type="curve"/>
      <point x="254" y="708" type="line"/>
      <point x="629" y="469"/>
      <point x="1006" y="379"/>
      <point x="1533" y="379" type="curve" smooth="yes"/>
      <point x="1556" y="379"/>
      <point x="1564" y="399"/>
      <point x="1564" y="420" type="curve" smooth="yes"/>
      <point x="1564" y="448"/>
      <point x="1556" y="459"/>
      <point x="1533" y="459" type="curve" smooth="yes"/>
      <point x="1003" y="459"/>
      <point x="629" y="555"/>
      <point x="271" y="786" type="curve" smooth="yes"/>
      <point x="254" y="798"/>
      <point x="235" y="799"/>
      <point x="211" y="774" type="curve" smooth="yes"/>
      <point x="190" y="753"/>
      <point x="193" y="734"/>
      <point x="196" y="714" type="curve" smooth="yes"/>
      <point x="263" y="303"/>
      <point x="511" y="-12"/>
      <point x="866" y="-12" type="curve" smooth="yes"/>
      <point x="1196" y="-12"/>
      <point x="1394" y="180"/>
      <point x="1394" y="825" type="curve" smooth="yes"/>
      <point x="1394" y="983"/>
      <point x="1380" y="1181"/>
      <point x="1360" y="1359" type="curve" smooth="yes"/>
      <point x="1356" y="1384"/>
      <point x="1341" y="1399"/>
      <point x="1315" y="1405" type="curve" smooth="yes"/>
      <point x="1278" y="1415"/>
      <point x="1255" y="1406"/>
      <point x="1245" y="1380" type="curve" smooth="yes"/>
      <point x="1149" y="1121"/>
      <point x="981" y="964"/>
      <point x="803" y="964" type="curve" smooth="yes"/>
      <point x="626" y="964"/>
      <point x="499" y="1105"/>
      <point x="499" y="1291" type="curve" smooth="yes"/>
      <point x="499" y="1379"/>
      <point x="536" y="1433"/>
      <point x="593" y="1433" type="curve" smooth="yes"/>
      <point x="664" y="1433"/>
      <point x="705" y="1338"/>
      <point x="705" y="1181" type="curve" smooth="yes"/>
      <point x="705" y="573"/>
      <point x="405" y="68"/>
      <point x="110" y="68" type="curve" smooth="yes"/>
      <point x="81" y="68"/>
      <point x="69" y="55"/>
      <point x="69" y="28" type="curve" smooth="yes"/>
      <point x="69" y="-2"/>
      <point x="80" y="-12"/>
    </contour>
  </outline>
</glyph>
<glyph name="G_locl.au" format="2">
  <advance width="1356"/>
  <anchor x="664" y="0" name="bottom"/>
  <anchor x="713" y="1424" name="top"/>
  <outline>
    <contour>
      <point x="616" y="-17" type="curve" smooth="yes"/>
      <point x="838" y="-17"/>
      <point x="1019" y="156"/>
      <point x="1111" y="440" type="curve"/>
      <point x="1111" y="14" type="line" smooth="yes"/>
      <point x="1111" y="-5"/>
      <point x="1126" y="-14"/>
      <point x="1155" y="-14" type="curve" smooth="yes"/>
      <point x="1184" y="-14"/>
      <point x="1199" y="-5"/>
      <point x="1199" y="14" type="curve" smooth="yes"/>
      <point x="1199" y="748" type="line" smooth="yes"/>
      <point x="1199" y="766"/>
      <point x="1184" y="775"/>
      <point x="1155" y="775" type="curve" smooth="yes"/>
      <point x="1126" y="775"/>
      <point x="1111" y="766"/>
      <point x="1111" y="748" type="curve"/>
      <point x="1055" y="336"/>
      <point x="863" y="68"/>
      <point x="623" y="68" type="curve" smooth="yes"/>
      <point x="376" y="68"/>
      <point x="231" y="299"/>
      <point x="231" y="690" type="curve" smooth="yes"/>
      <point x="231" y="1119"/>
      <point x="444" y="1430"/>
      <point x="740" y="1430" type="curve" smooth="yes"/>
      <point x="878" y="1430"/>
      <point x="994" y="1369"/>
      <point x="1085" y="1264" type="curve" smooth="yes"/>
      <point x="1100" y="1248"/>
      <point x="1114" y="1253"/>
      <point x="1133" y="1268" type="curve" smooth="yes"/>
      <point x="1149" y="1281"/>
      <point x="1155" y="1293"/>
      <point x="1144" y="1309" type="curve" smooth="yes"/>
      <point x="1031" y="1470"/>
      <point x="883" y="1515"/>
      <point x="740" y="1515" type="curve" smooth="yes"/>
      <point x="390" y="1515"/>
      <point x="138" y="1168"/>
      <point x="138" y="689" type="curve" smooth="yes"/>
      <point x="138" y="245"/>
      <point x="315" y="-17"/>
    </contour>
  </outline>
</glyph>
<glyph name="G_locl" format="2">
  <advance width="1356"/>
  <anchor x="679" y="0" name="bottom"/>
  <anchor x="698" y="1424" name="top"/>
  <outline>
    <contour>
      <point x="688" y="-19" type="curve" smooth="yes"/>
      <point x="876" y="-19"/>
      <point x="1013" y="65"/>
      <point x="1111" y="240" type="curve"/>
      <point x="1111" y="14" type="line" smooth="yes"/>
      <point x="1111" y="-5"/>
      <point x="1126" y="-14"/>
      <point x="1155" y="-14" type="curve" smooth="yes"/>
      <point x="1184" y="-14"/>
      <point x="1199" y="-5"/>
      <point x="1199" y="14" type="curve" smooth="yes"/>
      <point x="1199" y="729" type="line" smooth="yes"/>
      <point x="1199" y="759"/>
      <point x="1191" y="769"/>
      <point x="1171" y="769" type="curve" smooth="yes"/>
      <point x="744" y="769" type="line" smooth="yes"/>
      <point x="724" y="769"/>
      <point x="716" y="759"/>
      <point x="716" y="729" type="curve" smooth="yes"/>
      <point x="716" y="699"/>
      <point x="724" y="689"/>
      <point x="744" y="689" type="curve" smooth="yes"/>
      <point x="1111" y="689" type="line"/>
      <point x="1111" y="405" type="line"/>
      <point x="1011" y="168"/>
      <point x="889" y="66"/>
      <point x="688" y="66" type="curve" smooth="yes"/>
      <point x="423" y="66"/>
      <point x="231" y="328"/>
      <point x="231" y="749" type="curve" smooth="yes"/>
      <point x="231" y="1171"/>
      <point x="439" y="1430"/>
      <point x="721" y="1430" type="curve" smooth="yes"/>
      <point x="859" y="1430"/>
      <point x="975" y="1369"/>
      <point x="1066" y="1264" type="curve" smooth="yes"/>
      <point x="1081" y="1248"/>
      <point x="1095" y="1251"/>
      <point x="1114" y="1268" type="curve" smooth="yes"/>
      <point x="1130" y="1281"/>
      <point x="1136" y="1293"/>
      <point x="1125" y="1309" type="curve" smooth="yes"/>
      <point x="1013" y="1470"/>
      <point x="864" y="1515"/>
      <point x="721" y="1515" type="curve" smooth="yes"/>
      <point x="375" y="1515"/>
      <point x="138" y="1211"/>
      <point x="138" y="749" type="curve" smooth="yes"/>
      <point x="138" y="285"/>
      <point x="359" y="-19"/>
    </contour>
  </outline>
</glyph>
<glyph name="H.cur.ini" format="2">
  <advance width="1443"/>
  <anchor x="810" y="0" name="bottom"/>
  <anchor x="810" y="1060" name="center"/>
  <anchor x="1444" y="0" name="cnct"/>
  <anchor x="810" y="1424" name="top"/>
  <outline>
    <contour>
      <point x="348" y="-19" type="curve" smooth="yes"/>
      <point x="465" y="-19"/>
      <point x="534" y="88"/>
      <point x="534" y="266" type="curve" smooth="yes"/>
      <point x="534" y="551" type="line"/>
      <point x="710" y="631"/>
      <point x="926" y="743"/>
      <point x="1083" y="828" type="curve"/>
      <point x="1083" y="373" type="line" smooth="yes"/>
      <point x="1083" y="99"/>
      <point x="1186" y="-17"/>
      <point x="1366" y="-17" type="curve" smooth="yes"/>
      <point x="1416" y="-17"/>
      <point x="1436" y="58"/>
      <point x="1386" y="58" type="curve" smooth="yes"/>
      <point x="1244" y="58"/>
      <point x="1170" y="138"/>
      <point x="1170" y="375" type="curve" smooth="yes"/>
      <point x="1170" y="876" type="line"/>
      <point x="1354" y="976"/>
      <point x="1451" y="1118"/>
      <point x="1451" y="1283" type="curve" smooth="yes"/>
      <point x="1451" y="1431"/>
      <point x="1381" y="1520"/>
      <point x="1269" y="1520" type="curve" smooth="yes"/>
      <point x="1151" y="1520"/>
      <point x="1083" y="1418"/>
      <point x="1083" y="1244" type="curve" smooth="yes"/>
      <point x="1083" y="924" type="line"/>
      <point x="903" y="829"/>
      <point x="725" y="735"/>
      <point x="534" y="646" type="curve"/>
      <point x="534" y="1270" type="line" smooth="yes"/>
      <point x="534" y="1436"/>
      <point x="470" y="1520"/>
      <point x="346" y="1520" type="curve" smooth="yes"/>
      <point x="238" y="1520"/>
      <point x="155" y="1454"/>
      <point x="76" y="1296" type="curve" smooth="yes"/>
      <point x="64" y="1273"/>
      <point x="69" y="1255"/>
      <point x="95" y="1243" type="curve" smooth="yes"/>
      <point x="115" y="1233"/>
      <point x="134" y="1238"/>
      <point x="144" y="1256" type="curve" smooth="yes"/>
      <point x="214" y="1391"/>
      <point x="268" y="1438"/>
      <point x="343" y="1438" type="curve" smooth="yes"/>
      <point x="415" y="1438"/>
      <point x="446" y="1388"/>
      <point x="446" y="1270" type="curve" smooth="yes"/>
      <point x="446" y="608" type="line"/>
      <point x="274" y="525"/>
      <point x="164" y="370"/>
      <point x="164" y="206" type="curve" smooth="yes"/>
      <point x="164" y="59"/>
      <point x="229" y="-19"/>
    </contour>
    <contour>
      <point x="348" y="66" type="curve" smooth="yes"/>
      <point x="288" y="66"/>
      <point x="255" y="116"/>
      <point x="255" y="210" type="curve" smooth="yes"/>
      <point x="255" y="344"/>
      <point x="329" y="460"/>
      <point x="446" y="515" type="curve"/>
      <point x="446" y="266" type="line" smooth="yes"/>
      <point x="446" y="140"/>
      <point x="410" y="66"/>
    </contour>
    <contour>
      <point x="1170" y="971" type="curve"/>
      <point x="1170" y="1244" type="line" smooth="yes"/>
      <point x="1170" y="1365"/>
      <point x="1206" y="1438"/>
      <point x="1269" y="1438" type="curve" smooth="yes"/>
      <point x="1324" y="1438"/>
      <point x="1360" y="1379"/>
      <point x="1360" y="1279" type="curve" smooth="yes"/>
      <point x="1360" y="1148"/>
      <point x="1294" y="1041"/>
    </contour>
  </outline>
</glyph>
<glyph name="H.dec" format="2">
  <advance width="1689"/>
  <guideline x="769" y="1190" angle="90"/>
  <anchor x="961" y="0" name="bottom"/>
  <anchor x="961" y="1150" name="center"/>
  <anchor x="961" y="1424" name="top"/>
  <outline>
    <contour>
      <point x="566" y="-14" type="curve" smooth="yes"/>
      <point x="595" y="-14"/>
      <point x="610" y="-5"/>
      <point x="610" y="14" type="curve" smooth="yes"/>
      <point x="610" y="1488" type="line" smooth="yes"/>
      <point x="610" y="1506"/>
      <point x="595" y="1515"/>
      <point x="566" y="1515" type="curve" smooth="yes"/>
      <point x="539" y="1515"/>
      <point x="533" y="1509"/>
      <point x="516" y="1491" type="curve" smooth="yes"/>
      <point x="486" y="1460"/>
      <point x="461" y="1444"/>
      <point x="429" y="1444" type="curve" smooth="yes"/>
      <point x="364" y="1444"/>
      <point x="310" y="1484"/>
      <point x="224" y="1484" type="curve" smooth="yes"/>
      <point x="118" y="1484"/>
      <point x="50" y="1403"/>
      <point x="50" y="1279" type="curve" smooth="yes"/>
      <point x="50" y="1258"/>
      <point x="63" y="1244"/>
      <point x="91" y="1244" type="curve" smooth="yes"/>
      <point x="124" y="1244"/>
      <point x="135" y="1259"/>
      <point x="135" y="1279" type="curve" smooth="yes"/>
      <point x="135" y="1354"/>
      <point x="173" y="1400"/>
      <point x="226" y="1400" type="curve" smooth="yes"/>
      <point x="285" y="1400"/>
      <point x="344" y="1360"/>
      <point x="419" y="1360" type="curve" smooth="yes"/>
      <point x="461" y="1360"/>
      <point x="495" y="1376"/>
      <point x="523" y="1401" type="curve"/>
      <point x="523" y="14" type="line" smooth="yes"/>
      <point x="523" y="-5"/>
      <point x="538" y="-14"/>
    </contour>
    <contour>
      <point x="1311" y="265" type="curve"/>
      <point x="1394" y="278" type="line"/>
      <point x="1394" y="791"/>
      <point x="1110" y="900"/>
      <point x="880" y="900" type="curve" smooth="yes"/>
      <point x="685" y="900"/>
      <point x="538" y="794"/>
      <point x="538" y="644" type="curve" smooth="yes"/>
      <point x="538" y="469"/>
      <point x="679" y="380"/>
      <point x="921" y="380" type="curve" smooth="yes"/>
      <point x="1210" y="380"/>
      <point x="1438" y="516"/>
      <point x="1596" y="784" type="curve" smooth="yes"/>
      <point x="1606" y="801"/>
      <point x="1603" y="819"/>
      <point x="1580" y="834" type="curve" smooth="yes"/>
      <point x="1558" y="849"/>
      <point x="1540" y="846"/>
      <point x="1529" y="826" type="curve" smooth="yes"/>
      <point x="1388" y="581"/>
      <point x="1183" y="460"/>
      <point x="930" y="460" type="curve" smooth="yes"/>
      <point x="729" y="460"/>
      <point x="618" y="524"/>
      <point x="618" y="644" type="curve" smooth="yes"/>
      <point x="618" y="753"/>
      <point x="721" y="820"/>
      <point x="871" y="820" type="curve" smooth="yes"/>
      <point x="1069" y="820"/>
      <point x="1311" y="744"/>
    </contour>
    <contour>
      <point x="1355" y="-14" type="curve" smooth="yes"/>
      <point x="1384" y="-14"/>
      <point x="1399" y="-5"/>
      <point x="1399" y="14" type="curve" smooth="yes"/>
      <point x="1399" y="1488" type="line" smooth="yes"/>
      <point x="1399" y="1506"/>
      <point x="1384" y="1515"/>
      <point x="1355" y="1515" type="curve" smooth="yes"/>
      <point x="1326" y="1515"/>
      <point x="1311" y="1506"/>
      <point x="1311" y="1488" type="curve" smooth="yes"/>
      <point x="1311" y="14" type="line" smooth="yes"/>
      <point x="1311" y="-5"/>
      <point x="1326" y="-14"/>
    </contour>
  </outline>
</glyph>
<glyph name="I.cur" format="2">
  <advance width="1483"/>
  <anchor x="1049" y="0" name="bottom"/>
  <anchor x="755" y="-9" name="ogonek"/>
  <anchor x="1049" y="1424" name="top"/>
  <outline>
    <contour>
      <point x="1346" y="1036" type="curve" smooth="yes"/>
      <point x="1346" y="1334"/>
      <point x="1235" y="1515"/>
      <point x="1051" y="1515" type="curve" smooth="yes"/>
      <point x="855" y="1515"/>
      <point x="735" y="1319"/>
      <point x="735" y="998" type="curve" smooth="yes"/>
      <point x="735" y="733"/>
      <point x="819" y="473"/>
      <point x="984" y="221" type="curve"/>
      <point x="885" y="123"/>
      <point x="765" y="68"/>
      <point x="630" y="68" type="curve" smooth="yes"/>
      <point x="430" y="68"/>
      <point x="285" y="191"/>
      <point x="224" y="428" type="curve"/>
      <point x="344" y="388"/>
      <point x="440" y="378"/>
      <point x="578" y="378" type="curve" smooth="yes"/>
      <point x="599" y="378"/>
      <point x="608" y="393"/>
      <point x="608" y="418" type="curve" smooth="yes"/>
      <point x="608" y="441"/>
      <point x="599" y="453"/>
      <point x="578" y="453" type="curve" smooth="yes"/>
      <point x="420" y="453"/>
      <point x="316" y="473"/>
      <point x="201" y="514" type="curve" smooth="yes"/>
      <point x="179" y="523"/>
      <point x="159" y="525"/>
      <point x="139" y="504" type="curve" smooth="yes"/>
      <point x="121" y="485"/>
      <point x="123" y="466"/>
      <point x="126" y="446" type="curve" smooth="yes"/>
      <point x="189" y="148"/>
      <point x="363" y="-17"/>
      <point x="630" y="-17" type="curve" smooth="yes"/>
      <point x="783" y="-17"/>
      <point x="920" y="43"/>
      <point x="1033" y="149" type="curve"/>
      <point x="1073" y="95"/>
      <point x="1115" y="41"/>
      <point x="1161" y="-11" type="curve" smooth="yes"/>
      <point x="1183" y="-35"/>
      <point x="1205" y="-36"/>
      <point x="1229" y="-12" type="curve" smooth="yes"/>
      <point x="1250" y="9"/>
      <point x="1253" y="28"/>
      <point x="1229" y="54" type="curve" smooth="yes"/>
      <point x="1180" y="108"/>
      <point x="1136" y="163"/>
      <point x="1096" y="218" type="curve"/>
      <point x="1253" y="406"/>
      <point x="1346" y="695"/>
    </contour>
    <contour>
      <point x="829" y="998" type="curve" smooth="yes"/>
      <point x="829" y="1266"/>
      <point x="913" y="1430"/>
      <point x="1051" y="1430" type="curve" smooth="yes"/>
      <point x="1176" y="1430"/>
      <point x="1253" y="1281"/>
      <point x="1253" y="1036" type="curve" smooth="yes"/>
      <point x="1253" y="729"/>
      <point x="1176" y="466"/>
      <point x="1045" y="293" type="curve"/>
      <point x="901" y="518"/>
      <point x="829" y="754"/>
    </contour>
  </outline>
</glyph>
<glyph name="I.cur.ini" format="2">
  <advance width="1450"/>
  <anchor x="1049" y="0" name="bottom"/>
  <anchor x="1450" y="0" name="cnct"/>
  <anchor x="1215" y="-9" name="ogonek"/>
  <anchor x="1049" y="1424" name="top"/>
  <outline>
    <contour>
      <point x="630" y="-17" type="curve" smooth="yes"/>
      <point x="1129" y="-17"/>
      <point x="1346" y="549"/>
      <point x="1346" y="1036" type="curve" smooth="yes"/>
      <point x="1346" y="1334"/>
      <point x="1235" y="1515"/>
      <point x="1051" y="1515" type="curve" smooth="yes"/>
      <point x="855" y="1515"/>
      <point x="735" y="1327"/>
      <point x="735" y="1018" type="curve" smooth="yes"/>
      <point x="735" y="541"/>
      <point x="1004" y="-17"/>
      <point x="1375" y="-17" type="curve" smooth="yes"/>
      <point x="1415" y="-17"/>
      <point x="1434" y="58"/>
      <point x="1394" y="58" type="curve" smooth="yes"/>
      <point x="1066" y="58"/>
      <point x="829" y="585"/>
      <point x="829" y="1018" type="curve" smooth="yes"/>
      <point x="829" y="1274"/>
      <point x="913" y="1430"/>
      <point x="1051" y="1430" type="curve" smooth="yes"/>
      <point x="1176" y="1430"/>
      <point x="1253" y="1281"/>
      <point x="1253" y="1036" type="curve" smooth="yes"/>
      <point x="1253" y="605"/>
      <point x="1061" y="68"/>
      <point x="630" y="68" type="curve" smooth="yes"/>
      <point x="430" y="68"/>
      <point x="285" y="191"/>
      <point x="224" y="428" type="curve"/>
      <point x="344" y="388"/>
      <point x="440" y="378"/>
      <point x="578" y="378" type="curve" smooth="yes"/>
      <point x="599" y="378"/>
      <point x="608" y="393"/>
      <point x="608" y="418" type="curve" smooth="yes"/>
      <point x="608" y="441"/>
      <point x="599" y="453"/>
      <point x="578" y="453" type="curve" smooth="yes"/>
      <point x="420" y="453"/>
      <point x="316" y="473"/>
      <point x="201" y="514" type="curve" smooth="yes"/>
      <point x="179" y="523"/>
      <point x="159" y="525"/>
      <point x="139" y="504" type="curve" smooth="yes"/>
      <point x="121" y="485"/>
      <point x="123" y="466"/>
      <point x="126" y="446" type="curve"/>
      <point x="189" y="148"/>
      <point x="363" y="-17"/>
    </contour>
  </outline>
</glyph>
<glyph name="I.dec" format="2">
  <advance width="833"/>
  <anchor x="364" y="0" name="bottom"/>
  <anchor x="447" y="-5" name="ogonek"/>
  <anchor x="370" y="1424" name="top"/>
  <outline>
    <contour>
      <point x="334" y="-19" type="curve" smooth="yes"/>
      <point x="526" y="-19"/>
      <point x="624" y="100"/>
      <point x="624" y="334" type="curve" smooth="yes"/>
      <point x="624" y="1488" type="line" smooth="yes"/>
      <point x="624" y="1506"/>
      <point x="609" y="1515"/>
      <point x="580" y="1515" type="curve" smooth="yes"/>
      <point x="560" y="1515"/>
      <point x="545" y="1508"/>
      <point x="524" y="1486" type="curve" smooth="yes"/>
      <point x="500" y="1463"/>
      <point x="476" y="1439"/>
      <point x="433" y="1439" type="curve" smooth="yes"/>
      <point x="368" y="1439"/>
      <point x="319" y="1479"/>
      <point x="231" y="1479" type="curve" smooth="yes"/>
      <point x="125" y="1479"/>
      <point x="55" y="1398"/>
      <point x="55" y="1274" type="curve" smooth="yes"/>
      <point x="55" y="1253"/>
      <point x="68" y="1239"/>
      <point x="96" y="1239" type="curve" smooth="yes"/>
      <point x="129" y="1239"/>
      <point x="140" y="1254"/>
      <point x="140" y="1274" type="curve" smooth="yes"/>
      <point x="140" y="1350"/>
      <point x="180" y="1396"/>
      <point x="234" y="1396" type="curve" smooth="yes"/>
      <point x="291" y="1396"/>
      <point x="349" y="1356"/>
      <point x="424" y="1356" type="curve" smooth="yes"/>
      <point x="468" y="1356"/>
      <point x="509" y="1374"/>
      <point x="536" y="1401" type="curve"/>
      <point x="536" y="334" type="line" smooth="yes"/>
      <point x="536" y="156"/>
      <point x="469" y="66"/>
      <point x="338" y="66" type="curve" smooth="yes"/>
      <point x="264" y="66"/>
      <point x="198" y="103"/>
      <point x="141" y="173" type="curve" smooth="yes"/>
      <point x="125" y="194"/>
      <point x="108" y="199"/>
      <point x="83" y="180" type="curve" smooth="yes"/>
      <point x="61" y="164"/>
      <point x="59" y="144"/>
      <point x="73" y="123" type="curve" smooth="yes"/>
      <point x="134" y="29"/>
      <point x="223" y="-19"/>
    </contour>
  </outline>
</glyph>
<glyph name="I_locl" format="2">
  <advance width="581"/>
  <anchor x="291" y="0" name="bottom"/>
  <anchor x="524" y="21" name="ogonek"/>
  <anchor x="291" y="1424" name="top"/>
  <outline>
    <contour>
      <point x="59" y="0" type="curve" smooth="yes"/>
      <point x="523" y="0" type="line" smooth="yes"/>
      <point x="543" y="0"/>
      <point x="550" y="10"/>
      <point x="550" y="40" type="curve" smooth="yes"/>
      <point x="550" y="70"/>
      <point x="543" y="80"/>
      <point x="523" y="80" type="curve" smooth="yes"/>
      <point x="335" y="80" type="line"/>
      <point x="335" y="1408" type="line"/>
      <point x="523" y="1408" type="line" smooth="yes"/>
      <point x="543" y="1408"/>
      <point x="550" y="1418"/>
      <point x="550" y="1448" type="curve" smooth="yes"/>
      <point x="550" y="1478"/>
      <point x="543" y="1488"/>
      <point x="523" y="1488" type="curve" smooth="yes"/>
      <point x="59" y="1488" type="line" smooth="yes"/>
      <point x="39" y="1488"/>
      <point x="31" y="1478"/>
      <point x="31" y="1448" type="curve" smooth="yes"/>
      <point x="31" y="1418"/>
      <point x="39" y="1408"/>
      <point x="59" y="1408" type="curve" smooth="yes"/>
      <point x="248" y="1408" type="line"/>
      <point x="248" y="80" type="line"/>
      <point x="59" y="80" type="line" smooth="yes"/>
      <point x="39" y="80"/>
      <point x="31" y="70"/>
      <point x="31" y="40" type="curve" smooth="yes"/>
      <point x="31" y="10"/>
      <point x="39" y="0"/>
    </contour>
  </outline>
</glyph>
<glyph name="J.cur" format="2">
  <advance width="1181"/>
  <anchor x="588" y="-1000" name="bottom"/>
  <anchor x="521" y="1424" name="top"/>
  <outline>
    <contour>
      <point x="584" y="-1020" type="curve" smooth="yes"/>
      <point x="753" y="-1020"/>
      <point x="856" y="-874"/>
      <point x="856" y="-635" type="curve" smooth="yes"/>
      <point x="856" y="-171" type="line"/>
      <point x="938" y="-100"/>
      <point x="1032" y="-26"/>
      <point x="1139" y="51" type="curve" smooth="yes"/>
      <point x="1159" y="66"/>
      <point x="1163" y="85"/>
      <point x="1148" y="106" type="curve" smooth="yes"/>
      <point x="1131" y="129"/>
      <point x="1118" y="135"/>
      <point x="1091" y="116" type="curve" smooth="yes"/>
      <point x="1005" y="55"/>
      <point x="927" y="-5"/>
      <point x="856" y="-64" type="curve"/>
      <point x="856" y="994" type="line" smooth="yes"/>
      <point x="856" y="1361"/>
      <point x="765" y="1515"/>
      <point x="549" y="1515" type="curve" smooth="yes"/>
      <point x="309" y="1515"/>
      <point x="135" y="1274"/>
      <point x="135" y="941" type="curve" smooth="yes"/>
      <point x="135" y="591"/>
      <point x="238" y="399"/>
      <point x="538" y="188" type="curve" smooth="yes"/>
      <point x="560" y="171"/>
      <point x="580" y="178"/>
      <point x="596" y="205" type="curve" smooth="yes"/>
      <point x="610" y="230"/>
      <point x="610" y="243"/>
      <point x="584" y="261" type="curve" smooth="yes"/>
      <point x="318" y="450"/>
      <point x="226" y="623"/>
      <point x="226" y="941" type="curve" smooth="yes"/>
      <point x="226" y="1225"/>
      <point x="361" y="1430"/>
      <point x="549" y="1430" type="curve" smooth="yes"/>
      <point x="704" y="1430"/>
      <point x="769" y="1301"/>
      <point x="769" y="994" type="curve" smooth="yes"/>
      <point x="769" y="-139" type="line"/>
      <point x="508" y="-375"/>
      <point x="376" y="-593"/>
      <point x="376" y="-789" type="curve" smooth="yes"/>
      <point x="376" y="-932"/>
      <point x="454" y="-1020"/>
    </contour>
    <contour>
      <point x="593" y="-935" type="curve" smooth="yes"/>
      <point x="516" y="-935"/>
      <point x="470" y="-880"/>
      <point x="470" y="-789" type="curve" smooth="yes"/>
      <point x="470" y="-621"/>
      <point x="570" y="-445"/>
      <point x="769" y="-251" type="curve"/>
      <point x="769" y="-635" type="line" smooth="yes"/>
      <point x="769" y="-821"/>
      <point x="703" y="-935"/>
    </contour>
  </outline>
</glyph>
<glyph name="J.cur.ini" format="2">
  <advance width="1005"/>
  <anchor x="588" y="-1000" name="bottom"/>
  <anchor x="1005" y="0" name="cnct"/>
  <anchor x="521" y="1424" name="top"/>
  <outline>
    <contour>
      <point x="584" y="-1020" type="curve" smooth="yes"/>
      <point x="753" y="-1020"/>
      <point x="856" y="-874"/>
      <point x="856" y="-635" type="curve" smooth="yes"/>
      <point x="856" y="994" type="line" smooth="yes"/>
      <point x="856" y="1361"/>
      <point x="765" y="1515"/>
      <point x="549" y="1515" type="curve" smooth="yes"/>
      <point x="309" y="1515"/>
      <point x="135" y="1274"/>
      <point x="135" y="941" type="curve" smooth="yes"/>
      <point x="135" y="591"/>
      <point x="238" y="399"/>
      <point x="538" y="188" type="curve" smooth="yes"/>
      <point x="560" y="171"/>
      <point x="580" y="178"/>
      <point x="596" y="205" type="curve" smooth="yes"/>
      <point x="610" y="230"/>
      <point x="610" y="243"/>
      <point x="584" y="261" type="curve" smooth="yes"/>
      <point x="318" y="450"/>
      <point x="226" y="623"/>
      <point x="226" y="941" type="curve" smooth="yes"/>
      <point x="226" y="1225"/>
      <point x="361" y="1430"/>
      <point x="549" y="1430" type="curve" smooth="yes"/>
      <point x="704" y="1430"/>
      <point x="769" y="1301"/>
      <point x="769" y="994" type="curve" smooth="yes"/>
      <point x="769" y="-635" type="line" smooth="yes"/>
      <point x="769" y="-821"/>
      <point x="703" y="-935"/>
      <point x="593" y="-935" type="curve" smooth="yes"/>
      <point x="516" y="-935"/>
      <point x="470" y="-880"/>
      <point x="470" y="-789" type="curve" smooth="yes"/>
      <point x="470" y="-739"/>
      <point x="376" y="-739"/>
      <point x="376" y="-789" type="curve" smooth="yes"/>
      <point x="376" y="-932"/>
      <point x="454" y="-1020"/>
    </contour>
  </outline>
</glyph>
<glyph name="J.dec.ini" format="2">
  <advance width="734"/>
  <anchor x="325" y="-1000" name="bottom"/>
  <anchor x="734" y="0" name="cnct"/>
  <anchor x="424" y="1424" name="top"/>
  <outline>
    <contour>
      <point x="313" y="-1020" type="curve" smooth="yes"/>
      <point x="481" y="-1020"/>
      <point x="585" y="-874"/>
      <point x="585" y="-635" type="curve" smooth="yes"/>
      <point x="585" y="1488" type="line" smooth="yes"/>
      <point x="585" y="1506"/>
      <point x="570" y="1515"/>
      <point x="541" y="1515" type="curve" smooth="yes"/>
      <point x="521" y="1515"/>
      <point x="506" y="1508"/>
      <point x="485" y="1486" type="curve" smooth="yes"/>
      <point x="461" y="1463"/>
      <point x="438" y="1439"/>
      <point x="394" y="1439" type="curve" smooth="yes"/>
      <point x="329" y="1439"/>
      <point x="280" y="1479"/>
      <point x="193" y="1479" type="curve" smooth="yes"/>
      <point x="86" y="1479"/>
      <point x="16" y="1398"/>
      <point x="16" y="1274" type="curve" smooth="yes"/>
      <point x="16" y="1253"/>
      <point x="29" y="1239"/>
      <point x="58" y="1239" type="curve" smooth="yes"/>
      <point x="90" y="1239"/>
      <point x="101" y="1254"/>
      <point x="101" y="1274" type="curve" smooth="yes"/>
      <point x="101" y="1350"/>
      <point x="141" y="1396"/>
      <point x="195" y="1396" type="curve" smooth="yes"/>
      <point x="253" y="1396"/>
      <point x="310" y="1356"/>
      <point x="385" y="1356" type="curve" smooth="yes"/>
      <point x="429" y="1356"/>
      <point x="470" y="1374"/>
      <point x="498" y="1401" type="curve"/>
      <point x="498" y="-635" type="line" smooth="yes"/>
      <point x="498" y="-821"/>
      <point x="431" y="-935"/>
      <point x="321" y="-935" type="curve" smooth="yes"/>
      <point x="245" y="-935"/>
      <point x="199" y="-880"/>
      <point x="199" y="-789" type="curve" smooth="yes"/>
      <point x="199" y="-739"/>
      <point x="105" y="-739"/>
      <point x="105" y="-789" type="curve" smooth="yes"/>
      <point x="105" y="-932"/>
      <point x="183" y="-1020"/>
    </contour>
  </outline>
</glyph>
<glyph name="K.cur" format="2">
  <advance width="1359"/>
  <guideline y="-12"/>
  <anchor x="819" y="0" name="bottom"/>
  <anchor x="819" y="1424" name="top"/>
  <outline>
    <contour>
      <point x="1154" y="-19" type="curve" smooth="yes"/>
      <point x="1228" y="-19"/>
      <point x="1305" y="29"/>
      <point x="1354" y="110" type="curve" smooth="yes"/>
      <point x="1363" y="125"/>
      <point x="1361" y="144"/>
      <point x="1344" y="158" type="curve" smooth="yes"/>
      <point x="1319" y="176"/>
      <point x="1303" y="171"/>
      <point x="1290" y="153" type="curve" smooth="yes"/>
      <point x="1249" y="93"/>
      <point x="1211" y="66"/>
      <point x="1158" y="66" type="curve" smooth="yes"/>
      <point x="1073" y="66"/>
      <point x="998" y="143"/>
      <point x="849" y="368" type="curve" smooth="yes"/>
      <point x="589" y="763" type="line"/>
      <point x="1189" y="1425" type="line" smooth="yes"/>
      <point x="1210" y="1449"/>
      <point x="1206" y="1465"/>
      <point x="1190" y="1484" type="curve" smooth="yes"/>
      <point x="1173" y="1504"/>
      <point x="1150" y="1510"/>
      <point x="1128" y="1486" type="curve" smooth="yes"/>
      <point x="505" y="798" type="line"/>
      <point x="505" y="1270" type="line" smooth="yes"/>
      <point x="505" y="1436"/>
      <point x="441" y="1520"/>
      <point x="318" y="1520" type="curve" smooth="yes"/>
      <point x="209" y="1520"/>
      <point x="126" y="1454"/>
      <point x="48" y="1296" type="curve" smooth="yes"/>
      <point x="35" y="1273"/>
      <point x="40" y="1255"/>
      <point x="66" y="1243" type="curve" smooth="yes"/>
      <point x="86" y="1233"/>
      <point x="105" y="1238"/>
      <point x="115" y="1256" type="curve" smooth="yes"/>
      <point x="185" y="1391"/>
      <point x="239" y="1438"/>
      <point x="314" y="1438" type="curve" smooth="yes"/>
      <point x="386" y="1438"/>
      <point x="418" y="1388"/>
      <point x="418" y="1270" type="curve" smooth="yes"/>
      <point x="418" y="268" type="line" smooth="yes"/>
      <point x="418" y="130"/>
      <point x="378" y="64"/>
      <point x="293" y="64" type="curve" smooth="yes"/>
      <point x="221" y="64"/>
      <point x="171" y="100"/>
      <point x="121" y="169" type="curve" smooth="yes"/>
      <point x="105" y="191"/>
      <point x="90" y="193"/>
      <point x="66" y="178" type="curve" smooth="yes"/>
      <point x="45" y="164"/>
      <point x="44" y="145"/>
      <point x="58" y="121" type="curve" smooth="yes"/>
      <point x="101" y="45"/>
      <point x="183" y="-19"/>
      <point x="289" y="-19" type="curve" smooth="yes"/>
      <point x="430" y="-19"/>
      <point x="505" y="80"/>
      <point x="505" y="255" type="curve" smooth="yes"/>
      <point x="505" y="731" type="line"/>
      <point x="790" y="296" type="line" smooth="yes"/>
      <point x="945" y="60"/>
      <point x="1034" y="-19"/>
    </contour>
  </outline>
</glyph>
<glyph name="K.cur.ini" format="2">
  <advance width="1278"/>
  <guideline y="-12"/>
  <anchor x="819" y="0" name="bottom"/>
  <anchor x="1278" y="0" name="cnct"/>
  <anchor x="819" y="1424" name="top"/>
  <outline>
    <contour>
      <point x="1203" y="-17" type="curve" smooth="yes"/>
      <point x="1253" y="-17"/>
      <point x="1271" y="58"/>
      <point x="1221" y="58" type="curve" smooth="yes"/>
      <point x="1095" y="58"/>
      <point x="1005" y="131"/>
      <point x="860" y="350" type="curve" smooth="yes"/>
      <point x="589" y="763" type="line"/>
      <point x="1189" y="1425" type="line" smooth="yes"/>
      <point x="1210" y="1449"/>
      <point x="1206" y="1465"/>
      <point x="1190" y="1484" type="curve" smooth="yes"/>
      <point x="1173" y="1504"/>
      <point x="1150" y="1510"/>
      <point x="1128" y="1486" type="curve" smooth="yes"/>
      <point x="505" y="798" type="line"/>
      <point x="505" y="1270" type="line" smooth="yes"/>
      <point x="505" y="1436"/>
      <point x="441" y="1520"/>
      <point x="318" y="1520" type="curve" smooth="yes"/>
      <point x="209" y="1520"/>
      <point x="126" y="1454"/>
      <point x="48" y="1296" type="curve" smooth="yes"/>
      <point x="35" y="1273"/>
      <point x="40" y="1255"/>
      <point x="66" y="1243" type="curve" smooth="yes"/>
      <point x="86" y="1233"/>
      <point x="105" y="1238"/>
      <point x="115" y="1256" type="curve" smooth="yes"/>
      <point x="185" y="1391"/>
      <point x="239" y="1438"/>
      <point x="314" y="1438" type="curve" smooth="yes"/>
      <point x="386" y="1438"/>
      <point x="418" y="1388"/>
      <point x="418" y="1270" type="curve" smooth="yes"/>
      <point x="418" y="268" type="line" smooth="yes"/>
      <point x="418" y="130"/>
      <point x="378" y="64"/>
      <point x="293" y="64" type="curve" smooth="yes"/>
      <point x="221" y="64"/>
      <point x="171" y="100"/>
      <point x="121" y="169" type="curve" smooth="yes"/>
      <point x="105" y="191"/>
      <point x="90" y="193"/>
      <point x="66" y="178" type="curve" smooth="yes"/>
      <point x="45" y="164"/>
      <point x="44" y="145"/>
      <point x="58" y="121" type="curve" smooth="yes"/>
      <point x="101" y="45"/>
      <point x="183" y="-19"/>
      <point x="289" y="-19" type="curve" smooth="yes"/>
      <point x="430" y="-19"/>
      <point x="505" y="80"/>
      <point x="505" y="255" type="curve" smooth="yes"/>
      <point x="505" y="731" type="line"/>
      <point x="790" y="296" type="line" smooth="yes"/>
      <point x="944" y="61"/>
      <point x="1046" y="-17"/>
    </contour>
  </outline>
</glyph>
<glyph name="K.dec.ini" format="2">
  <advance width="1426"/>
  <anchor x="928" y="0" name="bottom"/>
  <anchor x="1426" y="0" name="cnct"/>
  <anchor x="865" y="1424" name="top"/>
  <outline>
    <contour>
      <point x="1351" y="-17" type="curve" smooth="yes"/>
      <point x="1401" y="-17"/>
      <point x="1420" y="58"/>
      <point x="1370" y="58" type="curve" smooth="yes"/>
      <point x="1091" y="58"/>
      <point x="1240" y="661"/>
      <point x="863" y="770" type="curve"/>
      <point x="1155" y="895"/>
      <point x="1074" y="1433"/>
      <point x="1325" y="1433" type="curve" smooth="yes"/>
      <point x="1364" y="1433"/>
      <point x="1393" y="1425"/>
      <point x="1443" y="1404" type="curve" smooth="yes"/>
      <point x="1459" y="1396"/>
      <point x="1473" y="1404"/>
      <point x="1484" y="1430" type="curve" smooth="yes"/>
      <point x="1493" y="1451"/>
      <point x="1490" y="1466"/>
      <point x="1476" y="1475" type="curve" smooth="yes"/>
      <point x="1429" y="1500"/>
      <point x="1381" y="1513"/>
      <point x="1329" y="1513" type="curve" smooth="yes"/>
      <point x="938" y="1513"/>
      <point x="1110" y="801"/>
      <point x="695" y="801" type="curve" smooth="yes"/>
      <point x="614" y="801" type="line"/>
      <point x="614" y="1488" type="line" smooth="yes"/>
      <point x="614" y="1506"/>
      <point x="599" y="1515"/>
      <point x="570" y="1515" type="curve" smooth="yes"/>
      <point x="543" y="1515"/>
      <point x="536" y="1509"/>
      <point x="520" y="1491" type="curve" smooth="yes"/>
      <point x="490" y="1460"/>
      <point x="465" y="1444"/>
      <point x="433" y="1444" type="curve" smooth="yes"/>
      <point x="368" y="1444"/>
      <point x="314" y="1484"/>
      <point x="228" y="1484" type="curve" smooth="yes"/>
      <point x="121" y="1484"/>
      <point x="54" y="1403"/>
      <point x="54" y="1279" type="curve" smooth="yes"/>
      <point x="54" y="1258"/>
      <point x="66" y="1244"/>
      <point x="95" y="1244" type="curve" smooth="yes"/>
      <point x="128" y="1244"/>
      <point x="139" y="1259"/>
      <point x="139" y="1279" type="curve" smooth="yes"/>
      <point x="139" y="1354"/>
      <point x="176" y="1400"/>
      <point x="230" y="1400" type="curve" smooth="yes"/>
      <point x="289" y="1400"/>
      <point x="348" y="1360"/>
      <point x="423" y="1360" type="curve" smooth="yes"/>
      <point x="465" y="1360"/>
      <point x="499" y="1376"/>
      <point x="526" y="1401" type="curve"/>
      <point x="526" y="14" type="line" smooth="yes"/>
      <point x="526" y="-5"/>
      <point x="541" y="-14"/>
      <point x="570" y="-14" type="curve" smooth="yes"/>
      <point x="599" y="-14"/>
      <point x="614" y="-5"/>
      <point x="614" y="14" type="curve" smooth="yes"/>
      <point x="614" y="721" type="line"/>
      <point x="703" y="721" type="line" smooth="yes"/>
      <point x="1198" y="721"/>
      <point x="964" y="-17"/>
    </contour>
  </outline>
</glyph>
<glyph name="L.cur.ini" format="2">
  <advance width="1135"/>
  <anchor x="875" y="764" name="CAT"/>
  <anchor x="720" y="0" name="bottom"/>
  <anchor x="389" y="765" name="center"/>
  <anchor x="1135" y="0" name="cnct"/>
  <anchor x="681" y="1424" name="top"/>
  <anchor x="975" y="1488" name="topright"/>
  <outline>
    <contour>
      <point x="204" y="-21" type="curve" smooth="yes"/>
      <point x="343" y="-21"/>
      <point x="431" y="104"/>
      <point x="431" y="314" type="curve" smooth="yes"/>
      <point x="431" y="1106" type="line" smooth="yes"/>
      <point x="431" y="1321"/>
      <point x="518" y="1435"/>
      <point x="680" y="1435" type="curve" smooth="yes"/>
      <point x="798" y="1435"/>
      <point x="871" y="1369"/>
      <point x="909" y="1231" type="curve" smooth="yes"/>
      <point x="915" y="1208"/>
      <point x="933" y="1199"/>
      <point x="960" y="1208" type="curve" smooth="yes"/>
      <point x="985" y="1215"/>
      <point x="993" y="1229"/>
      <point x="984" y="1260" type="curve" smooth="yes"/>
      <point x="939" y="1426"/>
      <point x="834" y="1515"/>
      <point x="680" y="1515" type="curve" smooth="yes"/>
      <point x="460" y="1515"/>
      <point x="344" y="1373"/>
      <point x="344" y="1106" type="curve" smooth="yes"/>
      <point x="344" y="314" type="line" smooth="yes"/>
      <point x="344" y="156"/>
      <point x="290" y="63"/>
      <point x="206" y="63" type="curve" smooth="yes"/>
      <point x="160" y="63"/>
      <point x="130" y="90"/>
      <point x="130" y="131" type="curve" smooth="yes"/>
      <point x="130" y="174"/>
      <point x="166" y="204"/>
      <point x="230" y="204" type="curve" smooth="yes"/>
      <point x="459" y="204"/>
      <point x="804" y="-17"/>
      <point x="1060" y="-17" type="curve" smooth="yes"/>
      <point x="1110" y="-17"/>
      <point x="1129" y="58"/>
      <point x="1079" y="58" type="curve" smooth="yes"/>
      <point x="856" y="58"/>
      <point x="478" y="288"/>
      <point x="231" y="288" type="curve" smooth="yes"/>
      <point x="116" y="288"/>
      <point x="38" y="220"/>
      <point x="38" y="124" type="curve" smooth="yes"/>
      <point x="38" y="36"/>
      <point x="104" y="-21"/>
    </contour>
  </outline>
</glyph>
<glyph name="M.cur.ini" format="2">
  <advance width="1950"/>
  <anchor x="1010" y="0" name="bottom"/>
  <anchor x="1950" y="0" name="cnct"/>
  <anchor x="1030" y="1424" name="top"/>
  <outline>
    <contour>
      <point x="1874" y="-17" type="curve" smooth="yes"/>
      <point x="1924" y="-17"/>
      <point x="1944" y="58"/>
      <point x="1894" y="58" type="curve" smooth="yes"/>
      <point x="1753" y="58"/>
      <point x="1678" y="138"/>
      <point x="1678" y="375" type="curve" smooth="yes"/>
      <point x="1678" y="1129" type="line" smooth="yes"/>
      <point x="1678" y="1381"/>
      <point x="1576" y="1515"/>
      <point x="1384" y="1515" type="curve" smooth="yes"/>
      <point x="1206" y="1515"/>
      <point x="1066" y="1386"/>
      <point x="1025" y="1181" type="curve"/>
      <point x="1058" y="1081" type="line"/>
      <point x="1091" y="1298"/>
      <point x="1218" y="1430"/>
      <point x="1375" y="1430" type="curve" smooth="yes"/>
      <point x="1521" y="1430"/>
      <point x="1590" y="1321"/>
      <point x="1590" y="1129" type="curve" smooth="yes"/>
      <point x="1590" y="373" type="line" smooth="yes"/>
      <point x="1590" y="99"/>
      <point x="1695" y="-17"/>
    </contour>
    <contour>
      <point x="399" y="-14" type="curve" smooth="yes"/>
      <point x="428" y="-14"/>
      <point x="443" y="-5"/>
      <point x="443" y="14" type="curve" smooth="yes"/>
      <point x="443" y="1270" type="line" smooth="yes"/>
      <point x="443" y="1436"/>
      <point x="379" y="1520"/>
      <point x="255" y="1520" type="curve" smooth="yes"/>
      <point x="146" y="1520"/>
      <point x="64" y="1454"/>
      <point x="-15" y="1296" type="curve" smooth="yes"/>
      <point x="-27" y="1273"/>
      <point x="-22" y="1255"/>
      <point x="4" y="1243" type="curve" smooth="yes"/>
      <point x="24" y="1233"/>
      <point x="43" y="1238"/>
      <point x="53" y="1256" type="curve" smooth="yes"/>
      <point x="123" y="1391"/>
      <point x="176" y="1438"/>
      <point x="251" y="1438" type="curve" smooth="yes"/>
      <point x="324" y="1438"/>
      <point x="355" y="1388"/>
      <point x="355" y="1270" type="curve" smooth="yes"/>
      <point x="355" y="14" type="line" smooth="yes"/>
      <point x="355" y="-5"/>
      <point x="370" y="-14"/>
    </contour>
    <contour>
      <point x="1016" y="-14" type="curve" smooth="yes"/>
      <point x="1045" y="-14"/>
      <point x="1060" y="-5"/>
      <point x="1060" y="14" type="curve" smooth="yes"/>
      <point x="1060" y="1129" type="line" smooth="yes"/>
      <point x="1060" y="1381"/>
      <point x="959" y="1515"/>
      <point x="766" y="1515" type="curve" smooth="yes"/>
      <point x="590" y="1515"/>
      <point x="449" y="1386"/>
      <point x="408" y="1181" type="curve"/>
      <point x="440" y="1081" type="line"/>
      <point x="474" y="1298"/>
      <point x="600" y="1430"/>
      <point x="758" y="1430" type="curve" smooth="yes"/>
      <point x="904" y="1430"/>
      <point x="973" y="1321"/>
      <point x="973" y="1129" type="curve" smooth="yes"/>
      <point x="973" y="14" type="line" smooth="yes"/>
      <point x="973" y="-5"/>
      <point x="988" y="-14"/>
    </contour>
  </outline>
</glyph>
<glyph name="N.cur" format="2">
  <advance width="1496"/>
  <anchor x="749" y="0" name="bottom"/>
  <anchor x="768" y="1424" name="top"/>
  <outline>
    <contour>
      <point x="1261" y="-19" type="curve" smooth="yes"/>
      <point x="1341" y="-19"/>
      <point x="1414" y="26"/>
      <point x="1465" y="123" type="curve" smooth="yes"/>
      <point x="1476" y="143"/>
      <point x="1475" y="161"/>
      <point x="1450" y="178" type="curve" smooth="yes"/>
      <point x="1431" y="190"/>
      <point x="1410" y="188"/>
      <point x="1398" y="166" type="curve" smooth="yes"/>
      <point x="1358" y="99"/>
      <point x="1320" y="68"/>
      <point x="1268" y="68" type="curve" smooth="yes"/>
      <point x="1194" y="68"/>
      <point x="1159" y="129"/>
      <point x="1159" y="250" type="curve" smooth="yes"/>
      <point x="1159" y="1104" type="line" smooth="yes"/>
      <point x="1159" y="1373"/>
      <point x="1040" y="1515"/>
      <point x="816" y="1515" type="curve" smooth="yes"/>
      <point x="650" y="1515"/>
      <point x="512" y="1427"/>
      <point x="443" y="1282" type="curve"/>
      <point x="443" y="1284" type="line" smooth="yes"/>
      <point x="443" y="1401"/>
      <point x="399" y="1520"/>
      <point x="255" y="1520" type="curve" smooth="yes"/>
      <point x="146" y="1520"/>
      <point x="64" y="1454"/>
      <point x="-15" y="1296" type="curve" smooth="yes"/>
      <point x="-27" y="1273"/>
      <point x="-22" y="1255"/>
      <point x="4" y="1243" type="curve" smooth="yes"/>
      <point x="24" y="1233"/>
      <point x="43" y="1238"/>
      <point x="53" y="1256" type="curve" smooth="yes"/>
      <point x="123" y="1391"/>
      <point x="176" y="1438"/>
      <point x="251" y="1438" type="curve" smooth="yes"/>
      <point x="324" y="1438"/>
      <point x="355" y="1388"/>
      <point x="355" y="1270" type="curve" smooth="yes"/>
      <point x="355" y="14" type="line" smooth="yes"/>
      <point x="355" y="-5"/>
      <point x="370" y="-14"/>
      <point x="399" y="-14" type="curve" smooth="yes"/>
      <point x="428" y="-14"/>
      <point x="443" y="-5"/>
      <point x="443" y="14" type="curve" smooth="yes"/>
      <point x="443" y="1097" type="line"/>
      <point x="486" y="1304"/>
      <point x="629" y="1430"/>
      <point x="808" y="1430" type="curve" smooth="yes"/>
      <point x="986" y="1430"/>
      <point x="1071" y="1313"/>
      <point x="1071" y="1104" type="curve" smooth="yes"/>
      <point x="1071" y="248" type="line" smooth="yes"/>
      <point x="1071" y="71"/>
      <point x="1134" y="-19"/>
    </contour>
  </outline>
</glyph>
<glyph name="O.cur" format="2">
  <advance width="1440"/>
  <anchor x="718" y="0" name="bottom"/>
  <anchor x="718" y="744" name="center"/>
  <anchor x="918" y="11" name="ogonek"/>
  <anchor x="718" y="1424" name="top"/>
  <anchor x="954" y="1488" name="topright"/>
  <outline>
    <contour>
      <point x="723" y="-19" type="curve" smooth="yes"/>
      <point x="1078" y="-19"/>
      <point x="1310" y="285"/>
      <point x="1310" y="749" type="curve" smooth="yes"/>
      <point x="1310" y="1229"/>
      <point x="1133" y="1513"/>
      <point x="833" y="1513" type="curve" smooth="yes"/>
      <point x="655" y="1513"/>
      <point x="516" y="1395"/>
      <point x="454" y="1191" type="curve" smooth="yes"/>
      <point x="445" y="1160"/>
      <point x="451" y="1146"/>
      <point x="474" y="1138" type="curve" smooth="yes"/>
      <point x="499" y="1128"/>
      <point x="514" y="1131"/>
      <point x="525" y="1159" type="curve" smooth="yes"/>
      <point x="599" y="1349"/>
      <point x="693" y="1428"/>
      <point x="828" y="1428" type="curve" smooth="yes"/>
      <point x="1068" y="1428"/>
      <point x="1216" y="1175"/>
      <point x="1216" y="749" type="curve" smooth="yes"/>
      <point x="1216" y="336"/>
      <point x="1021" y="66"/>
      <point x="723" y="66" type="curve" smooth="yes"/>
      <point x="421" y="66"/>
      <point x="224" y="336"/>
      <point x="224" y="750" type="curve" smooth="yes"/>
      <point x="224" y="1015"/>
      <point x="301" y="1223"/>
      <point x="444" y="1346" type="curve" smooth="yes"/>
      <point x="465" y="1364"/>
      <point x="468" y="1384"/>
      <point x="450" y="1405" type="curve" smooth="yes"/>
      <point x="428" y="1434"/>
      <point x="409" y="1428"/>
      <point x="384" y="1408" type="curve" smooth="yes"/>
      <point x="219" y="1278"/>
      <point x="130" y="1021"/>
      <point x="130" y="749" type="curve" smooth="yes"/>
      <point x="130" y="285"/>
      <point x="366" y="-19"/>
    </contour>
  </outline>
</glyph>
<glyph name="OE.cur.ini" format="2">
  <advance width="1990"/>
  <anchor x="1990" y="0" name="cnct"/>
  <anchor x="1184" y="1424" name="top"/>
  <outline>
    <contour>
      <point x="685" y="-19" type="curve" smooth="yes"/>
      <point x="1016" y="-19"/>
      <point x="1234" y="285"/>
      <point x="1234" y="749" type="curve" smooth="yes"/>
      <point x="1234" y="1229"/>
      <point x="1080" y="1513"/>
      <point x="820" y="1513" type="curve" smooth="yes"/>
      <point x="649" y="1513"/>
      <point x="516" y="1395"/>
      <point x="454" y="1191" type="curve" smooth="yes"/>
      <point x="445" y="1160"/>
      <point x="451" y="1146"/>
      <point x="474" y="1138" type="curve" smooth="yes"/>
      <point x="499" y="1128"/>
      <point x="514" y="1131"/>
      <point x="525" y="1159" type="curve" smooth="yes"/>
      <point x="599" y="1348"/>
      <point x="685" y="1428"/>
      <point x="815" y="1428" type="curve" smooth="yes"/>
      <point x="1016" y="1428"/>
      <point x="1140" y="1175"/>
      <point x="1140" y="749" type="curve" smooth="yes"/>
      <point x="1140" y="336"/>
      <point x="960" y="66"/>
      <point x="685" y="66" type="curve" smooth="yes"/>
      <point x="406" y="66"/>
      <point x="224" y="336"/>
      <point x="224" y="750" type="curve" smooth="yes"/>
      <point x="224" y="1015"/>
      <point x="301" y="1223"/>
      <point x="444" y="1346" type="curve" smooth="yes"/>
      <point x="465" y="1364"/>
      <point x="468" y="1384"/>
      <point x="450" y="1405" type="curve" smooth="yes"/>
      <point x="428" y="1434"/>
      <point x="409" y="1428"/>
      <point x="384" y="1408" type="curve" smooth="yes"/>
      <point x="219" y="1278"/>
      <point x="130" y="1021"/>
      <point x="130" y="749" type="curve" smooth="yes"/>
      <point x="130" y="285"/>
      <point x="351" y="-19"/>
    </contour>
    <contour>
      <point x="1564" y="-17" type="curve" smooth="yes"/>
      <point x="1604" y="-17"/>
      <point x="1604" y="58"/>
      <point x="1564" y="58" type="curve" smooth="yes"/>
      <point x="1346" y="58"/>
      <point x="1203" y="191"/>
      <point x="1203" y="396" type="curve" smooth="yes"/>
      <point x="1203" y="599"/>
      <point x="1360" y="746"/>
      <point x="1580" y="746" type="curve" smooth="yes"/>
      <point x="1764" y="746" type="line" smooth="yes"/>
      <point x="1784" y="746"/>
      <point x="1791" y="756"/>
      <point x="1791" y="786" type="curve" smooth="yes"/>
      <point x="1791" y="816"/>
      <point x="1784" y="826"/>
      <point x="1764" y="826" type="curve" smooth="yes"/>
      <point x="1605" y="826" type="line" smooth="yes"/>
      <point x="1433" y="826"/>
      <point x="1325" y="946"/>
      <point x="1325" y="1141" type="curve" smooth="yes"/>
      <point x="1325" y="1309"/>
      <point x="1436" y="1430"/>
      <point x="1591" y="1430" type="curve" smooth="yes"/>
      <point x="1694" y="1430"/>
      <point x="1785" y="1381"/>
      <point x="1866" y="1305" type="curve" smooth="yes"/>
      <point x="1889" y="1284"/>
      <point x="1904" y="1278"/>
      <point x="1928" y="1299" type="curve" smooth="yes"/>
      <point x="1951" y="1321"/>
      <point x="1941" y="1343"/>
      <point x="1924" y="1361" type="curve" smooth="yes"/>
      <point x="1834" y="1458"/>
      <point x="1724" y="1515"/>
      <point x="1596" y="1515" type="curve" smooth="yes"/>
      <point x="1385" y="1515"/>
      <point x="1231" y="1358"/>
      <point x="1231" y="1139" type="curve" smooth="yes"/>
      <point x="1231" y="970"/>
      <point x="1311" y="840"/>
      <point x="1434" y="793" type="curve"/>
      <point x="1246" y="751"/>
      <point x="1109" y="579"/>
      <point x="1109" y="390" type="curve" smooth="yes"/>
      <point x="1109" y="144"/>
      <point x="1289" y="-17"/>
    </contour>
  </outline>
</glyph>
<glyph name="Q.dec_pt.ini" format="2">
  <advance width="1100"/>
  <anchor x="1100" y="0" name="cnct"/>
  <outline>
    <contour>
      <point x="883" y="997" type="curve"/>
      <point x="883" y="716" type="line" smooth="yes"/>
      <point x="883" y="333"/>
      <point x="735" y="54"/>
      <point x="533" y="54" type="curve" smooth="yes"/>
      <point x="474" y="54"/>
      <point x="431" y="88"/>
      <point x="431" y="136" type="curve" smooth="yes"/>
      <point x="431" y="183"/>
      <point x="460" y="211"/>
      <point x="513" y="211" type="curve" smooth="yes"/>
      <point x="688" y="211"/>
      <point x="795" y="-17"/>
      <point x="1025" y="-17" type="curve" smooth="yes"/>
      <point x="1075" y="-17"/>
      <point x="1094" y="58"/>
      <point x="1044" y="58" type="curve" smooth="yes"/>
      <point x="843" y="58"/>
      <point x="744" y="289"/>
      <point x="511" y="289" type="curve" smooth="yes"/>
      <point x="416" y="289"/>
      <point x="350" y="231"/>
      <point x="350" y="139" type="curve" smooth="yes"/>
      <point x="350" y="40"/>
      <point x="425" y="-21"/>
      <point x="528" y="-21" type="curve" smooth="yes"/>
      <point x="793" y="-21"/>
      <point x="970" y="289"/>
      <point x="970" y="716" type="curve" smooth="yes"/>
      <point x="970" y="1239" type="line" smooth="yes"/>
      <point x="970" y="1256"/>
      <point x="955" y="1266"/>
      <point x="926" y="1266" type="curve" smooth="yes"/>
      <point x="898" y="1266"/>
      <point x="883" y="1258"/>
      <point x="883" y="1239" type="curve"/>
      <point x="811" y="876"/>
      <point x="641" y="751"/>
      <point x="498" y="751" type="curve" smooth="yes"/>
      <point x="348" y="751"/>
      <point x="283" y="871"/>
      <point x="283" y="1059" type="curve" smooth="yes"/>
      <point x="283" y="1245"/>
      <point x="389" y="1431"/>
      <point x="531" y="1431" type="curve" smooth="yes"/>
      <point x="590" y="1431"/>
      <point x="631" y="1396"/>
      <point x="631" y="1321" type="curve" smooth="yes"/>
      <point x="631" y="1209"/>
      <point x="516" y="1118"/>
      <point x="364" y="1118" type="curve" smooth="yes"/>
      <point x="270" y="1118"/>
      <point x="175" y="1146"/>
      <point x="110" y="1178" type="curve" smooth="yes"/>
      <point x="89" y="1188"/>
      <point x="69" y="1183"/>
      <point x="58" y="1156" type="curve" smooth="yes"/>
      <point x="45" y="1126"/>
      <point x="55" y="1114"/>
      <point x="78" y="1103" type="curve" smooth="yes"/>
      <point x="140" y="1070"/>
      <point x="233" y="1038"/>
      <point x="360" y="1038" type="curve" smooth="yes"/>
      <point x="559" y="1038"/>
      <point x="723" y="1160"/>
      <point x="723" y="1324" type="curve" smooth="yes"/>
      <point x="723" y="1450"/>
      <point x="645" y="1515"/>
      <point x="533" y="1515" type="curve" smooth="yes"/>
      <point x="341" y="1515"/>
      <point x="191" y="1291"/>
      <point x="191" y="1059" type="curve" smooth="yes"/>
      <point x="191" y="823"/>
      <point x="301" y="664"/>
      <point x="486" y="664" type="curve" smooth="yes"/>
      <point x="637" y="664"/>
      <point x="791" y="759"/>
    </contour>
  </outline>
</glyph>
<glyph name="R.cur.ini" format="2">
  <advance width="1376"/>
  <guideline y="-13"/>
  <anchor x="780" y="0" name="bottom"/>
  <anchor x="1378" y="0" name="cnct"/>
  <anchor x="741" y="1424" name="top"/>
  <outline>
    <contour>
      <point x="1301" y="-17" type="curve" smooth="yes"/>
      <point x="1351" y="-17"/>
      <point x="1370" y="58"/>
      <point x="1320" y="58" type="curve" smooth="yes"/>
      <point x="1186" y="58"/>
      <point x="1099" y="123"/>
      <point x="983" y="331" type="curve" smooth="yes"/>
      <point x="878" y="519"/>
      <point x="828" y="605"/>
      <point x="795" y="673" type="curve"/>
      <point x="1029" y="735"/>
      <point x="1198" y="930"/>
      <point x="1198" y="1146" type="curve" smooth="yes"/>
      <point x="1198" y="1374"/>
      <point x="1018" y="1515"/>
      <point x="700" y="1515" type="curve" smooth="yes"/>
      <point x="404" y="1515"/>
      <point x="184" y="1406"/>
      <point x="44" y="1223" type="curve" smooth="yes"/>
      <point x="33" y="1209"/>
      <point x="31" y="1190"/>
      <point x="51" y="1174" type="curve" smooth="yes"/>
      <point x="71" y="1158"/>
      <point x="91" y="1158"/>
      <point x="103" y="1171" type="curve" smooth="yes"/>
      <point x="241" y="1344"/>
      <point x="419" y="1430"/>
      <point x="700" y="1430" type="curve" smooth="yes"/>
      <point x="959" y="1430"/>
      <point x="1104" y="1319"/>
      <point x="1104" y="1140" type="curve" smooth="yes"/>
      <point x="1104" y="950"/>
      <point x="956" y="786"/>
      <point x="754" y="743" type="curve"/>
      <point x="733" y="774"/>
      <point x="693" y="790"/>
      <point x="658" y="790" type="curve" smooth="yes"/>
      <point x="619" y="790"/>
      <point x="586" y="771"/>
      <point x="586" y="728" type="curve" smooth="yes"/>
      <point x="586" y="680"/>
      <point x="641" y="646"/>
      <point x="708" y="650" type="curve"/>
      <point x="766" y="534"/>
      <point x="808" y="461"/>
      <point x="906" y="290" type="curve" smooth="yes"/>
      <point x="1035" y="66"/>
      <point x="1144" y="-17"/>
    </contour>
    <contour>
      <point x="289" y="-19" type="curve" smooth="yes"/>
      <point x="430" y="-19"/>
      <point x="505" y="80"/>
      <point x="505" y="255" type="curve" smooth="yes"/>
      <point x="505" y="1243" type="line" smooth="yes"/>
      <point x="505" y="1261"/>
      <point x="490" y="1270"/>
      <point x="461" y="1270" type="curve" smooth="yes"/>
      <point x="433" y="1270"/>
      <point x="418" y="1261"/>
      <point x="418" y="1243" type="curve" smooth="yes"/>
      <point x="418" y="268" type="line" smooth="yes"/>
      <point x="418" y="130"/>
      <point x="378" y="64"/>
      <point x="293" y="64" type="curve" smooth="yes"/>
      <point x="221" y="64"/>
      <point x="171" y="100"/>
      <point x="121" y="169" type="curve" smooth="yes"/>
      <point x="105" y="191"/>
      <point x="90" y="193"/>
      <point x="66" y="178" type="curve" smooth="yes"/>
      <point x="45" y="164"/>
      <point x="44" y="145"/>
      <point x="58" y="121" type="curve" smooth="yes"/>
      <point x="101" y="45"/>
      <point x="183" y="-19"/>
    </contour>
  </outline>
</glyph>
<glyph name="S.dec" format="2">
  <advance width="1334"/>
  <anchor x="434" y="0" name="bottom"/>
  <anchor x="948" y="1488" name="top"/>
  <outline>
    <contour>
      <point x="430" y="-19" type="curve" smooth="yes"/>
      <point x="625" y="-19"/>
      <point x="725" y="103"/>
      <point x="725" y="341" type="curve" smooth="yes"/>
      <point x="725" y="1061" type="line" smooth="yes"/>
      <point x="725" y="1305"/>
      <point x="814" y="1433"/>
      <point x="959" y="1433" type="curve" smooth="yes"/>
      <point x="1064" y="1433"/>
      <point x="1139" y="1365"/>
      <point x="1139" y="1238" type="curve" smooth="yes"/>
      <point x="1139" y="979"/>
      <point x="918" y="848"/>
      <point x="635" y="848" type="curve" smooth="yes"/>
      <point x="423" y="848"/>
      <point x="245" y="903"/>
      <point x="110" y="1013" type="curve" smooth="yes"/>
      <point x="95" y="1024"/>
      <point x="78" y="1024"/>
      <point x="60" y="1000" type="curve" smooth="yes"/>
      <point x="43" y="975"/>
      <point x="49" y="959"/>
      <point x="65" y="946" type="curve" smooth="yes"/>
      <point x="228" y="823"/>
      <point x="419" y="766"/>
      <point x="631" y="766" type="curve" smooth="yes"/>
      <point x="964" y="766"/>
      <point x="1230" y="929"/>
      <point x="1230" y="1238" type="curve" smooth="yes"/>
      <point x="1230" y="1418"/>
      <point x="1115" y="1515"/>
      <point x="965" y="1515" type="curve" smooth="yes"/>
      <point x="761" y="1515"/>
      <point x="638" y="1356"/>
      <point x="638" y="1061" type="curve" smooth="yes"/>
      <point x="638" y="341" type="line" smooth="yes"/>
      <point x="638" y="158"/>
      <point x="569" y="64"/>
      <point x="433" y="64" type="curve" smooth="yes"/>
      <point x="360" y="64"/>
      <point x="291" y="94"/>
      <point x="230" y="153" type="curve" smooth="yes"/>
      <point x="213" y="170"/>
      <point x="194" y="169"/>
      <point x="175" y="149" type="curve" smooth="yes"/>
      <point x="155" y="128"/>
      <point x="155" y="108"/>
      <point x="173" y="90" type="curve" smooth="yes"/>
      <point x="241" y="18"/>
      <point x="328" y="-19"/>
    </contour>
  </outline>
</glyph>
<glyph name="T.cur" format="2">
  <advance width="1118"/>
  <anchor x="680" y="0" name="bottom"/>
  <anchor x="400" y="744" name="center"/>
  <anchor x="619" y="1424" name="top"/>
  <outline>
    <contour>
      <point x="704" y="-19" type="curve" smooth="yes"/>
      <point x="820" y="-19"/>
      <point x="949" y="43"/>
      <point x="1028" y="164" type="curve" smooth="yes"/>
      <point x="1043" y="186"/>
      <point x="1039" y="205"/>
      <point x="1018" y="220" type="curve" smooth="yes"/>
      <point x="998" y="234"/>
      <point x="980" y="234"/>
      <point x="963" y="210" type="curve" smooth="yes"/>
      <point x="896" y="121"/>
      <point x="809" y="66"/>
      <point x="713" y="66" type="curve" smooth="yes"/>
      <point x="530" y="66"/>
      <point x="421" y="239"/>
      <point x="421" y="520" type="curve" smooth="yes"/>
      <point x="421" y="788"/>
      <point x="535" y="1119"/>
      <point x="711" y="1408" type="curve"/>
      <point x="1079" y="1408" type="line" smooth="yes"/>
      <point x="1099" y="1408"/>
      <point x="1106" y="1418"/>
      <point x="1106" y="1448" type="curve" smooth="yes"/>
      <point x="1106" y="1478"/>
      <point x="1099" y="1488"/>
      <point x="1079" y="1488" type="curve" smooth="yes"/>
      <point x="368" y="1488" type="line" smooth="yes"/>
      <point x="160" y="1488"/>
      <point x="48" y="1406"/>
      <point x="14" y="1256" type="curve" smooth="yes"/>
      <point x="9" y="1231"/>
      <point x="14" y="1218"/>
      <point x="41" y="1210" type="curve" smooth="yes"/>
      <point x="70" y="1203"/>
      <point x="84" y="1211"/>
      <point x="89" y="1233" type="curve" smooth="yes"/>
      <point x="119" y="1358"/>
      <point x="193" y="1408"/>
      <point x="368" y="1408" type="curve" smooth="yes"/>
      <point x="613" y="1408" type="line"/>
      <point x="436" y="1119"/>
      <point x="328" y="793"/>
      <point x="328" y="518" type="curve" smooth="yes"/>
      <point x="328" y="188"/>
      <point x="468" y="-19"/>
    </contour>
  </outline>
</glyph>
<glyph name="T.cur_locl" format="2">
  <advance width="1430"/>
  <anchor x="813" y="0" name="bottom"/>
  <anchor x="539" y="659" name="center"/>
  <anchor x="813" y="1424" name="top"/>
  <outline>
    <contour>
      <point x="823" y="-17" type="curve" smooth="yes"/>
      <point x="1035" y="-17"/>
      <point x="1198" y="93"/>
      <point x="1314" y="274" type="curve" smooth="yes"/>
      <point x="1328" y="296"/>
      <point x="1323" y="314"/>
      <point x="1299" y="328" type="curve" smooth="yes"/>
      <point x="1278" y="340"/>
      <point x="1259" y="336"/>
      <point x="1245" y="315" type="curve" smooth="yes"/>
      <point x="1151" y="168"/>
      <point x="1006" y="68"/>
      <point x="829" y="68" type="curve" smooth="yes"/>
      <point x="616" y="68"/>
      <point x="488" y="226"/>
      <point x="488" y="486" type="curve" smooth="yes"/>
      <point x="488" y="533"/>
      <point x="493" y="576"/>
      <point x="501" y="618" type="curve"/>
      <point x="859" y="618" type="line" smooth="yes"/>
      <point x="876" y="618"/>
      <point x="884" y="631"/>
      <point x="884" y="658" type="curve" smooth="yes"/>
      <point x="884" y="684"/>
      <point x="876" y="698"/>
      <point x="859" y="698" type="curve" smooth="yes"/>
      <point x="526" y="698" type="line"/>
      <point x="646" y="1000"/>
      <point x="1021" y="1146"/>
      <point x="1314" y="1420" type="curve" smooth="yes"/>
      <point x="1330" y="1435"/>
      <point x="1329" y="1453"/>
      <point x="1311" y="1474" type="curve" smooth="yes"/>
      <point x="1295" y="1493"/>
      <point x="1278" y="1494"/>
      <point x="1260" y="1479" type="curve" smooth="yes"/>
      <point x="1193" y="1423"/>
      <point x="1078" y="1390"/>
      <point x="946" y="1390" type="curve" smooth="yes"/>
      <point x="728" y="1390"/>
      <point x="603" y="1515"/>
      <point x="403" y="1515" type="curve" smooth="yes"/>
      <point x="213" y="1515"/>
      <point x="96" y="1390"/>
      <point x="96" y="1185" type="curve" smooth="yes"/>
      <point x="96" y="1164"/>
      <point x="111" y="1151"/>
      <point x="139" y="1151" type="curve" smooth="yes"/>
      <point x="168" y="1151"/>
      <point x="181" y="1164"/>
      <point x="181" y="1185" type="curve" smooth="yes"/>
      <point x="181" y="1338"/>
      <point x="265" y="1430"/>
      <point x="403" y="1430" type="curve" smooth="yes"/>
      <point x="566" y="1430"/>
      <point x="725" y="1305"/>
      <point x="925" y="1305" type="curve" smooth="yes"/>
      <point x="980" y="1305"/>
      <point x="1033" y="1314"/>
      <point x="1079" y="1330" type="curve"/>
      <point x="824" y="1139"/>
      <point x="528" y="981"/>
      <point x="429" y="698" type="curve"/>
      <point x="218" y="698" type="line" smooth="yes"/>
      <point x="200" y="698"/>
      <point x="193" y="684"/>
      <point x="193" y="658" type="curve" smooth="yes"/>
      <point x="193" y="631"/>
      <point x="200" y="618"/>
      <point x="218" y="618" type="curve" smooth="yes"/>
      <point x="406" y="618" type="line"/>
      <point x="399" y="576"/>
      <point x="394" y="533"/>
      <point x="394" y="486" type="curve" smooth="yes"/>
      <point x="394" y="174"/>
      <point x="556" y="-17"/>
    </contour>
  </outline>
</glyph>
<glyph name="T.cur_locl.ini" format="2">
  <advance width="1055"/>
  <anchor x="813" y="0" name="bottom"/>
  <anchor x="539" y="659" name="center"/>
  <anchor x="1055" y="0" name="cnct"/>
  <anchor x="813" y="1424" name="top"/>
  <outline>
    <contour>
      <point x="874" y="-17" type="curve" smooth="yes"/>
      <point x="924" y="-17"/>
      <point x="925" y="58"/>
      <point x="875" y="58" type="curve" smooth="yes"/>
      <point x="610" y="58"/>
      <point x="448" y="211"/>
      <point x="448" y="461" type="curve" smooth="yes"/>
      <point x="448" y="518"/>
      <point x="454" y="569"/>
      <point x="465" y="618" type="curve"/>
      <point x="819" y="618" type="line" smooth="yes"/>
      <point x="836" y="618"/>
      <point x="844" y="631"/>
      <point x="844" y="658" type="curve" smooth="yes"/>
      <point x="844" y="684"/>
      <point x="836" y="698"/>
      <point x="819" y="698" type="curve" smooth="yes"/>
      <point x="492" y="698" type="line"/>
      <point x="612" y="994"/>
      <point x="831" y="1146"/>
      <point x="1130" y="1420" type="curve" smooth="yes"/>
      <point x="1146" y="1435"/>
      <point x="1145" y="1453"/>
      <point x="1127" y="1474" type="curve" smooth="yes"/>
      <point x="1111" y="1493"/>
      <point x="1094" y="1494"/>
      <point x="1076" y="1479" type="curve" smooth="yes"/>
      <point x="1011" y="1424"/>
      <point x="905" y="1390"/>
      <point x="777" y="1390" type="curve" smooth="yes"/>
      <point x="616" y="1390"/>
      <point x="531" y="1515"/>
      <point x="383" y="1515" type="curve" smooth="yes"/>
      <point x="205" y="1515"/>
      <point x="96" y="1390"/>
      <point x="96" y="1185" type="curve" smooth="yes"/>
      <point x="96" y="1164"/>
      <point x="111" y="1151"/>
      <point x="139" y="1151" type="curve" smooth="yes"/>
      <point x="168" y="1151"/>
      <point x="181" y="1164"/>
      <point x="181" y="1185" type="curve" smooth="yes"/>
      <point x="181" y="1338"/>
      <point x="257" y="1430"/>
      <point x="383" y="1430" type="curve" smooth="yes"/>
      <point x="502" y="1430"/>
      <point x="610" y="1305"/>
      <point x="776" y="1305" type="curve" smooth="yes"/>
      <point x="823" y="1305"/>
      <point x="872" y="1314"/>
      <point x="920" y="1331" type="curve"/>
      <point x="720" y="1165"/>
      <point x="499" y="976"/>
      <point x="393" y="698" type="curve"/>
      <point x="178" y="698" type="line" smooth="yes"/>
      <point x="160" y="698"/>
      <point x="153" y="684"/>
      <point x="153" y="658" type="curve" smooth="yes"/>
      <point x="153" y="631"/>
      <point x="160" y="618"/>
      <point x="178" y="618" type="curve" smooth="yes"/>
      <point x="368" y="618" type="line"/>
      <point x="359" y="569"/>
      <point x="354" y="518"/>
      <point x="354" y="461" type="curve" smooth="yes"/>
      <point x="354" y="164"/>
      <point x="551" y="-17"/>
    </contour>
  </outline>
</glyph>
<glyph name="T.dec" format="2">
  <advance width="1118"/>
  <anchor x="427" y="0" name="bottom"/>
  <anchor x="599" y="744" name="center"/>
  <anchor x="599" y="1424" name="top"/>
  <outline>
    <contour>
      <point x="426" y="-19" type="curve" smooth="yes"/>
      <point x="568" y="-19"/>
      <point x="643" y="80"/>
      <point x="643" y="255" type="curve" smooth="yes"/>
      <point x="643" y="1408" type="line"/>
      <point x="1079" y="1408" type="line" smooth="yes"/>
      <point x="1099" y="1408"/>
      <point x="1106" y="1418"/>
      <point x="1106" y="1448" type="curve" smooth="yes"/>
      <point x="1106" y="1478"/>
      <point x="1099" y="1488"/>
      <point x="1079" y="1488" type="curve" smooth="yes"/>
      <point x="368" y="1488" type="line" smooth="yes"/>
      <point x="160" y="1488"/>
      <point x="48" y="1406"/>
      <point x="14" y="1256" type="curve" smooth="yes"/>
      <point x="9" y="1231"/>
      <point x="14" y="1218"/>
      <point x="41" y="1210" type="curve" smooth="yes"/>
      <point x="70" y="1203"/>
      <point x="84" y="1211"/>
      <point x="89" y="1233" type="curve" smooth="yes"/>
      <point x="119" y="1358"/>
      <point x="193" y="1408"/>
      <point x="368" y="1408" type="curve" smooth="yes"/>
      <point x="555" y="1408" type="line"/>
      <point x="555" y="268" type="line" smooth="yes"/>
      <point x="555" y="130"/>
      <point x="515" y="64"/>
      <point x="430" y="64" type="curve" smooth="yes"/>
      <point x="359" y="64"/>
      <point x="309" y="100"/>
      <point x="259" y="169" type="curve" smooth="yes"/>
      <point x="243" y="191"/>
      <point x="228" y="193"/>
      <point x="204" y="178" type="curve" smooth="yes"/>
      <point x="183" y="164"/>
      <point x="181" y="145"/>
      <point x="195" y="121" type="curve" smooth="yes"/>
      <point x="239" y="45"/>
      <point x="320" y="-19"/>
    </contour>
  </outline>
</glyph>
<glyph name="U.cur" format="2">
  <advance width="1478"/>
  <anchor x="720" y="0" name="bottom"/>
  <anchor x="1330" y="21" name="ogonek"/>
  <anchor x="739" y="1424" name="top"/>
  <anchor x="1095" y="1509" name="topright"/>
  <outline>
    <contour>
      <point x="703" y="-19" type="curve" smooth="yes"/>
      <point x="859" y="-19"/>
      <point x="987" y="58"/>
      <point x="1055" y="201" type="curve"/>
      <point x="1055" y="197"/>
      <point x="1056" y="192"/>
      <point x="1056" y="188" type="curve" smooth="yes"/>
      <point x="1069" y="51"/>
      <point x="1131" y="-19"/>
      <point x="1243" y="-19" type="curve" smooth="yes"/>
      <point x="1323" y="-19"/>
      <point x="1395" y="26"/>
      <point x="1446" y="123" type="curve" smooth="yes"/>
      <point x="1458" y="143"/>
      <point x="1456" y="161"/>
      <point x="1431" y="178" type="curve" smooth="yes"/>
      <point x="1413" y="190"/>
      <point x="1391" y="188"/>
      <point x="1379" y="166" type="curve" smooth="yes"/>
      <point x="1339" y="99"/>
      <point x="1301" y="68"/>
      <point x="1249" y="68" type="curve" smooth="yes"/>
      <point x="1175" y="68"/>
      <point x="1140" y="129"/>
      <point x="1140" y="250" type="curve" smooth="yes"/>
      <point x="1140" y="1488" type="line" smooth="yes"/>
      <point x="1140" y="1506"/>
      <point x="1125" y="1515"/>
      <point x="1096" y="1515" type="curve" smooth="yes"/>
      <point x="1068" y="1515"/>
      <point x="1053" y="1506"/>
      <point x="1053" y="1488" type="curve" smooth="yes"/>
      <point x="1053" y="342" type="line"/>
      <point x="1003" y="168"/>
      <point x="876" y="66"/>
      <point x="710" y="66" type="curve" smooth="yes"/>
      <point x="536" y="66"/>
      <point x="443" y="178"/>
      <point x="443" y="399" type="curve" smooth="yes"/>
      <point x="443" y="1270" type="line" smooth="yes"/>
      <point x="443" y="1436"/>
      <point x="379" y="1520"/>
      <point x="255" y="1520" type="curve" smooth="yes"/>
      <point x="146" y="1520"/>
      <point x="64" y="1454"/>
      <point x="-15" y="1296" type="curve" smooth="yes"/>
      <point x="-27" y="1273"/>
      <point x="-22" y="1255"/>
      <point x="4" y="1243" type="curve" smooth="yes"/>
      <point x="24" y="1233"/>
      <point x="43" y="1238"/>
      <point x="53" y="1256" type="curve" smooth="yes"/>
      <point x="123" y="1391"/>
      <point x="176" y="1438"/>
      <point x="251" y="1438" type="curve" smooth="yes"/>
      <point x="324" y="1438"/>
      <point x="355" y="1388"/>
      <point x="355" y="1270" type="curve" smooth="yes"/>
      <point x="355" y="386" type="line" smooth="yes"/>
      <point x="355" y="121"/>
      <point x="485" y="-19"/>
    </contour>
  </outline>
</glyph>
<glyph name="U.cur.ini" format="2">
  <advance width="1410"/>
  <anchor x="740" y="0" name="bottom"/>
  <anchor x="1409" y="0" name="cnct"/>
  <anchor x="1330" y="21" name="ogonek"/>
  <anchor x="729" y="1424" name="top"/>
  <anchor x="1095" y="1509" name="topright"/>
  <outline>
    <contour>
      <point x="703" y="-19" type="curve" smooth="yes"/>
      <point x="894" y="-19"/>
      <point x="1043" y="96"/>
      <point x="1091" y="308" type="curve"/>
      <point x="1066" y="398" type="line"/>
      <point x="1028" y="190"/>
      <point x="893" y="66"/>
      <point x="710" y="66" type="curve" smooth="yes"/>
      <point x="536" y="66"/>
      <point x="443" y="178"/>
      <point x="443" y="399" type="curve" smooth="yes"/>
      <point x="443" y="1270" type="line" smooth="yes"/>
      <point x="443" y="1436"/>
      <point x="379" y="1520"/>
      <point x="255" y="1520" type="curve" smooth="yes"/>
      <point x="146" y="1520"/>
      <point x="64" y="1454"/>
      <point x="-15" y="1296" type="curve" smooth="yes"/>
      <point x="-27" y="1273"/>
      <point x="-22" y="1255"/>
      <point x="4" y="1243" type="curve" smooth="yes"/>
      <point x="24" y="1233"/>
      <point x="43" y="1238"/>
      <point x="53" y="1256" type="curve" smooth="yes"/>
      <point x="123" y="1391"/>
      <point x="176" y="1438"/>
      <point x="251" y="1438" type="curve" smooth="yes"/>
      <point x="324" y="1438"/>
      <point x="355" y="1388"/>
      <point x="355" y="1270" type="curve" smooth="yes"/>
      <point x="355" y="386" type="line" smooth="yes"/>
      <point x="355" y="121"/>
      <point x="485" y="-19"/>
    </contour>
    <contour>
      <point x="1334" y="-17" type="curve" smooth="yes"/>
      <point x="1384" y="-17"/>
      <point x="1404" y="58"/>
      <point x="1354" y="58" type="curve" smooth="yes"/>
      <point x="1213" y="58"/>
      <point x="1140" y="138"/>
      <point x="1140" y="375" type="curve" smooth="yes"/>
      <point x="1140" y="1488" type="line" smooth="yes"/>
      <point x="1140" y="1506"/>
      <point x="1125" y="1515"/>
      <point x="1096" y="1515" type="curve" smooth="yes"/>
      <point x="1068" y="1515"/>
      <point x="1053" y="1506"/>
      <point x="1053" y="1488" type="curve" smooth="yes"/>
      <point x="1053" y="373" type="line" smooth="yes"/>
      <point x="1053" y="99"/>
      <point x="1155" y="-17"/>
    </contour>
  </outline>
</glyph>
<glyph name="U_locl.au" format="2">
  <advance width="1360"/>
  <anchor x="669" y="0" name="bottom"/>
  <anchor x="896" y="21" name="ogonek"/>
  <anchor x="669" y="1424" name="top"/>
  <anchor x="1113" y="1509" name="topright"/>
  <outline>
    <contour>
      <point x="603" y="-19" type="curve" smooth="yes"/>
      <point x="784" y="-19"/>
      <point x="965" y="86"/>
      <point x="1056" y="288" type="curve"/>
      <point x="1056" y="14" type="line" smooth="yes"/>
      <point x="1056" y="-5"/>
      <point x="1071" y="-14"/>
      <point x="1100" y="-14" type="curve" smooth="yes"/>
      <point x="1129" y="-14"/>
      <point x="1144" y="-5"/>
      <point x="1144" y="14" type="curve" smooth="yes"/>
      <point x="1144" y="1488" type="line" smooth="yes"/>
      <point x="1144" y="1506"/>
      <point x="1129" y="1515"/>
      <point x="1100" y="1515" type="curve" smooth="yes"/>
      <point x="1071" y="1515"/>
      <point x="1056" y="1506"/>
      <point x="1056" y="1488" type="curve" smooth="yes"/>
      <point x="1056" y="520" type="line"/>
      <point x="1034" y="319"/>
      <point x="855" y="66"/>
      <point x="608" y="66" type="curve" smooth="yes"/>
      <point x="399" y="66"/>
      <point x="293" y="200"/>
      <point x="293" y="464" type="curve" smooth="yes"/>
      <point x="293" y="1488" type="line" smooth="yes"/>
      <point x="293" y="1506"/>
      <point x="278" y="1515"/>
      <point x="249" y="1515" type="curve" smooth="yes"/>
      <point x="220" y="1515"/>
      <point x="205" y="1506"/>
      <point x="205" y="1488" type="curve" smooth="yes"/>
      <point x="205" y="464" type="line" smooth="yes"/>
      <point x="205" y="144"/>
      <point x="339" y="-19"/>
    </contour>
  </outline>
</glyph>
<glyph name="W.cur" format="2">
  <advance width="1979"/>
  <anchor x="1010" y="0" name="bottom"/>
  <anchor x="1030" y="1424" name="top"/>
  <outline>
    <contour>
      <point x="679" y="-19" type="curve" smooth="yes"/>
      <point x="888" y="-19"/>
      <point x="1004" y="216"/>
      <point x="1040" y="708" type="curve"/>
      <point x="1044" y="708" type="line"/>
      <point x="1055" y="570"/>
      <point x="1070" y="454"/>
      <point x="1090" y="356" type="curve" smooth="yes"/>
      <point x="1145" y="96"/>
      <point x="1239" y="-19"/>
      <point x="1384" y="-19" type="curve" smooth="yes"/>
      <point x="1603" y="-19"/>
      <point x="1745" y="333"/>
      <point x="1745" y="870" type="curve" smooth="yes"/>
      <point x="1745" y="1090"/>
      <point x="1733" y="1235"/>
      <point x="1715" y="1343" type="curve"/>
      <point x="1754" y="1315"/>
      <point x="1865" y="1280"/>
      <point x="1926" y="1275" type="curve" smooth="yes"/>
      <point x="1948" y="1274"/>
      <point x="1961" y="1294"/>
      <point x="1961" y="1314" type="curve" smooth="yes"/>
      <point x="1961" y="1329"/>
      <point x="1958" y="1345"/>
      <point x="1938" y="1349" type="curve" smooth="yes"/>
      <point x="1834" y="1366"/>
      <point x="1729" y="1410"/>
      <point x="1701" y="1440" type="curve"/>
      <point x="1678" y="1485"/>
      <point x="1648" y="1518"/>
      <point x="1594" y="1518" type="curve" smooth="yes"/>
      <point x="1554" y="1518"/>
      <point x="1531" y="1490"/>
      <point x="1531" y="1459" type="curve" smooth="yes"/>
      <point x="1531" y="1424"/>
      <point x="1559" y="1383"/>
      <point x="1624" y="1365" type="curve"/>
      <point x="1644" y="1256"/>
      <point x="1658" y="1076"/>
      <point x="1658" y="883" type="curve" smooth="yes"/>
      <point x="1658" y="386"/>
      <point x="1551" y="61"/>
      <point x="1390" y="61" type="curve" smooth="yes"/>
      <point x="1290" y="61"/>
      <point x="1216" y="160"/>
      <point x="1163" y="380" type="curve" smooth="yes"/>
      <point x="1129" y="515"/>
      <point x="1109" y="694"/>
      <point x="1089" y="924" type="curve"/>
      <point x="1099" y="950"/>
      <point x="1103" y="980"/>
      <point x="1103" y="1013" type="curve" smooth="yes"/>
      <point x="1103" y="1070"/>
      <point x="1076" y="1110"/>
      <point x="1031" y="1110" type="curve" smooth="yes"/>
      <point x="991" y="1110"/>
      <point x="966" y="1073"/>
      <point x="966" y="1025" type="curve" smooth="yes"/>
      <point x="966" y="996"/>
      <point x="975" y="955"/>
      <point x="989" y="921" type="curve"/>
      <point x="954" y="339"/>
      <point x="860" y="61"/>
      <point x="689" y="61" type="curve" smooth="yes"/>
      <point x="579" y="61"/>
      <point x="509" y="179"/>
      <point x="478" y="404" type="curve" smooth="yes"/>
      <point x="443" y="651"/>
      <point x="428" y="863"/>
      <point x="408" y="1278" type="curve" smooth="yes"/>
      <point x="399" y="1441"/>
      <point x="350" y="1520"/>
      <point x="243" y="1520" type="curve" smooth="yes"/>
      <point x="144" y="1520"/>
      <point x="75" y="1451"/>
      <point x="-2" y="1296" type="curve" smooth="yes"/>
      <point x="-12" y="1275"/>
      <point x="-7" y="1254"/>
      <point x="16" y="1243" type="curve" smooth="yes"/>
      <point x="38" y="1233"/>
      <point x="55" y="1238"/>
      <point x="65" y="1256" type="curve" smooth="yes"/>
      <point x="133" y="1388"/>
      <point x="171" y="1438"/>
      <point x="239" y="1438" type="curve" smooth="yes"/>
      <point x="294" y="1438"/>
      <point x="314" y="1393"/>
      <point x="320" y="1275" type="curve" smooth="yes"/>
      <point x="339" y="899"/>
      <point x="356" y="639"/>
      <point x="391" y="390" type="curve" smooth="yes"/>
      <point x="429" y="120"/>
      <point x="518" y="-19"/>
    </contour>
  </outline>
</glyph>
<glyph name="W.dec" format="2">
  <advance width="2229"/>
  <anchor x="1164" y="0" name="bottom"/>
  <anchor x="1184" y="1424" name="top"/>
  <outline>
    <contour>
      <point x="801" y="-17" type="curve" smooth="yes"/>
      <point x="831" y="-17"/>
      <point x="846" y="-11"/>
      <point x="854" y="18" type="curve" smooth="yes"/>
      <point x="1181" y="1339" type="line"/>
      <point x="1255" y="904"/>
      <point x="1344" y="510"/>
      <point x="1478" y="18" type="curve" smooth="yes"/>
      <point x="1485" y="-9"/>
      <point x="1504" y="-17"/>
      <point x="1531" y="-17" type="curve" smooth="yes"/>
      <point x="1561" y="-17"/>
      <point x="1579" y="-11"/>
      <point x="1584" y="18" type="curve" smooth="yes"/>
      <point x="1769" y="1226"/>
      <point x="1843" y="1433"/>
      <point x="2040" y="1433" type="curve" smooth="yes"/>
      <point x="2085" y="1433"/>
      <point x="2134" y="1415"/>
      <point x="2173" y="1386" type="curve" smooth="yes"/>
      <point x="2191" y="1373"/>
      <point x="2209" y="1375"/>
      <point x="2223" y="1394" type="curve" smooth="yes"/>
      <point x="2239" y="1415"/>
      <point x="2241" y="1433"/>
      <point x="2218" y="1453" type="curve" smooth="yes"/>
      <point x="2173" y="1491"/>
      <point x="2105" y="1515"/>
      <point x="2040" y="1515" type="curve" smooth="yes"/>
      <point x="1785" y="1515"/>
      <point x="1695" y="1280"/>
      <point x="1530" y="150" type="curve"/>
      <point x="1406" y="611"/>
      <point x="1321" y="1004"/>
      <point x="1246" y="1466" type="curve" smooth="yes"/>
      <point x="1240" y="1505"/>
      <point x="1218" y="1515"/>
      <point x="1188" y="1515" type="curve" smooth="yes"/>
      <point x="1156" y="1515"/>
      <point x="1139" y="1504"/>
      <point x="1131" y="1471" type="curve" smooth="yes"/>
      <point x="808" y="165" type="line"/>
      <point x="674" y="1116"/>
      <point x="515" y="1515"/>
      <point x="249" y="1515" type="curve" smooth="yes"/>
      <point x="123" y="1515"/>
      <point x="46" y="1426"/>
      <point x="46" y="1281" type="curve" smooth="yes"/>
      <point x="46" y="1236"/>
      <point x="58" y="1185"/>
      <point x="76" y="1130" type="curve" smooth="yes"/>
      <point x="84" y="1108"/>
      <point x="100" y="1103"/>
      <point x="126" y="1110" type="curve" smooth="yes"/>
      <point x="151" y="1118"/>
      <point x="159" y="1131"/>
      <point x="154" y="1151" type="curve" smooth="yes"/>
      <point x="141" y="1196"/>
      <point x="131" y="1238"/>
      <point x="131" y="1280" type="curve" smooth="yes"/>
      <point x="131" y="1375"/>
      <point x="176" y="1433"/>
      <point x="250" y="1433" type="curve" smooth="yes"/>
      <point x="456" y="1433"/>
      <point x="604" y="1014"/>
      <point x="748" y="18" type="curve" smooth="yes"/>
      <point x="751" y="-9"/>
      <point x="773" y="-17"/>
    </contour>
  </outline>
</glyph>
<glyph name="X.dec_ro" format="2">
  <advance width="1491"/>
  <outline>
    <contour>
      <point x="455" y="725" type="curve" smooth="yes"/>
      <point x="1045" y="725" type="line" smooth="yes"/>
      <point x="1062" y="725"/>
      <point x="1070" y="739"/>
      <point x="1070" y="765" type="curve" smooth="yes"/>
      <point x="1070" y="791"/>
      <point x="1062" y="805"/>
      <point x="1045" y="805" type="curve" smooth="yes"/>
      <point x="455" y="805" type="line" smooth="yes"/>
      <point x="437" y="805"/>
      <point x="430" y="791"/>
      <point x="430" y="765" type="curve" smooth="yes"/>
      <point x="430" y="739"/>
      <point x="437" y="725"/>
    </contour>
    <component base="X.dec"/>
  </outline>
</glyph>
<glyph name="X.dec_ro.ini" format="2">
  <advance width="1291"/>
  <anchor x="1291" y="0" name="cnct"/>
  <outline>
    <contour>
      <point x="455" y="725" type="curve" smooth="yes"/>
      <point x="1045" y="725" type="line" smooth="yes"/>
      <point x="1062" y="725"/>
      <point x="1070" y="739"/>
      <point x="1070" y="765" type="curve" smooth="yes"/>
      <point x="1070" y="791"/>
      <point x="1062" y="805"/>
      <point x="1045" y="805" type="curve" smooth="yes"/>
      <point x="455" y="805" type="line" smooth="yes"/>
      <point x="437" y="805"/>
      <point x="430" y="791"/>
      <point x="430" y="765" type="curve" smooth="yes"/>
      <point x="430" y="739"/>
      <point x="437" y="725"/>
    </contour>
    <component base="X.dec.ini"/>
  </outline>
</glyph>
<glyph name="Y.cur" format="2">
  <advance width="1240"/>
  <anchor x="588" y="0" name="bottom"/>
  <anchor x="699" y="1424" name="top"/>
  <outline>
    <contour>
      <point x="845" y="-1020" type="curve" smooth="yes"/>
      <point x="1014" y="-1020"/>
      <point x="1118" y="-874"/>
      <point x="1118" y="-635" type="curve"/>
      <point x="1118" y="1486" type="line"/>
      <point x="1118" y="1505"/>
      <point x="1103" y="1514"/>
      <point x="1074" y="1514" type="curve" smooth="yes"/>
      <point x="1045" y="1514"/>
      <point x="1030" y="1505"/>
      <point x="1030" y="1486" type="curve" smooth="yes"/>
      <point x="1030" y="446" type="line"/>
      <point x="979" y="273"/>
      <point x="855" y="171"/>
      <point x="691" y="171" type="curve" smooth="yes"/>
      <point x="521" y="171"/>
      <point x="430" y="283"/>
      <point x="430" y="504" type="curve" smooth="yes"/>
      <point x="430" y="1269" type="line" smooth="yes"/>
      <point x="430" y="1435"/>
      <point x="366" y="1519"/>
      <point x="243" y="1519" type="curve" smooth="yes"/>
      <point x="134" y="1519"/>
      <point x="51" y="1453"/>
      <point x="-27" y="1295" type="curve" smooth="yes"/>
      <point x="-40" y="1271"/>
      <point x="-35" y="1254"/>
      <point x="-9" y="1241" type="curve" smooth="yes"/>
      <point x="11" y="1231"/>
      <point x="30" y="1236"/>
      <point x="40" y="1255" type="curve" smooth="yes"/>
      <point x="110" y="1390"/>
      <point x="164" y="1436"/>
      <point x="239" y="1436" type="curve" smooth="yes"/>
      <point x="311" y="1436"/>
      <point x="343" y="1386"/>
      <point x="343" y="1269" type="curve" smooth="yes"/>
      <point x="343" y="491" type="line" smooth="yes"/>
      <point x="343" y="226"/>
      <point x="470" y="86"/>
      <point x="684" y="86" type="curve" smooth="yes"/>
      <point x="836" y="86"/>
      <point x="961" y="161"/>
      <point x="1030" y="303" type="curve"/>
      <point x="1030" y="-635" type="line"/>
      <point x="1030" y="-821"/>
      <point x="964" y="-935"/>
      <point x="854" y="-935" type="curve" smooth="yes"/>
      <point x="778" y="-935"/>
      <point x="731" y="-880"/>
      <point x="731" y="-789" type="curve" smooth="yes"/>
      <point x="731" y="-560"/>
      <point x="914" y="-346"/>
      <point x="1105" y="-181" type="curve" smooth="yes"/>
      <point x="1216" y="-85"/>
      <point x="1330" y="-6"/>
      <point x="1411" y="51" type="curve" smooth="yes"/>
      <point x="1431" y="65"/>
      <point x="1435" y="85"/>
      <point x="1420" y="106" type="curve" smooth="yes"/>
      <point x="1404" y="129"/>
      <point x="1391" y="136"/>
      <point x="1364" y="116" type="curve" smooth="yes"/>
      <point x="1280" y="58"/>
      <point x="1173" y="-19"/>
      <point x="1065" y="-110" type="curve" smooth="yes"/>
      <point x="849" y="-292"/>
      <point x="638" y="-531"/>
      <point x="638" y="-789" type="curve" smooth="yes"/>
      <point x="638" y="-932"/>
      <point x="715" y="-1020"/>
    </contour>
  </outline>
</glyph>
<glyph name="Y.cur.ini" format="2">
  <advance width="1266"/>
  <anchor x="1297" y="0" name="bottom"/>
  <anchor x="1266" y="0" name="cnct"/>
  <anchor x="699" y="1424" name="top"/>
  <outline>
    <contour>
      <point x="684" y="88" type="curve" smooth="yes"/>
      <point x="836" y="88"/>
      <point x="961" y="163"/>
      <point x="1030" y="304" type="curve"/>
      <point x="1030" y="-635" type="line" smooth="yes"/>
      <point x="1030" y="-821"/>
      <point x="964" y="-935"/>
      <point x="854" y="-935" type="curve" smooth="yes"/>
      <point x="777" y="-935"/>
      <point x="731" y="-880"/>
      <point x="731" y="-789" type="curve" smooth="yes"/>
      <point x="731" y="-739"/>
      <point x="637" y="-739"/>
      <point x="637" y="-789" type="curve" smooth="yes"/>
      <point x="637" y="-932"/>
      <point x="715" y="-1020"/>
      <point x="845" y="-1020" type="curve" smooth="yes"/>
      <point x="1014" y="-1020"/>
      <point x="1117" y="-874"/>
      <point x="1117" y="-635" type="curve" smooth="yes"/>
      <point x="1117" y="1488" type="line" smooth="yes"/>
      <point x="1117" y="1506"/>
      <point x="1102" y="1515"/>
      <point x="1074" y="1515" type="curve" smooth="yes"/>
      <point x="1045" y="1515"/>
      <point x="1030" y="1506"/>
      <point x="1030" y="1488" type="curve" smooth="yes"/>
      <point x="1030" y="448" type="line"/>
      <point x="979" y="274"/>
      <point x="855" y="173"/>
      <point x="691" y="173" type="curve" smooth="yes"/>
      <point x="521" y="173"/>
      <point x="430" y="284"/>
      <point x="430" y="505" type="curve" smooth="yes"/>
      <point x="430" y="1270" type="line" smooth="yes"/>
      <point x="430" y="1436"/>
      <point x="366" y="1520"/>
      <point x="242" y="1520" type="curve" smooth="yes"/>
      <point x="134" y="1520"/>
      <point x="51" y="1454"/>
      <point x="-28" y="1296" type="curve" smooth="yes"/>
      <point x="-40" y="1273"/>
      <point x="-35" y="1255"/>
      <point x="-9" y="1243" type="curve" smooth="yes"/>
      <point x="11" y="1233"/>
      <point x="30" y="1238"/>
      <point x="40" y="1256" type="curve" smooth="yes"/>
      <point x="110" y="1391"/>
      <point x="164" y="1438"/>
      <point x="239" y="1438" type="curve" smooth="yes"/>
      <point x="311" y="1438"/>
      <point x="342" y="1388"/>
      <point x="342" y="1270" type="curve" smooth="yes"/>
      <point x="342" y="493" type="line" smooth="yes"/>
      <point x="342" y="228"/>
      <point x="470" y="88"/>
    </contour>
  </outline>
</glyph>
<glyph name="Y_locl" format="2">
  <advance width="1064"/>
  <anchor x="533" y="0" name="bottom"/>
  <anchor x="568" y="1424" name="top"/>
  <outline>
    <contour>
      <point x="360" y="14" type="curve"/>
      <point x="1051" y="1455" type="line" smooth="yes"/>
      <point x="1061" y="1478"/>
      <point x="1055" y="1495"/>
      <point x="1033" y="1506" type="curve" smooth="yes"/>
      <point x="1003" y="1523"/>
      <point x="983" y="1518"/>
      <point x="970" y="1491" type="curve" smooth="yes"/>
      <point x="581" y="680" type="line"/>
      <point x="123" y="1494" type="line" smooth="yes"/>
      <point x="108" y="1520"/>
      <point x="88" y="1520"/>
      <point x="61" y="1503" type="curve" smooth="yes"/>
      <point x="34" y="1484"/>
      <point x="38" y="1466"/>
      <point x="49" y="1446" type="curve" smooth="yes"/>
      <point x="535" y="583" type="line"/>
      <point x="281" y="54" type="line"/>
      <point x="269" y="31"/>
      <point x="276" y="14"/>
      <point x="301" y="1" type="curve" smooth="yes"/>
      <point x="329" y="-12"/>
      <point x="345" y="-12"/>
    </contour>
  </outline>
</glyph>
<glyph name="Z.cur" format="2">
  <advance width="1158"/>
  <anchor x="585" y="0" name="bottom"/>
  <anchor x="585" y="786" name="center"/>
  <anchor x="585" y="1424" name="top"/>
  <outline>
    <contour>
      <point x="538" y="-1020" type="curve" smooth="yes"/>
      <point x="750" y="-1020"/>
      <point x="838" y="-810"/>
      <point x="838" y="-311" type="curve" smooth="yes"/>
      <point x="838" y="165"/>
      <point x="748" y="373"/>
      <point x="531" y="393" type="curve"/>
      <point x="536" y="396" type="line"/>
      <point x="874" y="538"/>
      <point x="1045" y="763"/>
      <point x="1045" y="1064" type="curve" smooth="yes"/>
      <point x="1045" y="1344"/>
      <point x="871" y="1515"/>
      <point x="585" y="1515" type="curve" smooth="yes"/>
      <point x="409" y="1515"/>
      <point x="243" y="1448"/>
      <point x="90" y="1314" type="curve" smooth="yes"/>
      <point x="73" y="1298"/>
      <point x="70" y="1283"/>
      <point x="88" y="1259" type="curve" smooth="yes"/>
      <point x="105" y="1235"/>
      <point x="120" y="1228"/>
      <point x="144" y="1249" type="curve" smooth="yes"/>
      <point x="280" y="1369"/>
      <point x="428" y="1430"/>
      <point x="581" y="1430" type="curve" smooth="yes"/>
      <point x="811" y="1430"/>
      <point x="951" y="1291"/>
      <point x="951" y="1063" type="curve" smooth="yes"/>
      <point x="951" y="769"/>
      <point x="798" y="581"/>
      <point x="430" y="430" type="curve" smooth="yes"/>
      <point x="381" y="410"/>
      <point x="398" y="331"/>
      <point x="446" y="329" type="curve" smooth="yes"/>
      <point x="680" y="319"/>
      <point x="744" y="188"/>
      <point x="744" y="-315" type="curve" smooth="yes"/>
      <point x="744" y="-751"/>
      <point x="685" y="-935"/>
      <point x="544" y="-935" type="curve" smooth="yes"/>
      <point x="471" y="-935"/>
      <point x="426" y="-880"/>
      <point x="426" y="-789" type="curve" smooth="yes"/>
      <point x="426" y="-537"/>
      <point x="670" y="-260"/>
      <point x="1120" y="51" type="curve" smooth="yes"/>
      <point x="1140" y="65"/>
      <point x="1144" y="85"/>
      <point x="1129" y="106" type="curve" smooth="yes"/>
      <point x="1113" y="129"/>
      <point x="1100" y="136"/>
      <point x="1073" y="116" type="curve" smooth="yes"/>
      <point x="593" y="-224"/>
      <point x="333" y="-524"/>
      <point x="333" y="-789" type="curve" smooth="yes"/>
      <point x="333" y="-932"/>
      <point x="410" y="-1020"/>
    </contour>
  </outline>
</glyph>
<glyph name="Z.dec" format="2">
  <advance width="1349"/>
  <anchor x="675" y="0" name="bottom"/>
  <anchor x="675" y="750" name="center"/>
  <anchor x="675" y="1424" name="top"/>
  <outline>
    <contour>
      <point x="879" y="-17" type="curve" smooth="yes"/>
      <point x="1085" y="-17"/>
      <point x="1208" y="85"/>
      <point x="1264" y="288" type="curve" smooth="yes"/>
      <point x="1270" y="310"/>
      <point x="1266" y="324"/>
      <point x="1239" y="333" type="curve" smooth="yes"/>
      <point x="1213" y="341"/>
      <point x="1196" y="338"/>
      <point x="1188" y="310" type="curve" smooth="yes"/>
      <point x="1138" y="149"/>
      <point x="1041" y="68"/>
      <point x="879" y="68" type="curve" smooth="yes"/>
      <point x="739" y="68"/>
      <point x="543" y="134"/>
      <point x="394" y="134" type="curve" smooth="yes"/>
      <point x="345" y="134"/>
      <point x="299" y="126"/>
      <point x="259" y="110" type="curve"/>
      <point x="1168" y="1426" type="line" smooth="yes"/>
      <point x="1181" y="1445"/>
      <point x="1190" y="1463"/>
      <point x="1168" y="1483" type="curve" smooth="yes"/>
      <point x="1150" y="1499"/>
      <point x="1136" y="1493"/>
      <point x="1113" y="1481" type="curve" smooth="yes"/>
      <point x="1054" y="1454"/>
      <point x="995" y="1439"/>
      <point x="911" y="1439" type="curve" smooth="yes"/>
      <point x="729" y="1439"/>
      <point x="600" y="1510"/>
      <point x="439" y="1510" type="curve" smooth="yes"/>
      <point x="324" y="1510"/>
      <point x="231" y="1454"/>
      <point x="163" y="1343" type="curve" smooth="yes"/>
      <point x="148" y="1318"/>
      <point x="145" y="1304"/>
      <point x="174" y="1286" type="curve" smooth="yes"/>
      <point x="201" y="1270"/>
      <point x="220" y="1278"/>
      <point x="231" y="1298" type="curve" smooth="yes"/>
      <point x="280" y="1383"/>
      <point x="351" y="1425"/>
      <point x="443" y="1425" type="curve" smooth="yes"/>
      <point x="566" y="1425"/>
      <point x="735" y="1354"/>
      <point x="896" y="1354" type="curve" smooth="yes"/>
      <point x="951" y="1354"/>
      <point x="991" y="1361"/>
      <point x="1026" y="1375" type="curve"/>
      <point x="110" y="49" type="line" smooth="yes"/>
      <point x="94" y="25"/>
      <point x="93" y="13"/>
      <point x="106" y="-4" type="curve" smooth="yes"/>
      <point x="118" y="-16"/>
      <point x="134" y="-19"/>
      <point x="163" y="-6" type="curve" smooth="yes"/>
      <point x="236" y="25"/>
      <point x="281" y="46"/>
      <point x="383" y="49" type="curve" smooth="yes"/>
      <point x="498" y="51"/>
      <point x="720" y="-17"/>
    </contour>
  </outline>
</glyph>
<glyph name="Z.dec_locl.ini" format="2">
  <advance width="1099"/>
  <anchor x="675" y="0" name="bottom"/>
  <anchor x="675" y="750" name="center"/>
  <anchor x="1099" y="0" name="cnct"/>
  <anchor x="675" y="1424" name="top"/>
  <outline>
    <contour>
      <point x="918" y="-17" type="curve" smooth="yes"/>
      <point x="968" y="-17"/>
      <point x="969" y="58"/>
      <point x="919" y="58" type="curve" smooth="yes"/>
      <point x="763" y="58"/>
      <point x="580" y="134"/>
      <point x="399" y="134" type="curve" smooth="yes"/>
      <point x="349" y="134"/>
      <point x="301" y="125"/>
      <point x="258" y="109" type="curve"/>
      <point x="683" y="724" type="line"/>
      <point x="1020" y="724" type="line" smooth="yes"/>
      <point x="1038" y="724"/>
      <point x="1045" y="738"/>
      <point x="1045" y="764" type="curve" smooth="yes"/>
      <point x="1045" y="790"/>
      <point x="1038" y="804"/>
      <point x="1020" y="804" type="curve" smooth="yes"/>
      <point x="738" y="804" type="line"/>
      <point x="1168" y="1426" type="line" smooth="yes"/>
      <point x="1181" y="1445"/>
      <point x="1190" y="1463"/>
      <point x="1168" y="1483" type="curve" smooth="yes"/>
      <point x="1150" y="1499"/>
      <point x="1136" y="1493"/>
      <point x="1113" y="1481" type="curve" smooth="yes"/>
      <point x="1054" y="1454"/>
      <point x="995" y="1439"/>
      <point x="911" y="1439" type="curve" smooth="yes"/>
      <point x="729" y="1439"/>
      <point x="600" y="1510"/>
      <point x="439" y="1510" type="curve" smooth="yes"/>
      <point x="324" y="1510"/>
      <point x="231" y="1454"/>
      <point x="163" y="1343" type="curve" smooth="yes"/>
      <point x="148" y="1318"/>
      <point x="145" y="1304"/>
      <point x="174" y="1286" type="curve" smooth="yes"/>
      <point x="201" y="1270"/>
      <point x="220" y="1278"/>
      <point x="231" y="1298" type="curve" smooth="yes"/>
      <point x="280" y="1383"/>
      <point x="351" y="1425"/>
      <point x="443" y="1425" type="curve" smooth="yes"/>
      <point x="566" y="1425"/>
      <point x="735" y="1354"/>
      <point x="896" y="1354" type="curve" smooth="yes"/>
      <point x="951" y="1354"/>
      <point x="991" y="1361"/>
      <point x="1026" y="1375" type="curve"/>
      <point x="631" y="804" type="line"/>
      <point x="310" y="804" type="line" smooth="yes"/>
      <point x="293" y="804"/>
      <point x="285" y="790"/>
      <point x="285" y="764" type="curve" smooth="yes"/>
      <point x="285" y="738"/>
      <point x="293" y="724"/>
      <point x="310" y="724" type="curve" smooth="yes"/>
      <point x="576" y="724" type="line"/>
      <point x="110" y="49" type="line" smooth="yes"/>
      <point x="94" y="25"/>
      <point x="93" y="13"/>
      <point x="106" y="-4" type="curve" smooth="yes"/>
      <point x="118" y="-16"/>
      <point x="134" y="-19"/>
      <point x="163" y="-6" type="curve" smooth="yes"/>
      <point x="236" y="25"/>
      <point x="285" y="48"/>
      <point x="384" y="49" type="curve" smooth="yes"/>
      <point x="533" y="51"/>
      <point x="743" y="-17"/>
    </contour>
  </outline>
</glyph>
